{"glyphs":{"0":{"ha":848,"x_min":77,"x_max":777,"o":"m 777 409 q 773 397 777 401 q 763 393 770 393 q 750 396 756 393 q 736 399 744 399 q 734 395 735 397 q 733 390 733 393 q 737 385 733 385 q 745 384 741 385 q 752 382 749 384 q 756 372 756 380 q 754 349 756 365 q 748 317 752 334 q 740 286 745 300 q 731 267 736 271 q 722 254 725 260 q 719 239 718 248 l 720 222 q 716 204 720 210 q 708 192 713 197 q 701 183 704 187 q 697 172 697 178 q 698 166 697 168 q 680 172 689 170 q 662 174 671 174 q 644 170 652 174 q 631 157 635 166 q 632 150 631 153 q 637 146 633 146 q 650 152 644 146 q 662 157 655 157 q 668 153 667 157 q 669 144 669 148 q 667 130 669 136 q 654 123 664 123 q 642 125 648 123 q 630 126 636 126 l 625 122 q 640 109 629 111 q 603 71 624 90 q 557 37 581 52 q 506 11 532 21 q 454 1 479 1 q 410 6 438 1 q 352 18 382 11 q 295 34 322 25 q 255 53 269 43 q 245 63 246 59 q 243 70 244 67 q 239 76 243 73 q 223 83 236 79 q 182 102 195 91 q 163 126 169 114 q 157 151 158 139 q 149 171 155 163 q 136 188 143 179 q 123 206 130 197 q 113 225 117 216 q 109 246 109 235 q 116 259 109 254 q 122 271 122 264 q 121 275 122 273 q 118 278 119 277 q 106 292 111 286 q 98 305 101 298 q 94 320 96 312 q 92 338 92 328 q 83 381 90 360 q 77 425 77 403 q 77 458 77 441 q 78 492 78 475 q 82 523 78 508 q 85 553 85 538 q 84 574 85 564 q 82 595 82 585 q 89 645 82 621 q 104 693 96 669 q 120 741 113 717 q 127 791 127 766 q 126 805 127 798 q 125 819 125 812 q 131 836 125 832 q 141 841 136 840 q 152 844 147 842 q 157 853 157 845 q 156 862 157 858 q 155 871 155 867 q 162 883 155 877 q 179 897 170 890 q 197 912 188 905 q 209 929 205 920 q 220 940 212 937 q 236 944 228 943 q 250 948 243 946 q 256 959 256 951 q 254 969 256 963 q 275 963 264 964 q 297 961 286 961 q 322 965 312 961 q 340 974 332 969 q 357 984 348 979 q 380 988 366 988 q 414 994 397 988 q 448 1000 430 1000 q 477 995 456 1000 q 522 983 499 990 q 563 966 545 975 q 582 949 581 958 q 591 951 587 951 q 599 951 595 951 q 620 948 610 951 q 636 941 629 945 q 652 932 644 937 q 669 921 660 926 l 669 917 l 670 913 q 666 897 670 905 q 659 882 661 890 q 667 873 661 876 q 677 867 672 870 q 688 861 683 865 q 693 850 692 858 q 696 839 694 843 q 708 833 699 834 l 707 819 l 707 812 q 715 772 707 789 q 733 741 723 755 q 750 715 743 728 q 758 688 758 703 q 752 663 758 675 q 745 640 745 651 q 750 629 745 636 q 760 612 755 622 q 770 592 766 603 q 775 568 775 581 q 756 534 775 545 q 755 527 755 530 q 758 517 755 521 q 765 511 762 514 q 772 505 769 509 q 776 492 776 500 q 773 478 776 484 q 766 467 770 472 q 759 457 762 462 q 756 448 756 453 q 760 438 756 442 q 767 429 763 433 q 774 420 770 425 q 777 409 777 415 m 758 557 q 751 568 758 565 q 740 570 745 570 q 726 558 726 570 q 731 549 726 552 q 742 547 736 547 q 752 549 747 547 q 758 557 758 552 m 684 495 q 679 520 684 509 q 673 546 673 532 q 675 576 673 562 q 676 607 676 591 q 679 627 676 617 q 681 646 681 636 q 674 675 681 656 q 659 713 668 693 q 641 751 650 733 q 627 781 632 770 q 625 786 627 782 q 622 793 624 789 q 618 800 620 797 q 615 803 616 803 q 612 802 614 802 q 598 810 610 802 q 575 832 587 819 q 552 860 562 846 q 543 887 543 875 q 543 892 543 890 q 520 894 534 892 q 494 901 507 897 q 470 913 481 906 q 456 930 460 921 q 424 923 439 928 q 392 913 408 918 q 360 904 376 908 q 327 900 344 900 q 319 900 323 900 q 311 901 315 901 q 313 892 313 897 q 308 883 313 885 q 295 882 302 882 q 285 882 290 882 q 277 882 281 882 l 273 882 l 273 876 l 273 873 q 269 859 273 865 q 258 850 264 854 q 245 842 252 846 q 234 833 239 838 q 242 823 242 832 q 233 795 242 812 q 214 757 224 779 q 195 711 203 736 q 186 659 186 686 q 180 653 184 656 q 173 651 177 651 q 162 654 168 651 q 151 657 157 657 q 144 652 144 657 q 149 640 144 645 q 159 628 153 634 q 169 615 165 622 q 174 599 174 608 q 169 566 174 575 q 160 552 165 557 q 151 542 155 548 q 146 519 146 536 q 146 512 146 515 q 147 505 146 508 q 127 486 138 493 q 144 474 138 482 q 155 458 151 467 q 161 441 159 450 q 163 427 163 432 q 167 386 163 406 q 171 346 171 366 q 168 321 171 328 q 161 312 165 314 q 154 310 157 310 q 151 307 151 311 q 154 302 151 302 q 165 305 159 302 q 176 311 172 309 q 178 296 178 306 q 178 275 178 286 q 181 257 178 265 q 190 248 183 250 q 204 241 200 246 q 211 231 208 237 q 216 218 213 224 q 227 207 218 212 q 247 192 237 201 q 267 174 256 182 q 288 160 277 166 q 313 153 299 153 q 360 147 336 151 q 408 138 385 143 q 429 135 417 135 q 455 139 442 135 q 482 147 469 142 q 509 155 495 151 q 536 159 522 159 q 553 157 544 159 q 553 161 553 158 q 561 181 553 169 q 579 204 568 193 q 602 224 590 216 q 621 234 613 233 q 618 242 618 237 q 618 250 618 246 q 621 273 618 260 q 635 290 625 285 q 643 298 640 292 q 647 313 646 304 q 650 333 649 322 q 650 353 650 343 q 650 376 650 366 q 650 392 650 387 l 650 399 q 664 419 660 406 q 670 445 668 432 q 672 468 671 458 q 675 480 673 478 q 684 495 684 486 m 564 109 l 562 109 q 539 100 548 109 q 524 79 530 92 q 533 86 526 86 q 530 81 533 83 q 524 79 528 79 q 541 78 532 79 q 557 77 549 77 q 566 80 563 77 q 571 88 570 83 q 572 98 572 93 q 572 109 572 104 l 564 109 z "},"1":{"ha":791,"x_min":38,"x_max":794,"o":"m 794 52 q 791 37 794 44 q 785 24 789 31 q 773 3 779 11 q 761 -8 767 -4 q 748 -13 755 -12 q 731 -14 741 -14 l 708 -14 q 698 -16 703 -16 q 690 -11 692 -16 q 688 1 688 -5 q 689 7 688 4 q 689 12 689 10 q 687 22 689 18 q 680 26 686 26 q 664 20 669 26 q 653 7 658 14 q 642 -5 648 1 q 624 -11 635 -11 q 597 -7 610 -11 q 570 -1 584 -3 q 515 1 543 1 q 459 3 487 2 q 405 7 432 4 q 350 16 377 9 q 338 18 344 17 q 326 18 332 18 q 272 13 298 18 q 212 7 245 7 q 167 2 189 7 q 122 -3 144 -3 q 97 2 111 -3 q 70 14 83 6 q 47 32 56 21 q 38 55 38 43 q 46 74 38 64 q 66 93 55 83 q 90 110 78 102 q 109 122 102 117 q 191 110 150 117 q 275 103 233 103 q 316 110 300 103 q 339 127 331 116 q 349 154 347 138 q 351 186 351 169 q 351 207 351 197 q 351 229 351 217 q 356 439 351 334 q 362 650 362 544 q 360 753 362 702 q 350 857 357 805 q 332 861 340 859 q 312 863 323 863 q 309 862 309 863 q 302 865 306 865 q 295 865 298 865 q 265 861 279 865 q 236 857 251 857 q 230 858 232 857 q 225 861 227 859 q 219 865 222 863 q 212 866 216 866 q 167 861 189 866 q 121 857 144 857 q 89 861 105 857 q 60 876 73 866 q 65 901 65 886 q 63 922 65 911 q 60 943 61 932 q 71 941 65 941 q 90 946 81 941 q 108 958 99 951 q 126 969 117 964 q 146 975 136 975 q 186 968 166 975 q 227 962 206 962 q 246 967 238 962 q 260 971 254 971 q 271 967 267 971 q 282 963 275 963 q 304 967 293 963 q 326 976 315 971 q 349 984 337 980 q 372 988 360 988 q 406 984 389 988 q 439 980 422 980 q 456 982 448 980 l 456 982 q 455 971 455 979 q 458 954 455 962 q 465 939 461 947 q 472 919 469 930 q 475 890 475 907 q 476 830 475 859 q 477 770 477 800 q 475 740 477 754 q 466 711 473 725 q 474 699 472 706 q 475 684 475 692 l 475 673 q 477 657 475 665 q 486 644 479 649 l 486 636 q 483 621 486 627 q 477 608 480 614 q 470 595 473 602 q 467 582 467 589 q 472 550 467 566 q 476 517 476 534 q 473 474 476 495 q 467 431 471 452 q 461 388 464 410 q 458 345 458 367 q 457 336 458 340 q 452 333 455 333 q 447 334 451 333 q 450 299 447 317 q 455 264 452 281 q 461 229 458 247 q 464 193 464 212 l 464 184 l 463 174 q 487 121 463 138 q 545 104 511 104 q 580 109 568 104 q 598 119 592 113 q 607 129 604 124 q 617 133 610 133 q 657 129 637 133 q 698 122 678 124 q 718 121 708 121 q 738 119 728 121 q 755 113 747 117 q 770 99 764 109 q 786 77 777 89 q 794 52 794 64 z "},"2":{"ha":797,"x_min":70,"x_max":751,"o":"m 751 140 q 748 114 751 128 q 734 92 745 100 q 728 82 731 88 q 723 70 725 76 q 718 59 720 64 q 713 54 715 54 q 708 55 711 54 q 703 57 706 56 l 698 54 q 675 34 690 44 q 643 17 660 24 q 609 4 626 9 q 578 -1 591 -1 q 562 2 568 -1 q 550 7 555 4 q 543 13 546 10 q 536 16 540 16 q 520 11 528 16 q 507 5 512 5 q 503 9 503 5 q 494 16 502 13 q 469 28 483 20 q 441 44 455 36 q 414 59 427 53 q 392 66 401 66 q 379 75 389 66 q 355 94 369 83 q 323 114 340 105 q 290 123 307 123 q 260 111 271 123 q 243 83 249 100 l 239 83 l 237 83 q 222 78 229 83 q 211 64 215 73 q 204 47 206 56 q 202 30 202 38 q 204 6 202 18 q 205 -17 205 -5 q 205 -25 205 -21 q 205 -33 205 -29 q 188 -31 197 -31 q 171 -32 179 -31 q 154 -34 163 -34 q 134 -26 140 -34 q 124 -7 128 -18 q 110 20 119 7 q 92 45 101 33 q 76 71 83 58 q 70 98 70 84 q 71 132 70 115 q 73 166 73 149 q 80 191 73 180 q 95 212 87 201 q 111 236 104 222 q 118 271 118 250 q 121 279 118 276 q 127 286 123 282 q 145 307 134 292 q 168 342 155 323 q 196 380 181 361 q 226 414 210 400 q 233 420 230 418 q 239 421 235 421 q 245 420 242 421 q 254 420 249 420 q 263 422 260 420 q 268 427 267 424 q 271 433 270 430 q 277 440 273 437 q 295 445 283 446 q 316 448 307 444 q 329 456 323 452 q 341 465 335 460 q 353 473 347 469 q 367 479 359 477 q 417 497 392 486 q 465 523 442 508 q 507 558 488 538 q 538 600 526 577 q 545 610 541 604 q 554 621 549 615 q 561 632 558 627 q 564 642 564 638 q 563 650 564 646 q 562 658 562 654 q 565 665 562 663 q 572 669 568 667 q 584 677 579 671 q 590 691 588 684 q 594 706 593 698 q 595 721 595 714 q 594 736 595 728 q 590 751 593 744 q 583 765 588 759 q 572 774 578 772 q 566 777 570 776 q 562 782 562 779 q 564 787 562 785 q 565 792 565 789 q 560 802 565 797 q 548 812 555 807 q 534 822 541 817 q 524 833 527 827 q 508 846 521 838 q 480 861 495 854 q 450 873 465 868 q 430 878 436 878 q 385 870 406 878 q 340 857 363 861 q 296 850 323 853 q 244 840 269 847 q 200 818 218 832 q 181 779 181 804 q 188 757 181 767 q 205 738 195 747 q 227 718 215 728 q 250 698 239 709 q 267 675 260 687 q 273 649 273 663 q 262 619 273 631 q 235 598 251 606 q 201 586 219 590 q 169 583 183 583 q 138 587 152 583 q 123 591 128 590 q 115 594 118 592 q 111 600 112 595 q 107 614 109 604 q 100 635 105 626 q 91 653 96 644 q 83 672 87 663 q 80 695 80 682 q 88 734 80 711 q 107 781 96 757 q 132 825 119 804 q 157 857 145 846 q 164 867 161 861 q 170 878 167 873 q 178 886 173 883 q 192 890 182 890 l 204 890 q 220 892 214 890 q 229 905 226 895 q 239 914 231 911 q 255 919 246 918 q 273 921 264 920 q 288 922 282 922 q 314 926 301 922 q 339 933 326 929 q 365 940 352 937 q 391 943 377 943 l 401 943 q 496 933 458 940 q 563 910 534 926 q 615 865 591 894 q 669 789 639 836 q 681 763 675 777 q 698 741 686 749 q 688 706 690 724 q 685 669 686 688 q 682 648 684 657 q 676 631 680 639 q 668 614 673 623 q 659 595 664 606 q 654 583 656 588 q 651 573 653 578 q 646 565 650 568 q 635 557 643 561 q 623 546 627 552 q 618 533 620 540 q 613 521 616 527 q 602 513 610 515 q 571 495 585 506 q 542 473 556 484 q 514 451 528 461 q 483 437 500 441 q 447 422 464 432 q 414 403 430 413 q 381 383 397 393 q 345 369 364 374 q 333 363 338 367 q 325 354 328 359 q 318 344 321 349 q 310 334 315 338 q 296 324 302 326 q 283 321 290 322 q 269 316 276 319 q 254 300 262 312 q 243 291 250 294 q 230 284 236 288 q 219 276 224 281 q 215 264 215 272 q 212 253 215 258 q 205 244 209 249 q 199 236 202 240 q 196 226 196 231 q 197 218 196 222 q 203 208 199 213 q 215 199 208 203 q 235 196 222 196 q 259 198 247 196 q 283 200 271 200 q 303 197 294 200 q 321 191 312 194 q 338 184 330 187 q 356 181 347 181 q 378 199 373 181 q 382 192 381 198 q 385 179 384 186 q 387 167 386 173 q 391 161 389 161 q 397 171 395 164 q 406 177 399 177 q 414 173 410 177 q 422 164 418 169 q 432 155 427 159 q 446 151 438 151 q 476 141 460 151 q 509 118 492 130 q 543 95 526 105 q 576 84 560 84 q 606 92 594 84 q 627 111 618 100 q 645 137 637 123 q 661 162 652 151 q 682 181 670 174 q 709 189 693 189 q 743 176 735 189 q 751 140 751 163 m 543 905 l 514 905 q 517 901 517 905 q 515 895 517 898 q 513 899 513 897 q 514 899 513 899 q 514 900 514 899 l 514 905 l 513 895 q 517 876 512 885 q 533 866 522 867 q 539 882 535 874 q 544 898 544 889 l 543 905 z "},"3":{"ha":774,"x_min":62,"x_max":713,"o":"m 713 274 q 711 242 713 252 q 706 229 710 233 q 693 222 701 225 q 671 209 685 219 q 686 168 686 191 q 672 125 686 144 q 639 92 658 106 q 612 62 621 80 q 594 25 603 44 q 545 14 567 24 q 502 -12 523 4 q 480 -22 491 -19 q 457 -24 469 -24 q 432 -23 445 -24 q 408 -22 420 -22 q 365 -28 386 -22 q 321 -35 343 -35 q 294 -32 311 -35 q 259 -24 277 -28 q 225 -14 241 -20 q 198 -4 208 -9 q 159 20 177 5 q 121 45 141 35 q 97 93 111 70 q 62 132 83 115 q 69 152 67 142 q 71 174 71 163 q 67 214 71 194 q 63 254 63 234 q 81 315 63 288 l 87 315 q 110 319 99 315 q 132 323 120 323 q 164 318 149 323 q 192 303 180 313 q 211 278 204 293 q 218 245 218 264 q 217 228 218 239 q 212 206 216 217 q 202 188 208 195 q 187 180 196 180 q 177 183 182 180 q 169 190 172 186 q 170 167 169 182 q 175 137 172 152 q 186 112 179 123 q 203 102 193 101 l 220 102 l 225 102 q 268 98 246 102 q 314 93 290 93 q 351 90 333 93 q 389 87 370 87 q 435 94 414 87 q 476 113 457 101 q 512 140 495 125 q 547 171 530 155 q 554 185 554 178 q 553 192 554 189 q 553 199 553 195 q 561 218 553 208 q 578 241 569 228 q 596 269 588 254 q 604 304 604 285 q 600 335 604 320 q 595 368 595 351 q 589 392 595 381 q 575 413 583 403 q 561 435 567 424 q 554 458 554 446 q 554 464 554 461 q 555 470 554 467 q 518 482 539 474 q 475 498 496 490 q 435 513 454 507 q 406 519 416 519 q 355 514 380 519 q 304 509 330 509 q 309 514 304 511 q 321 519 314 516 q 333 526 328 522 q 338 534 338 529 q 329 543 338 539 q 316 547 320 547 q 302 544 309 547 q 290 537 296 541 q 278 530 284 533 q 264 527 271 527 q 254 530 259 527 q 246 538 250 533 l 246 534 l 246 531 q 253 514 246 519 q 271 509 260 509 l 275 509 q 258 487 267 496 q 232 477 248 477 q 210 478 220 477 q 188 479 199 479 q 204 533 191 505 q 236 587 217 561 q 278 636 256 613 q 319 673 300 659 q 332 683 327 680 q 342 689 338 686 q 351 697 347 692 q 359 712 355 703 q 374 736 365 726 q 393 756 383 747 q 413 777 403 766 q 430 799 422 787 q 448 806 439 803 q 467 813 458 809 q 484 823 476 817 q 497 838 492 828 q 479 870 496 862 q 440 878 461 878 q 411 872 425 878 q 381 866 397 866 q 361 871 370 866 q 340 876 351 876 q 329 872 334 876 q 319 869 325 869 q 309 871 313 869 q 300 873 305 873 l 296 869 q 290 865 295 866 q 279 865 286 865 q 259 866 269 865 q 245 867 249 867 q 207 850 222 867 q 191 810 191 833 q 193 788 191 799 q 195 766 195 777 q 191 745 195 756 q 181 725 187 734 q 165 709 174 715 q 145 703 156 703 q 122 709 133 703 q 101 722 111 715 l 101 725 q 104 738 101 732 q 111 749 107 743 q 118 761 115 755 q 121 773 121 766 q 116 786 121 781 q 111 799 111 791 q 115 817 111 808 q 119 836 119 826 q 114 860 119 848 q 109 884 109 871 q 114 897 109 888 q 125 917 119 907 q 139 935 132 927 q 150 942 146 942 q 163 940 157 942 q 176 939 169 939 q 213 942 194 939 q 251 946 231 946 q 282 945 267 946 q 314 945 298 945 q 380 951 348 945 q 446 958 412 958 q 467 957 456 958 q 488 956 477 956 q 537 960 513 956 q 586 964 562 964 q 610 962 598 964 q 633 954 622 960 l 633 953 q 630 938 630 947 q 632 927 630 932 q 637 918 635 922 q 643 910 640 914 q 645 901 645 906 q 636 882 645 896 q 614 851 627 868 q 591 819 602 835 q 576 793 580 802 q 566 780 572 785 q 552 772 559 775 q 536 766 544 769 q 521 759 528 764 q 498 737 511 752 q 474 705 486 722 q 454 670 463 688 q 446 642 446 653 q 454 627 446 635 q 471 612 461 619 q 492 597 481 604 q 507 586 502 591 q 521 578 514 579 q 535 576 528 576 q 549 573 543 575 q 562 564 556 571 q 575 551 568 557 q 588 539 582 545 q 599 526 595 533 q 604 509 604 519 l 633 509 l 633 489 q 654 470 650 477 q 659 455 659 462 l 659 450 q 662 441 659 444 q 683 412 677 426 q 692 385 690 399 q 696 356 694 371 q 704 323 698 341 q 710 298 708 311 q 713 274 713 286 m 324 905 q 321 912 324 909 q 314 916 318 916 q 306 908 307 916 q 304 895 304 900 l 305 898 q 306 896 306 897 q 304 895 306 895 q 317 897 310 895 q 324 905 324 899 z "},"4":{"ha":850,"x_min":22,"x_max":810,"o":"m 806 31 q 796 34 801 31 q 786 37 791 37 q 781 35 783 37 q 778 31 779 33 q 762 24 775 26 q 733 20 749 21 q 702 18 717 18 q 682 18 688 18 q 653 20 667 18 q 626 30 639 23 q 604 24 617 24 q 596 25 600 24 q 589 25 593 25 q 570 20 578 25 q 554 14 562 14 q 543 17 548 14 q 532 22 537 19 q 523 28 528 25 q 515 31 519 31 q 508 28 511 31 q 502 21 505 25 q 498 13 500 17 q 495 6 496 9 q 486 13 492 12 q 474 14 480 14 q 462 16 467 14 q 456 25 457 18 l 451 25 q 445 26 449 25 q 441 31 441 27 q 445 44 441 38 q 448 56 448 50 q 447 64 448 60 l 440 64 q 426 60 431 64 q 417 48 421 55 q 409 35 413 42 q 399 25 406 28 q 376 21 387 25 q 354 18 366 18 q 339 21 347 18 q 324 29 331 24 q 313 41 317 34 q 309 56 309 48 q 314 76 309 66 q 325 92 318 85 q 358 112 340 107 q 395 117 376 116 q 432 120 414 118 q 464 135 450 123 q 487 172 478 146 q 495 244 495 197 l 495 267 q 465 265 481 265 q 394 271 429 265 q 323 277 359 277 q 286 273 304 277 q 248 268 267 268 q 211 271 229 268 q 173 274 192 274 q 155 272 163 274 q 138 266 146 269 q 123 261 130 263 q 111 258 116 258 q 89 260 101 258 q 65 265 76 261 q 45 277 54 269 q 34 297 37 284 q 26 321 31 309 q 22 345 22 333 q 24 354 22 348 q 30 368 27 359 q 36 386 33 376 q 39 406 39 395 q 42 421 39 412 q 50 440 45 431 q 60 457 54 449 q 70 470 65 465 q 79 476 74 474 q 89 480 83 478 q 99 483 94 481 q 109 489 104 485 q 118 500 114 494 q 125 513 121 507 q 133 526 129 519 q 143 536 137 532 q 154 543 147 539 q 160 553 160 547 q 158 564 160 558 q 156 574 156 569 q 156 580 156 578 q 157 586 156 583 q 182 598 172 590 q 200 616 192 606 q 214 638 208 627 q 229 662 220 650 q 263 704 243 685 q 302 741 282 723 q 322 764 315 751 q 336 789 329 777 q 353 811 344 801 q 379 827 363 822 q 376 839 376 834 q 383 856 376 849 q 397 869 390 863 q 417 889 410 880 q 432 908 425 899 q 448 926 439 917 q 475 943 458 935 q 490 956 488 949 q 493 969 492 963 q 498 978 494 975 q 517 982 502 982 q 549 978 534 982 q 576 965 564 973 q 594 943 587 956 q 602 912 602 930 q 597 881 602 897 q 593 850 593 866 q 596 827 593 839 q 600 804 600 816 q 582 770 600 783 q 590 747 585 766 q 600 707 595 728 q 608 665 605 685 q 612 639 612 645 q 607 615 612 627 q 602 593 602 604 q 605 568 602 580 q 608 543 608 555 q 606 498 608 520 q 603 454 603 476 q 603 433 603 444 q 607 412 604 422 q 616 394 610 401 q 633 382 622 386 q 674 374 652 377 q 717 369 696 371 q 758 365 739 367 q 788 358 777 362 q 796 351 793 356 q 802 339 800 346 q 804 325 804 332 q 805 313 805 318 l 805 309 l 804 296 q 795 297 799 297 q 781 294 787 297 q 770 288 775 292 q 762 281 766 284 q 755 278 759 278 q 747 293 751 286 q 737 306 743 300 q 729 295 730 302 q 727 281 728 288 q 725 269 727 274 q 713 264 722 264 q 688 266 701 264 q 664 268 676 268 q 616 254 632 268 q 600 207 600 239 q 607 172 600 189 q 621 143 613 156 q 634 123 628 131 q 640 113 640 115 q 662 118 649 118 q 680 116 671 118 q 697 115 688 115 q 718 121 709 115 q 732 127 726 127 q 754 123 743 127 q 776 117 765 119 q 780 110 776 113 q 789 104 784 107 q 799 97 794 101 q 803 87 803 94 q 802 77 803 81 q 802 66 802 72 q 805 50 802 58 q 810 34 809 43 l 806 31 m 538 750 q 532 762 538 754 q 524 774 526 770 q 515 792 518 783 q 508 809 512 802 q 497 822 504 817 q 476 827 490 827 l 477 820 q 454 800 464 812 q 437 777 445 788 q 420 755 429 765 q 399 741 411 745 l 399 734 q 394 711 399 722 q 382 693 390 701 q 366 677 375 684 q 347 664 356 670 q 334 652 338 659 q 326 638 330 645 q 318 625 322 631 q 306 615 314 619 q 294 607 297 610 q 291 601 292 604 q 290 593 290 597 q 287 582 290 589 q 276 563 282 572 q 266 545 270 554 q 254 525 260 533 q 240 510 248 517 q 224 496 232 503 q 210 480 216 490 q 199 463 206 475 q 184 437 191 451 q 171 410 176 422 q 165 393 165 398 q 170 382 165 387 q 183 376 175 378 q 202 373 192 374 q 224 372 213 372 q 269 373 252 372 q 290 374 287 374 q 318 372 304 374 q 340 359 332 370 q 348 350 344 355 q 357 345 351 345 q 364 348 361 345 q 372 352 367 350 q 386 357 377 355 q 412 359 395 359 q 427 362 417 359 q 447 370 437 366 q 468 378 458 374 q 486 383 479 382 q 508 454 496 418 q 519 528 519 490 q 516 561 519 545 q 514 595 514 578 q 516 614 514 605 q 521 632 519 623 q 526 651 524 642 q 528 669 528 660 q 525 688 528 679 q 522 706 522 696 q 524 719 522 712 q 529 731 526 725 q 535 741 532 736 q 538 750 538 746 m 575 192 q 566 199 572 197 q 553 201 559 201 l 546 197 q 550 189 547 193 q 553 180 553 184 q 567 182 559 180 q 575 192 575 185 m 225 519 q 222 526 225 523 q 216 529 219 529 q 207 522 208 529 q 205 509 205 514 q 218 510 210 509 q 225 519 225 511 z "},"5":{"ha":747,"x_min":66,"x_max":701,"o":"m 701 381 q 695 363 701 372 q 690 345 690 355 q 692 334 690 339 q 694 322 694 329 q 693 308 694 316 q 688 294 691 300 q 679 282 684 287 q 667 277 674 277 q 661 278 663 277 l 661 273 q 664 264 661 267 q 671 261 667 262 q 679 258 675 260 q 682 252 682 256 q 679 244 682 246 q 671 239 675 241 q 664 234 667 237 q 661 224 661 231 q 662 209 661 216 q 664 194 664 201 q 663 185 664 189 q 656 179 661 180 l 635 149 q 623 139 629 141 q 610 135 616 136 q 600 131 604 134 q 596 121 596 129 q 588 93 595 104 q 570 74 581 81 q 546 64 559 67 q 516 60 532 60 q 488 66 502 60 q 484 58 484 62 q 493 49 484 52 q 507 46 502 47 q 501 32 506 37 q 488 23 496 26 q 471 19 481 20 q 452 18 462 18 q 430 19 440 18 q 412 20 419 20 q 399 17 404 20 q 388 11 393 14 q 378 3 383 7 q 368 0 374 0 l 363 3 q 358 4 361 4 q 354 5 356 5 q 335 3 345 5 q 316 1 326 1 q 277 6 298 1 q 238 14 255 11 q 224 21 229 16 q 215 33 219 26 q 207 44 212 39 q 193 52 202 50 q 181 54 186 54 q 170 55 175 54 q 160 58 165 56 q 149 65 155 60 q 137 81 142 73 q 127 99 132 90 q 117 116 123 108 q 100 128 111 123 q 88 138 94 132 q 81 153 82 145 q 91 172 88 163 q 85 182 89 180 q 79 187 82 184 q 73 194 75 189 q 70 213 70 199 q 68 239 70 227 q 66 266 66 252 q 74 297 66 285 q 95 317 82 310 q 124 328 108 325 q 156 332 140 332 q 185 329 170 332 q 215 319 201 326 q 238 301 229 313 q 248 273 248 290 q 241 227 248 249 q 235 180 235 204 q 239 162 235 171 q 246 145 242 154 q 253 129 250 137 q 256 111 256 120 q 256 108 256 110 q 256 104 256 106 q 282 106 269 105 q 309 108 295 108 q 342 101 326 108 q 373 95 357 95 q 394 98 384 95 q 415 104 405 101 q 436 111 425 108 q 458 114 446 114 q 478 119 470 114 q 493 131 486 124 q 506 146 499 138 q 523 159 513 154 q 561 186 545 169 q 588 223 577 203 q 605 267 600 244 q 610 314 610 290 q 602 371 610 342 q 577 427 593 399 q 540 478 562 454 q 493 520 519 503 q 440 549 468 538 q 383 559 412 559 q 340 554 363 559 q 298 543 317 549 q 279 534 288 541 q 262 521 271 528 q 246 508 254 514 q 227 500 237 503 q 212 484 220 494 q 196 465 205 474 q 178 450 188 456 q 158 444 169 444 q 136 456 144 444 q 123 488 127 469 q 116 532 118 508 q 115 581 115 557 q 116 634 115 610 q 117 668 117 658 q 116 706 117 687 q 111 742 115 724 l 115 743 q 127 738 122 743 q 140 732 132 733 l 140 736 q 135 752 140 747 q 125 762 131 758 q 115 771 119 766 q 111 783 111 775 q 111 813 111 795 q 113 850 112 831 q 116 888 115 869 q 118 919 117 906 q 135 950 119 943 q 172 958 151 958 q 211 954 194 958 q 241 946 228 950 q 266 938 254 942 q 288 935 277 935 q 307 936 297 935 q 326 937 317 937 q 375 931 351 937 q 426 924 400 924 q 456 928 441 924 q 486 937 471 932 q 515 946 500 942 q 547 950 530 950 q 574 945 562 950 q 594 940 589 944 q 600 930 599 935 q 598 920 600 925 q 597 913 597 916 q 588 903 597 909 q 568 890 579 897 q 546 878 557 884 q 532 870 536 872 q 497 849 517 854 q 456 844 476 844 q 425 846 446 844 q 377 850 404 848 q 323 857 351 853 q 269 864 294 860 q 224 871 243 867 q 197 878 205 875 q 196 875 196 876 q 196 872 196 873 q 202 824 196 848 q 208 777 208 800 l 207 771 q 190 776 197 771 q 172 781 182 781 l 168 781 l 168 773 q 171 757 168 764 q 179 745 174 750 q 191 737 184 741 q 205 729 197 733 q 217 710 212 725 q 225 677 222 695 q 230 642 228 659 q 236 616 233 625 q 262 625 245 621 q 299 634 280 630 q 336 642 319 639 q 363 645 354 645 q 411 639 388 645 q 459 633 435 633 q 508 620 486 633 q 551 592 530 606 q 560 578 555 589 q 570 555 565 567 q 581 533 575 543 q 593 524 587 524 q 604 526 598 524 q 616 528 610 528 q 644 516 633 528 q 663 488 655 505 q 674 453 670 471 q 681 423 678 435 q 685 412 682 417 q 692 402 688 408 q 698 392 695 397 q 701 381 701 387 m 557 103 q 550 113 557 111 q 536 116 543 116 q 524 114 531 116 q 516 106 516 112 l 516 104 l 523 104 q 540 102 531 104 q 555 94 549 100 q 557 103 557 98 z "},"6":{"ha":817,"x_min":67,"x_max":761,"o":"m 761 313 q 748 273 753 294 q 740 231 743 252 q 732 190 736 210 q 722 149 728 169 q 685 120 702 139 q 651 83 668 102 q 616 50 634 64 q 576 33 598 35 q 533 24 553 31 q 493 8 513 16 q 453 -6 473 0 q 411 -13 433 -13 q 386 -12 403 -13 q 352 -9 369 -12 q 320 -1 334 -6 q 302 14 305 5 q 292 24 298 22 q 278 27 286 26 q 263 28 271 28 q 249 33 255 28 q 233 46 240 38 q 219 62 226 54 q 205 78 212 70 q 191 91 199 85 q 171 100 182 96 q 152 110 160 104 q 148 117 149 113 q 145 126 146 121 q 141 134 143 130 q 133 139 138 138 l 132 145 q 138 172 132 159 q 144 199 144 185 q 140 214 144 207 q 130 229 136 222 q 117 244 123 237 q 109 260 111 252 q 99 288 103 273 q 84 313 95 304 q 73 340 73 323 q 75 358 73 349 q 76 376 76 367 q 72 396 76 387 q 67 414 67 404 q 73 424 67 420 q 84 429 79 428 q 81 439 84 435 q 76 444 79 442 q 70 448 73 446 q 68 451 68 449 q 78 464 71 458 q 84 477 84 471 q 78 491 84 485 q 71 505 71 497 q 73 507 71 507 q 77 508 75 507 q 81 510 79 508 q 84 516 83 511 q 95 593 89 555 q 111 669 102 630 q 113 685 112 677 q 114 703 114 694 q 114 711 114 707 q 113 719 114 715 q 137 749 125 728 q 160 792 149 770 q 181 829 171 813 q 199 845 191 845 q 214 843 207 845 q 229 841 221 841 q 237 841 231 841 q 245 845 244 842 q 239 851 243 848 q 231 856 235 853 q 223 861 227 859 q 220 868 220 864 q 223 876 220 871 q 231 884 227 880 q 240 891 235 888 q 246 897 244 895 q 276 919 263 911 q 301 933 289 928 q 329 943 314 939 q 365 951 344 947 q 372 955 371 952 q 373 961 372 958 q 378 967 374 964 q 393 969 381 969 q 414 975 404 969 q 435 981 423 981 l 465 981 q 491 980 479 981 q 512 979 504 980 q 531 975 522 978 q 549 969 541 972 q 567 964 558 966 q 587 962 576 962 q 597 958 595 962 q 599 951 598 955 q 602 943 600 947 q 613 940 604 940 q 621 941 617 940 q 629 942 625 942 q 636 939 634 942 q 641 931 639 935 q 644 924 642 928 q 647 921 645 921 q 652 922 649 921 q 659 923 654 923 q 666 920 664 923 q 669 911 668 916 q 671 902 670 907 q 674 893 671 897 q 693 872 685 880 q 707 854 701 863 q 715 833 713 845 q 718 802 718 821 q 713 768 718 784 q 701 737 709 752 q 684 708 693 722 q 665 680 674 694 q 637 687 652 687 q 616 685 626 687 q 595 684 606 684 q 568 690 581 684 q 557 710 563 701 q 545 730 551 720 q 535 751 539 741 q 532 774 532 762 q 534 792 532 783 q 541 809 537 801 q 547 827 544 818 q 549 845 549 836 q 532 863 549 862 q 495 869 513 865 q 459 873 477 873 q 422 864 439 873 q 416 887 422 881 q 404 893 411 892 q 388 894 396 895 q 374 897 380 893 q 378 894 376 896 q 384 889 381 892 q 390 885 387 887 q 392 880 392 882 q 386 876 392 877 q 373 874 380 876 q 359 868 366 872 q 353 856 353 865 q 354 850 353 852 q 355 845 354 848 q 347 846 353 846 q 336 844 341 846 q 326 840 331 842 q 316 836 321 838 q 304 834 311 834 q 297 835 299 834 q 289 829 291 831 q 288 823 288 826 q 288 815 288 819 q 289 808 289 812 q 286 797 289 801 q 278 789 283 792 q 268 783 273 786 q 258 777 262 781 q 221 734 237 760 q 194 680 205 709 q 177 620 182 650 q 172 563 172 590 q 177 543 172 549 q 191 535 182 537 q 210 531 199 532 q 229 526 220 530 q 244 543 239 534 q 254 558 250 551 q 267 573 259 566 q 289 584 274 579 q 360 603 323 595 q 433 611 397 611 q 485 604 459 611 q 529 574 511 596 l 535 574 q 565 568 547 574 q 602 553 583 562 q 635 533 620 544 q 658 511 651 522 q 667 506 661 506 q 673 507 670 506 q 679 507 675 507 q 684 502 684 507 q 684 498 684 500 q 684 494 684 496 q 692 475 684 484 q 711 458 701 467 q 730 439 722 450 q 739 415 739 429 q 734 382 739 398 q 728 351 728 367 q 738 326 728 335 q 761 313 747 317 m 630 310 q 625 349 630 328 q 611 390 620 370 q 589 427 602 410 q 562 455 576 444 q 535 473 552 463 q 499 493 518 484 q 462 510 480 503 q 431 517 444 517 q 412 514 422 517 q 392 511 402 511 q 373 512 382 511 q 353 514 363 514 q 336 510 344 514 q 326 496 329 507 l 258 496 q 260 484 260 490 q 248 453 260 469 q 222 417 236 437 q 196 375 208 398 q 184 323 184 352 q 186 306 184 314 q 192 288 189 297 q 198 270 195 279 q 201 251 201 261 q 202 231 201 236 q 205 225 203 227 q 213 222 208 224 q 227 213 218 221 q 238 198 233 206 q 248 181 243 189 q 260 167 253 173 q 277 159 267 161 q 286 154 279 158 q 300 143 292 149 q 314 132 307 138 q 323 125 321 127 q 341 116 326 119 q 375 111 357 113 q 412 108 394 109 q 436 107 429 107 q 478 113 464 107 q 503 128 493 119 q 524 148 513 137 q 553 170 534 159 q 585 195 570 180 q 609 230 599 211 q 625 270 619 249 q 630 310 630 290 z "},"7":{"ha":771,"x_min":22,"x_max":762,"o":"m 762 945 q 761 928 761 939 q 760 904 761 917 q 758 877 760 890 q 752 851 755 863 q 743 832 749 840 q 729 825 737 825 q 727 826 728 825 q 726 826 726 826 q 718 798 724 814 q 703 761 712 781 q 682 721 693 741 q 658 683 670 701 q 635 650 646 665 q 615 629 623 636 q 599 605 607 621 q 583 569 591 589 q 567 531 575 550 q 549 499 558 511 q 533 472 541 489 q 524 442 525 456 l 526 435 q 519 421 524 425 q 507 412 513 416 q 495 399 500 407 q 490 376 490 392 q 487 365 490 370 q 481 356 484 360 q 476 349 478 353 q 473 340 473 345 q 476 322 473 331 q 479 304 479 313 q 476 266 479 284 q 473 229 473 248 q 469 203 473 215 q 459 181 465 192 q 447 159 454 170 q 437 136 441 149 q 429 120 433 127 q 416 108 425 113 q 419 99 418 103 q 420 89 420 94 q 418 72 420 83 q 410 51 415 61 q 399 33 406 41 q 384 25 392 25 q 380 26 381 25 q 383 16 382 21 q 384 5 384 11 q 382 -18 384 -6 q 380 -41 380 -29 l 380 -47 l 374 -47 q 316 -27 334 -47 q 299 32 299 -7 q 304 89 299 61 q 309 146 309 117 q 304 164 309 156 q 299 182 299 172 q 301 187 299 185 q 305 192 302 189 q 319 211 315 200 q 327 233 323 222 q 336 252 330 243 q 353 262 341 260 l 353 267 q 350 280 353 274 q 347 292 347 286 q 351 304 347 299 q 359 315 355 310 q 369 338 363 321 q 381 372 375 355 q 394 404 388 389 q 404 420 399 418 q 420 437 416 427 q 426 458 425 448 q 431 479 428 469 q 444 494 433 489 q 455 507 452 498 q 461 525 459 515 q 465 545 463 535 q 471 562 467 555 q 479 573 474 568 q 489 581 484 577 q 497 590 494 585 q 500 602 500 595 l 500 606 q 510 615 506 610 q 516 626 514 620 q 524 644 519 636 q 535 660 529 652 q 546 675 541 667 q 554 693 551 684 q 566 718 557 701 q 585 752 575 735 q 604 784 595 770 q 612 801 612 798 q 606 812 612 808 q 593 818 600 816 q 577 820 585 820 q 564 821 569 821 q 531 818 547 821 q 498 816 515 816 q 439 824 470 816 q 389 854 409 831 q 377 850 383 851 q 365 850 371 850 q 337 853 351 850 q 311 861 324 857 q 284 868 297 865 q 256 871 271 871 q 228 867 243 871 q 199 853 212 862 q 176 833 186 844 q 163 807 166 821 q 154 782 159 793 q 142 758 149 770 q 129 735 136 747 q 119 711 123 724 q 106 692 115 701 q 88 676 98 683 q 66 666 77 670 q 43 663 54 663 q 22 707 22 681 q 23 737 22 722 q 25 767 25 751 q 30 783 25 776 q 40 798 34 791 q 52 811 46 804 q 62 826 58 818 q 68 848 66 836 q 71 873 70 860 q 73 899 73 886 q 73 922 73 911 q 73 947 73 935 q 71 972 73 960 q 85 974 81 972 q 92 980 90 977 q 96 985 94 983 q 102 988 98 988 q 123 983 113 988 q 144 972 134 978 q 167 961 155 966 q 191 956 178 956 q 219 963 207 956 q 245 979 232 970 q 273 995 258 988 q 311 1002 288 1002 q 324 1005 318 1002 q 334 1010 330 1007 q 344 1016 339 1013 q 355 1019 349 1019 q 365 1014 361 1019 q 376 1008 369 1008 q 388 1011 382 1008 q 399 1015 393 1015 q 430 1006 408 1015 q 476 985 452 997 q 523 962 501 973 q 553 945 545 950 q 591 950 572 945 q 629 963 610 956 q 668 976 648 970 q 708 982 688 982 q 731 977 725 982 q 741 966 738 972 q 747 954 744 960 q 762 945 750 947 z "},"8":{"ha":831,"x_min":72,"x_max":764,"o":"m 764 288 q 762 273 764 281 q 756 259 760 266 q 751 244 753 252 q 749 230 749 237 q 751 217 749 222 q 754 209 754 212 q 748 193 754 203 q 733 170 742 182 q 715 146 725 157 q 699 127 705 134 q 679 109 690 119 q 656 88 667 99 q 636 65 645 77 q 623 43 627 54 q 565 34 594 40 q 508 22 536 28 q 450 11 479 16 q 391 4 420 5 l 391 13 q 389 12 391 12 q 386 11 387 11 l 371 8 q 349 4 360 6 q 326 3 337 3 q 295 9 309 3 q 266 24 281 16 q 235 38 252 32 q 199 45 219 45 q 182 50 189 45 q 169 62 176 55 q 137 89 153 79 q 109 111 121 99 q 90 140 97 122 q 82 190 82 157 q 87 217 82 205 q 92 244 92 230 q 89 258 92 252 q 82 271 86 264 q 75 284 78 277 q 72 302 72 291 q 75 329 72 315 q 81 355 77 342 q 87 381 84 368 q 93 408 91 395 q 120 481 98 447 q 177 538 142 516 q 181 546 181 541 q 176 562 181 553 q 164 582 171 571 q 150 606 157 593 q 140 632 143 618 l 121 652 q 117 672 117 662 q 116 694 116 683 l 116 713 q 113 746 116 730 q 109 779 109 762 q 117 814 109 802 q 134 836 125 827 q 151 853 143 844 q 159 877 159 862 q 165 891 159 886 q 178 901 171 897 q 192 910 186 905 q 198 923 198 915 q 200 931 198 929 q 208 937 203 934 q 231 948 216 939 q 264 965 247 956 q 295 980 281 973 q 314 987 309 987 q 327 985 321 987 q 340 982 333 983 l 346 985 q 359 992 348 989 q 383 997 370 995 q 409 999 396 998 q 427 1000 421 1000 q 463 995 445 1000 q 498 984 480 990 q 533 974 515 979 q 570 969 551 969 q 577 969 573 969 q 585 970 581 970 q 600 951 587 963 q 626 927 612 939 q 651 908 640 916 q 662 899 662 899 q 661 895 662 897 q 659 890 659 892 l 662 884 l 682 884 q 686 874 685 879 q 691 864 688 869 q 710 834 704 846 q 719 810 717 823 q 721 779 722 797 q 721 728 721 760 q 716 673 721 700 q 692 621 712 646 q 680 599 686 613 q 670 569 674 585 q 663 538 665 553 q 660 513 660 524 q 665 493 660 500 q 678 479 670 486 q 696 467 686 473 q 715 451 706 461 q 732 425 725 441 q 744 384 740 409 q 748 362 745 378 q 755 330 751 347 q 761 301 758 314 q 764 288 764 288 m 642 745 q 628 794 642 773 q 591 833 613 816 q 545 862 570 850 q 498 884 519 874 q 484 891 491 886 q 470 901 477 897 q 455 909 463 906 q 441 913 448 913 q 419 909 430 913 q 397 906 408 906 q 372 912 384 906 q 364 894 370 899 q 351 888 359 889 q 335 887 344 887 q 318 884 327 888 q 272 860 292 872 q 237 831 252 848 q 216 793 223 815 q 208 741 208 772 q 215 704 208 723 q 231 667 221 685 q 254 633 241 649 q 280 605 267 617 q 302 592 288 597 q 332 585 316 587 q 362 583 347 583 q 389 582 378 582 q 450 586 427 582 q 490 595 473 590 q 525 607 507 601 q 572 619 543 614 q 602 637 589 622 q 624 671 615 652 q 637 711 633 690 q 642 745 642 731 m 643 334 q 640 356 643 345 q 631 378 636 368 q 620 399 626 389 q 610 419 614 409 q 596 439 604 431 q 578 451 588 446 q 558 461 569 456 q 538 473 548 466 q 475 497 509 492 q 408 503 440 503 q 324 490 364 503 q 252 452 283 477 q 202 392 221 427 q 184 313 184 357 q 193 267 184 289 q 217 226 203 245 q 232 214 223 226 q 252 186 241 201 q 275 158 262 172 q 300 141 287 144 q 367 126 333 133 q 435 119 400 119 q 476 119 456 119 q 517 120 496 120 q 530 135 526 125 q 543 153 534 145 q 560 165 551 161 q 577 174 569 170 q 591 185 585 178 q 602 205 597 192 q 608 215 604 212 q 616 221 612 218 q 623 227 620 223 q 625 241 625 231 q 628 265 625 254 q 634 288 631 277 q 640 311 637 299 q 643 334 643 322 m 407 52 q 402 64 407 59 q 391 71 397 68 q 385 63 386 69 q 383 51 383 57 q 380 39 382 44 q 372 34 378 34 q 354 38 362 34 q 336 43 345 43 l 333 43 l 333 37 q 338 20 333 26 q 355 14 344 14 q 371 17 361 14 q 388 25 380 20 q 401 37 396 31 q 407 52 407 44 z "},"9":{"ha":812,"x_min":67,"x_max":747,"o":"m 747 536 q 747 484 747 510 q 742 432 746 458 q 729 383 738 407 q 704 338 720 359 q 691 312 695 326 q 686 284 687 298 q 670 287 677 284 q 656 294 663 290 q 643 301 650 298 q 628 304 636 304 q 617 294 617 304 q 619 286 617 291 q 624 275 621 280 q 631 267 627 271 q 640 264 635 264 q 647 275 646 266 q 653 269 650 273 q 656 262 656 266 q 649 251 656 256 q 633 240 642 245 q 617 230 625 235 q 610 219 610 225 q 616 212 610 214 q 631 208 623 210 q 646 203 639 205 q 652 195 652 201 q 644 185 652 189 q 631 179 635 181 q 610 162 621 174 q 590 138 600 151 q 574 116 581 125 q 562 106 566 106 q 550 108 556 106 q 538 109 544 109 q 521 106 530 109 q 512 94 512 104 q 518 80 512 86 q 531 71 524 74 q 515 64 525 64 q 506 65 511 64 q 498 66 502 66 q 484 62 490 66 q 473 53 478 58 q 464 42 469 48 q 454 33 460 37 q 444 29 453 32 q 422 22 435 26 q 394 14 409 18 q 366 6 379 9 q 343 0 353 2 q 332 -3 334 -3 q 272 8 302 -3 q 215 31 241 20 q 183 50 196 39 q 161 73 171 60 q 144 99 152 85 q 125 130 136 113 l 106 139 l 106 159 q 97 173 100 168 q 90 182 93 178 q 85 194 87 187 q 84 212 84 200 q 86 232 84 220 q 92 255 88 243 q 102 275 96 266 q 116 290 108 285 q 151 311 132 300 q 191 322 171 322 q 213 316 203 322 q 233 302 223 310 q 254 286 243 294 q 280 275 264 278 l 280 268 l 280 264 q 275 239 280 250 q 269 214 269 229 q 270 207 269 210 q 251 210 260 208 q 231 211 241 211 q 212 210 222 211 q 193 207 202 208 q 210 194 196 199 q 241 187 223 190 q 280 181 260 184 q 318 173 300 178 q 347 157 335 167 q 358 130 358 147 q 357 120 358 123 q 388 140 367 128 q 434 164 410 153 q 480 183 458 175 q 515 191 503 191 q 527 188 523 191 q 531 178 531 185 q 543 185 539 178 q 550 202 547 192 q 555 225 553 212 q 563 249 558 237 q 576 271 568 261 q 599 284 585 280 q 595 302 595 293 q 600 328 595 315 q 611 356 605 342 q 622 384 617 370 q 627 414 627 399 q 608 458 627 439 q 584 448 602 454 q 543 434 566 441 q 494 419 519 427 q 445 405 468 411 q 404 395 422 399 q 378 391 385 391 q 357 393 367 391 q 337 398 347 395 q 316 403 327 401 q 292 406 304 406 q 273 409 278 406 q 264 417 268 413 q 254 425 260 421 q 231 429 248 429 q 212 439 224 429 q 187 463 200 449 q 163 489 174 476 q 145 508 152 503 q 138 512 142 510 q 130 517 134 515 q 121 521 125 519 q 115 526 117 523 q 111 540 111 531 q 109 558 110 549 q 106 574 109 568 q 96 581 103 581 q 94 581 95 581 q 93 581 94 581 q 88 583 90 581 q 87 597 87 586 q 84 619 87 607 q 77 643 81 631 q 70 667 73 655 q 67 690 67 680 q 72 722 67 707 q 76 754 76 736 q 80 772 76 760 q 91 799 84 785 q 105 829 97 814 q 121 858 113 845 q 137 881 130 871 q 151 891 145 890 q 157 892 153 892 q 165 895 161 893 q 173 899 170 897 q 176 903 176 901 q 176 908 176 906 q 176 913 176 910 q 179 928 176 924 q 189 933 183 932 q 200 936 194 935 q 211 943 206 937 q 225 958 219 952 q 238 966 232 963 q 250 970 243 969 q 264 970 256 970 l 290 970 q 304 983 294 979 q 328 990 315 988 q 353 992 340 992 q 373 993 365 993 q 410 989 389 993 q 451 981 430 985 q 491 972 471 976 q 525 968 510 968 q 541 970 533 968 q 543 948 541 954 q 549 938 545 941 q 562 933 554 935 q 581 923 570 930 q 611 896 597 911 q 637 864 625 880 q 634 852 636 861 q 626 833 631 843 q 614 816 621 823 q 597 808 607 808 q 569 818 582 808 q 547 838 556 828 q 525 856 538 848 q 498 870 512 863 q 469 882 484 876 q 444 893 455 888 q 421 911 435 905 q 392 917 408 917 q 340 908 366 917 q 290 893 315 899 q 270 864 275 880 q 260 865 264 865 q 244 863 254 865 q 225 855 235 860 q 210 843 216 850 q 203 830 203 837 l 203 827 l 203 824 q 196 805 203 812 q 183 787 189 797 q 176 758 175 774 q 174 729 177 743 q 165 710 172 720 q 158 692 158 701 q 160 672 158 682 q 163 650 163 662 q 168 628 163 644 q 179 596 172 612 q 194 566 186 579 q 208 553 202 553 q 214 557 212 553 q 217 564 216 560 q 219 571 218 568 q 222 574 220 574 q 235 568 225 574 q 257 552 244 562 q 284 531 269 543 q 315 511 300 520 q 344 495 330 501 q 369 488 358 488 q 413 491 390 488 q 456 500 435 494 q 468 505 463 502 q 475 512 472 509 q 483 520 479 516 q 492 526 486 524 q 508 529 500 528 q 524 529 516 529 q 539 532 532 530 q 553 541 547 534 q 564 555 558 545 q 576 578 570 566 q 585 601 581 590 q 589 619 589 612 q 592 641 589 631 q 599 663 595 652 q 605 684 602 673 q 608 706 608 694 q 604 742 608 724 q 600 777 600 759 q 606 787 600 783 q 620 794 612 791 q 636 799 628 798 q 649 800 644 800 q 666 795 659 800 q 677 784 672 790 q 689 772 683 777 q 704 766 695 766 q 712 764 708 765 q 717 757 717 762 q 708 737 717 745 q 688 723 699 729 q 668 711 677 717 q 659 696 659 705 q 664 691 659 692 q 672 690 669 690 q 694 693 684 690 q 717 696 705 696 q 727 693 724 696 q 733 685 731 690 q 734 674 734 680 q 734 663 734 668 q 741 600 734 631 q 747 536 747 568 z "}," ":{"ha":407,"x_min":0,"x_max":0,"o":""},"A":{"ha":764,"x_min":-1,"x_max":764,"o":"m 764 48 q 760 34 764 41 q 749 21 755 26 q 736 11 743 15 q 722 7 728 7 q 712 8 717 7 q 703 9 707 9 q 694 5 696 9 q 691 -3 692 1 q 686 -11 689 -7 q 673 -14 682 -14 q 662 -13 668 -14 q 650 -12 656 -12 q 625 -17 637 -12 q 600 -22 613 -22 q 565 -18 588 -22 q 518 -6 542 -14 q 477 13 495 1 q 460 39 460 24 q 473 62 460 50 q 503 89 486 74 q 532 121 519 103 q 545 164 545 140 q 539 192 545 178 q 525 217 534 205 q 505 239 516 229 q 484 258 494 250 q 473 260 480 260 q 437 256 455 260 q 400 252 418 252 q 381 255 391 252 q 368 269 371 258 q 332 252 350 260 q 296 238 315 244 q 280 232 285 234 q 272 227 275 230 q 269 219 270 224 q 264 203 268 214 q 261 191 261 197 q 261 179 261 186 q 258 165 261 170 q 251 156 254 160 q 243 146 247 151 q 240 134 240 142 q 242 123 240 128 l 241 120 q 247 104 241 110 q 260 95 252 98 q 277 90 268 92 q 292 83 286 87 q 306 70 299 79 q 317 50 312 60 q 326 29 322 39 q 329 11 329 18 l 329 7 l 320 7 q 266 5 293 7 q 213 0 239 3 q 160 -6 186 -3 q 106 -8 133 -8 q 78 -7 96 -8 q 43 -4 60 -7 q 12 6 25 -1 q -1 27 -1 14 q 5 51 -1 41 q 22 67 12 60 q 46 78 33 73 q 72 86 59 82 q 97 94 85 90 q 117 105 109 98 q 131 127 125 112 q 140 160 136 142 q 146 195 143 178 q 151 222 149 212 q 152 231 151 226 q 152 241 152 236 q 153 252 153 247 q 155 258 153 256 q 165 272 161 270 q 171 275 169 274 q 173 282 172 277 q 173 307 173 288 q 176 319 173 315 q 183 327 180 323 q 191 333 187 330 q 194 342 194 336 q 189 359 194 351 q 183 376 183 367 q 186 386 183 382 q 192 393 189 390 q 199 400 196 397 q 201 410 201 404 q 198 425 201 417 q 195 439 195 432 q 199 447 195 445 q 207 451 203 450 q 215 453 212 452 q 219 456 219 454 q 212 460 217 460 q 203 452 203 460 q 195 459 199 455 q 192 469 192 464 q 195 482 192 476 q 203 495 199 488 q 211 512 208 503 q 214 535 214 522 q 210 563 214 549 q 206 589 206 576 q 209 603 206 596 q 217 616 212 610 q 225 629 221 623 q 232 643 230 635 q 236 670 236 656 q 237 699 237 684 q 239 727 237 713 q 248 753 241 741 q 257 770 254 764 q 263 784 260 777 q 268 798 266 790 q 272 819 270 806 q 282 857 275 838 q 292 895 290 875 q 294 920 294 909 q 297 939 294 930 q 308 953 300 947 q 332 965 316 959 q 368 974 350 971 q 403 976 385 976 q 445 974 423 976 q 454 953 447 962 q 468 935 460 944 q 483 917 476 926 q 493 897 490 908 q 497 867 496 881 q 509 840 498 853 q 513 822 513 832 q 509 792 513 806 q 505 763 505 778 q 511 734 505 754 q 524 690 516 713 q 538 645 531 667 q 548 610 545 623 q 554 557 554 585 q 563 505 555 530 q 577 451 571 477 q 585 395 583 424 q 592 344 587 369 q 604 295 597 319 q 615 245 610 270 q 620 193 620 220 q 618 172 620 182 q 609 153 616 161 q 641 116 623 136 q 677 85 659 96 q 698 79 684 81 q 727 74 712 77 q 752 65 741 71 q 764 48 764 59 l 764 48 m 479 414 q 475 430 479 420 q 464 452 470 439 q 454 478 458 464 q 449 508 449 492 q 444 544 449 526 q 436 581 438 562 q 433 613 435 595 q 426 647 431 631 q 409 674 420 663 q 377 684 398 684 q 372 676 376 679 q 365 672 369 674 q 355 669 360 671 q 348 665 351 668 q 349 659 349 663 q 343 636 349 646 q 334 614 338 625 q 328 590 330 603 q 326 566 326 578 q 327 545 326 555 q 328 524 328 534 q 325 497 328 509 q 319 477 322 486 q 313 459 315 467 q 310 441 310 450 q 311 406 310 420 q 317 381 313 391 q 331 366 322 371 q 355 361 340 361 q 387 363 366 361 q 428 373 408 366 q 464 389 449 379 q 479 414 479 399 z "},"B":{"ha":839,"x_min":41,"x_max":772,"o":"m 772 281 q 772 268 772 276 q 772 253 772 260 q 771 238 772 245 q 767 229 770 232 q 754 221 761 223 q 740 219 747 220 q 726 218 733 219 q 712 213 719 217 q 719 204 713 206 q 729 202 724 203 q 740 198 735 201 q 744 186 744 195 q 740 162 744 172 q 729 146 735 153 q 717 132 723 139 q 707 113 711 124 q 697 95 703 100 q 684 86 691 90 q 669 80 677 83 q 655 68 662 77 q 643 60 648 60 q 638 60 641 60 q 631 61 635 61 q 625 59 628 61 q 622 53 622 56 q 623 52 622 52 q 624 51 625 52 q 595 34 616 43 q 547 15 574 24 q 490 1 519 7 q 434 -5 460 -5 q 343 -2 388 -5 q 251 0 298 0 l 161 0 q 155 -4 159 0 q 146 -8 151 -8 q 127 -6 139 -8 q 104 1 115 -4 q 84 13 92 5 q 75 29 75 20 q 76 35 75 33 q 77 41 77 37 q 94 70 83 60 q 118 86 105 79 q 143 101 130 94 q 167 122 157 109 q 184 159 178 136 q 191 220 191 182 q 187 290 191 256 q 182 360 182 325 q 185 489 183 425 q 189 618 188 553 l 189 724 q 188 764 189 741 q 181 807 187 786 q 163 842 176 827 q 127 859 151 857 q 101 865 116 859 q 73 879 86 870 q 50 900 60 888 q 41 925 41 911 q 47 944 41 937 q 64 957 54 952 q 84 965 73 962 q 105 967 96 967 q 148 963 127 967 q 191 958 169 958 q 247 961 219 958 q 303 967 275 964 q 359 974 331 971 q 416 977 387 977 q 463 975 439 977 q 511 972 487 973 q 525 963 515 966 q 547 957 535 960 q 570 952 559 954 q 588 949 582 951 q 616 942 604 946 q 636 932 628 939 q 651 916 645 926 q 663 889 658 905 q 670 883 664 887 q 683 875 675 879 q 697 867 690 871 q 707 860 704 863 q 725 833 715 851 q 741 795 734 815 q 753 755 749 774 q 758 723 758 735 q 751 673 758 698 q 736 624 744 648 q 723 597 732 610 q 705 571 713 584 q 689 544 696 557 q 683 515 683 530 q 692 473 683 494 q 712 435 701 452 q 723 419 717 427 q 736 405 730 412 q 748 390 743 397 q 758 372 753 382 q 769 327 766 351 q 772 281 772 304 m 644 695 q 642 713 644 703 q 637 733 640 723 q 631 754 634 744 q 627 773 629 765 q 621 790 625 783 q 612 801 617 796 q 600 809 606 805 q 586 820 593 814 q 553 844 569 835 q 521 857 538 852 q 485 864 504 862 q 443 865 466 865 q 412 865 428 865 q 383 861 396 864 q 380 857 380 859 q 377 853 379 855 q 368 849 374 851 q 349 848 362 848 q 317 842 330 848 q 297 827 304 837 q 288 803 290 817 q 284 772 285 789 q 283 726 283 749 q 281 679 283 702 q 274 633 279 655 q 258 589 269 610 q 335 574 296 580 q 412 569 374 569 q 466 571 439 569 q 518 578 492 573 q 544 585 528 580 q 575 599 559 591 q 602 617 590 607 q 615 638 614 627 q 621 653 616 646 q 630 666 625 660 q 640 680 635 673 q 644 695 644 686 m 666 242 q 662 277 666 260 q 654 313 657 295 q 651 338 652 329 q 645 355 649 348 q 635 369 642 362 q 615 387 628 376 q 608 404 612 401 q 600 407 604 407 q 593 407 597 407 q 586 406 589 406 l 576 425 q 554 439 564 434 q 528 445 544 444 q 502 450 515 446 q 474 454 488 454 q 465 450 468 454 q 459 445 461 445 q 450 447 455 445 q 438 450 444 448 q 426 453 432 452 q 414 455 419 455 q 354 449 383 455 q 296 435 326 442 q 286 404 291 420 q 277 369 281 387 q 270 334 273 351 q 267 302 267 317 q 269 290 267 294 q 272 282 270 286 q 275 275 274 279 q 277 267 277 272 q 271 214 277 240 q 265 161 265 188 q 270 127 265 143 q 286 97 275 111 q 312 92 300 97 q 338 87 324 87 q 356 92 347 87 q 371 96 366 96 q 379 92 376 96 q 390 87 382 87 l 393 87 q 400 93 395 90 q 413 96 406 95 q 428 97 420 97 q 444 98 436 98 q 466 97 458 98 q 484 96 473 96 q 538 111 512 102 q 582 130 559 119 q 618 157 605 142 q 633 174 625 164 q 649 196 642 184 q 661 219 656 207 q 666 242 666 231 z "},"C":{"ha":804,"x_min":64,"x_max":736,"o":"m 736 362 q 735 335 736 349 q 731 307 734 321 q 724 286 728 296 q 718 264 720 276 q 715 250 717 258 q 705 242 714 242 l 700 243 q 684 234 689 243 q 675 214 678 226 q 670 190 672 202 q 667 170 669 178 q 664 157 665 163 q 664 147 664 151 q 661 138 663 142 q 651 127 658 133 q 630 112 640 119 q 612 94 620 104 q 604 81 606 87 q 600 71 602 76 q 593 63 597 66 q 578 56 589 59 q 549 43 563 50 q 519 31 534 37 q 486 16 502 24 q 454 0 471 7 q 421 -13 438 -7 q 384 -18 404 -18 q 349 -12 366 -18 q 317 3 332 -7 q 295 13 302 4 q 283 34 288 22 q 275 47 279 43 q 267 53 271 52 q 257 56 262 55 q 244 62 252 58 q 189 112 214 82 q 142 171 163 141 q 135 187 137 178 q 130 205 132 196 q 126 223 128 214 q 119 236 123 231 q 103 245 110 245 q 92 249 96 246 q 85 260 87 251 q 83 294 83 269 q 80 327 83 310 q 74 362 77 344 q 67 398 70 380 q 64 435 64 417 q 67 475 64 455 q 73 514 69 494 q 79 553 76 534 q 84 592 83 572 q 86 629 85 610 q 87 667 86 648 q 91 705 88 686 q 100 741 94 723 q 118 777 107 760 q 138 810 128 793 q 157 845 149 827 q 171 883 166 863 q 188 907 174 896 q 223 928 202 918 q 269 946 244 938 q 318 959 294 954 q 363 968 342 965 q 397 971 384 971 q 460 963 431 971 q 521 941 490 954 q 550 931 534 935 q 581 927 566 927 q 602 932 595 927 q 613 944 609 937 q 620 958 617 951 q 628 968 623 964 l 626 967 q 631 969 627 968 q 638 969 634 969 q 651 966 644 968 q 667 962 659 964 q 683 956 675 959 q 693 950 690 953 q 700 941 695 949 q 710 925 705 934 q 719 909 715 916 q 722 899 722 901 q 727 867 722 882 q 732 836 732 852 q 727 801 732 818 q 722 766 722 784 q 723 724 722 745 q 724 682 724 703 q 723 643 724 662 q 717 604 721 623 q 714 591 715 599 q 710 577 713 584 q 704 566 708 570 q 694 561 701 561 q 684 563 688 561 q 677 562 680 562 q 671 562 675 562 q 664 564 665 562 q 663 569 663 566 q 662 575 663 572 q 654 583 661 579 q 644 586 650 585 q 630 588 637 587 q 619 592 624 589 q 614 602 614 595 q 617 609 614 609 q 625 607 621 610 q 635 602 629 604 q 645 602 640 600 q 628 624 635 612 q 614 648 621 636 q 600 673 607 661 q 583 695 592 685 q 569 715 574 704 q 558 739 564 727 q 548 761 553 751 q 533 779 542 772 q 464 820 502 802 q 386 838 427 838 q 333 830 357 838 q 286 807 309 821 q 268 798 276 802 q 251 788 259 793 q 238 776 243 783 q 229 757 232 769 q 226 732 226 745 q 220 708 227 719 q 209 699 216 703 q 200 689 202 696 q 194 656 195 673 q 192 622 193 640 q 191 586 192 604 q 186 552 191 568 q 180 525 182 538 q 178 498 178 511 q 180 447 178 472 q 182 397 182 422 q 185 338 182 367 q 196 279 188 309 q 213 238 202 258 q 229 196 224 218 q 239 172 232 184 q 256 148 246 159 q 278 130 266 137 q 303 123 290 123 q 321 125 313 123 q 340 127 330 127 q 360 126 350 127 q 380 124 370 124 q 419 129 399 124 q 452 148 439 134 q 474 162 462 158 q 499 169 486 166 q 523 176 511 172 q 543 192 534 180 q 554 215 549 199 q 566 248 560 231 q 579 278 572 264 q 592 296 585 292 q 600 313 598 299 q 602 346 602 327 l 602 377 q 602 404 602 391 q 605 427 603 416 q 612 443 608 437 q 625 449 617 449 q 637 444 633 449 q 648 439 642 439 q 662 443 655 439 q 675 448 668 448 q 694 439 686 448 q 710 419 703 430 q 721 399 717 408 q 728 389 726 390 q 735 378 734 388 q 736 362 736 368 z "},"D":{"ha":865,"x_min":50,"x_max":804,"o":"m 804 436 q 800 389 804 416 q 788 333 795 362 q 772 272 781 303 q 753 212 763 241 q 732 158 743 183 q 712 117 722 134 q 700 103 708 110 q 682 88 691 96 q 667 73 673 80 q 660 58 660 65 q 643 55 654 58 q 619 49 631 53 q 596 41 606 45 q 583 33 585 37 q 574 14 576 18 q 570 8 572 9 q 563 7 568 7 q 541 4 557 7 q 525 0 534 3 q 506 -5 516 -3 q 488 -10 496 -8 q 473 -12 479 -12 q 445 -7 458 -12 q 416 -2 431 -2 q 399 -5 406 -2 q 351 -18 374 -14 q 301 -22 328 -22 l 205 -9 q 184 -13 195 -12 q 162 -14 173 -14 q 135 -13 149 -14 q 109 -9 122 -12 q 102 10 106 1 q 94 28 98 19 q 86 48 90 38 q 83 68 83 58 q 92 93 83 85 q 114 104 100 101 q 143 109 127 107 q 172 117 158 111 q 194 136 185 123 q 203 174 203 149 q 200 205 203 190 q 195 237 198 221 q 190 269 192 253 q 187 300 187 284 q 189 322 187 311 q 191 345 191 334 q 188 387 191 366 q 185 429 185 408 q 188 477 185 453 q 191 526 191 501 q 186 571 191 549 q 182 616 182 593 q 182 642 182 629 q 183 668 183 655 q 182 697 183 683 q 176 725 180 711 q 171 758 172 742 q 167 788 170 774 q 154 811 163 801 q 122 825 144 821 q 111 830 115 827 q 104 836 107 833 q 95 842 100 839 q 80 846 90 844 q 50 879 50 850 q 56 908 50 895 q 72 930 62 920 q 93 949 81 941 q 117 966 105 958 q 150 983 134 980 q 183 986 165 986 l 212 986 q 251 988 232 986 q 290 989 271 989 q 314 988 302 989 q 337 983 326 987 q 349 979 343 981 q 361 977 355 977 q 377 982 370 977 q 389 988 384 988 q 391 987 391 988 q 390 984 391 985 q 390 981 390 982 q 395 977 390 977 q 400 981 399 977 q 408 986 402 985 q 416 982 413 984 q 421 977 418 979 q 427 974 423 975 q 437 972 431 972 q 465 975 451 972 q 494 977 479 977 q 528 971 512 977 q 557 956 543 965 q 584 935 571 947 q 610 913 597 924 q 629 900 619 905 q 648 891 639 896 q 665 881 656 887 q 679 861 673 874 q 695 834 686 847 q 713 808 704 821 q 731 782 722 795 q 747 754 740 769 q 771 673 764 715 q 785 589 778 631 q 793 554 789 572 q 797 518 797 536 q 793 500 797 509 q 790 481 790 491 q 792 471 790 475 q 797 461 794 466 q 802 450 800 456 q 804 436 804 444 m 690 481 q 683 533 690 508 q 660 580 675 558 q 669 597 667 587 q 671 617 671 608 q 670 637 671 627 q 669 657 669 648 q 666 667 669 663 q 657 674 662 671 q 648 682 653 678 q 642 691 644 686 q 638 703 639 698 q 636 713 637 708 q 633 723 635 718 q 627 736 631 728 q 621 746 623 741 q 619 759 619 751 q 621 773 619 766 q 612 782 618 779 q 599 788 606 786 q 581 792 591 791 q 559 798 570 792 q 536 812 548 804 q 511 825 524 819 q 486 831 498 831 q 447 828 466 831 q 408 822 428 825 q 376 820 393 820 q 343 816 358 819 q 317 803 328 812 q 307 774 307 794 q 310 726 307 751 q 313 676 313 702 q 309 569 313 623 q 304 462 304 516 q 307 412 304 437 q 310 361 310 387 q 305 296 310 328 q 300 230 300 263 q 300 201 300 216 q 302 171 300 185 q 313 145 305 157 q 335 128 320 134 q 377 114 356 121 q 420 106 397 106 q 447 113 434 106 q 473 123 460 119 q 493 129 482 126 q 515 134 505 131 q 536 142 526 137 q 553 155 546 147 q 572 175 563 166 q 599 187 582 184 q 609 193 607 189 q 613 203 612 197 q 616 215 614 209 q 625 227 618 222 q 641 245 635 235 q 650 269 647 256 q 654 293 652 281 q 659 318 656 306 q 676 373 667 345 q 686 429 686 401 q 683 443 686 437 q 680 456 680 448 q 681 461 680 460 q 685 464 683 462 q 689 469 687 465 q 690 481 690 472 z "},"E":{"ha":887,"x_min":53,"x_max":815,"o":"m 815 677 q 812 666 815 674 q 804 648 808 658 q 795 631 800 639 q 787 620 790 623 l 789 619 q 786 618 787 619 l 783 618 q 777 618 780 618 q 770 618 774 618 l 773 618 q 745 624 758 619 q 724 644 732 629 q 720 653 723 646 q 715 669 718 661 q 710 684 712 677 q 709 694 709 691 q 710 706 709 700 q 711 718 711 712 q 707 759 711 739 q 703 800 703 779 q 706 827 703 814 q 718 850 709 840 l 715 850 q 702 856 707 850 q 686 861 697 861 q 636 854 661 861 q 585 848 612 848 q 563 849 574 848 q 541 849 552 849 q 499 844 519 849 q 460 840 479 840 q 458 840 458 840 q 463 844 458 842 q 467 848 467 846 q 463 850 467 850 q 457 850 458 850 q 448 845 452 850 q 437 838 444 840 q 415 835 427 835 q 393 835 404 835 q 373 836 386 835 q 347 839 360 836 q 324 846 334 841 q 312 861 313 851 q 302 853 304 859 q 298 843 300 848 q 293 833 296 838 q 279 828 290 829 q 255 816 260 827 q 250 791 250 805 q 250 777 250 784 q 251 762 251 769 q 250 708 251 734 q 249 654 249 681 q 249 623 249 642 q 252 585 250 604 q 259 552 254 566 q 273 535 264 537 q 284 533 278 534 q 296 533 290 533 q 343 538 320 533 q 389 544 366 544 q 407 541 399 544 q 425 538 416 538 q 445 551 437 538 q 455 580 452 564 q 458 614 458 597 q 459 639 459 631 q 458 672 459 656 q 457 706 457 689 l 461 706 q 493 701 478 706 q 524 695 508 695 q 534 696 531 695 q 539 669 534 682 q 544 641 544 655 q 525 618 544 623 q 534 600 530 609 q 537 580 537 590 q 536 565 537 572 q 534 551 534 558 q 539 540 534 544 q 543 532 543 536 q 537 511 543 524 q 530 486 530 499 q 533 455 530 471 q 539 421 536 439 q 545 386 543 404 q 548 349 548 368 q 547 327 548 338 q 542 305 546 315 q 532 286 538 294 q 515 271 526 277 q 494 278 503 272 q 479 294 485 285 q 470 314 473 303 q 466 337 467 326 q 463 370 463 355 q 457 395 463 385 q 432 412 450 406 q 376 418 414 418 q 346 416 366 418 q 306 409 326 414 q 272 394 286 404 q 257 370 257 385 q 259 354 257 362 q 260 338 260 347 q 260 325 260 332 q 259 311 259 318 q 261 274 259 292 q 263 238 263 256 q 258 199 263 218 q 253 161 253 180 q 263 126 253 139 q 290 107 274 114 q 326 99 307 101 q 361 97 345 97 q 426 101 393 97 q 491 105 458 105 q 532 103 511 105 q 572 101 552 101 q 607 102 588 101 q 643 109 626 103 q 673 124 661 114 q 689 155 686 135 q 693 162 690 160 q 700 166 696 165 q 706 170 703 168 q 709 177 709 172 q 705 190 709 182 q 699 203 701 197 q 696 229 696 216 q 696 255 696 242 q 702 291 696 275 q 709 324 709 306 q 708 334 709 330 q 708 345 708 339 q 714 353 708 349 q 728 360 720 357 q 745 365 736 363 q 757 367 753 367 q 785 355 774 367 q 801 326 795 343 q 809 291 807 309 q 811 260 811 273 q 808 212 811 239 q 799 158 804 186 q 785 104 793 130 q 770 58 778 78 q 763 44 766 49 q 754 36 759 39 q 745 30 750 33 q 734 20 740 27 q 713 12 728 14 q 681 10 698 10 q 656 11 668 10 q 639 12 645 12 q 603 6 616 12 q 576 1 589 1 q 565 4 568 1 q 557 8 562 8 q 548 4 552 8 q 536 0 544 0 q 519 0 528 0 q 502 1 511 1 q 401 -2 451 1 q 300 -7 351 -5 q 231 -15 265 -8 q 163 -22 197 -22 q 135 -19 151 -22 q 105 -11 119 -17 q 82 6 92 -5 q 73 32 73 16 q 83 60 73 47 q 110 85 94 74 q 141 107 125 97 q 168 125 157 117 q 167 136 167 131 q 167 145 167 140 q 167 165 167 155 q 171 186 168 176 q 178 200 172 192 q 184 215 184 209 q 182 224 184 220 q 179 233 180 228 q 169 265 172 251 q 165 300 165 279 q 166 321 165 312 q 167 339 166 330 q 171 356 168 347 q 177 377 173 366 q 171 391 174 382 q 168 406 168 401 l 177 503 q 176 509 176 505 q 178 522 176 515 q 180 534 180 528 q 175 565 180 550 q 170 596 170 581 q 172 609 170 602 q 178 625 175 616 q 184 645 181 634 q 186 667 186 655 q 182 684 186 677 q 178 699 178 690 q 182 715 178 707 q 186 733 186 724 q 181 759 186 747 q 170 783 176 772 q 158 811 162 800 q 147 828 153 821 q 131 837 141 834 q 100 842 120 840 q 82 847 91 842 q 67 861 74 852 q 57 878 61 869 q 53 897 53 888 q 64 917 53 909 q 92 931 75 926 q 130 939 109 936 q 171 944 151 942 q 207 946 191 945 q 233 948 224 947 q 259 951 246 950 q 286 951 272 951 q 339 950 312 951 q 392 948 366 948 q 448 954 420 948 q 504 959 475 959 q 555 953 530 959 q 604 947 580 947 q 651 953 628 947 q 698 959 674 959 q 718 957 708 959 q 746 930 733 941 q 767 908 758 919 q 782 882 777 897 q 790 842 788 867 q 791 821 791 833 q 791 797 791 808 q 795 775 792 785 q 805 764 798 766 q 795 754 805 754 q 800 735 796 745 q 806 715 803 725 q 812 695 810 705 q 815 677 815 686 m 228 510 q 220 509 224 510 q 216 503 217 507 q 257 474 241 488 q 280 453 272 461 q 293 444 289 445 q 301 452 297 443 q 299 475 307 465 q 280 494 292 486 q 253 506 267 501 q 228 510 238 510 z "},"F":{"ha":841,"x_min":41,"x_max":826,"o":"m 826 703 q 809 658 826 674 q 764 642 793 642 q 746 643 755 642 q 728 648 737 645 q 712 685 717 663 q 703 731 707 707 q 694 777 699 754 q 680 818 690 800 q 653 847 670 836 q 606 858 635 858 q 570 854 588 858 q 533 850 552 850 q 511 851 524 850 q 485 853 498 851 q 459 857 471 854 q 439 865 447 860 q 432 867 437 867 q 423 868 428 868 q 413 869 418 869 q 406 869 408 869 q 373 867 385 869 q 352 861 361 865 q 333 853 343 858 q 306 844 323 849 q 287 836 293 841 q 279 825 281 831 q 278 810 277 819 q 277 789 278 801 q 276 773 277 781 q 276 758 276 766 q 277 709 276 733 q 279 659 279 684 q 276 629 279 644 q 273 598 273 614 q 279 578 273 584 q 292 570 285 573 q 306 564 300 568 q 313 551 313 561 q 322 550 317 550 q 331 549 326 549 q 376 556 353 549 q 420 568 398 562 q 439 587 433 571 q 448 624 446 604 q 450 665 450 645 q 452 696 450 686 q 458 713 453 705 q 471 728 463 722 q 487 738 478 734 q 505 741 496 741 q 522 737 514 741 q 543 719 536 730 q 551 694 549 707 q 553 666 553 680 q 554 638 553 652 q 556 602 556 620 q 553 538 556 570 q 550 475 550 507 q 552 440 550 457 q 559 406 554 423 q 563 384 563 394 q 561 361 563 372 q 558 339 558 351 q 559 327 558 332 q 560 314 560 321 q 555 293 560 304 q 543 272 550 281 q 525 257 535 263 q 507 251 515 251 q 484 261 494 251 q 465 283 473 271 q 453 306 457 295 q 448 319 448 317 q 451 324 448 322 q 458 327 454 326 q 464 331 461 329 q 467 338 467 334 q 464 343 467 342 q 457 347 461 345 q 451 352 454 349 q 448 361 448 355 q 449 368 448 366 q 452 372 450 370 q 456 374 454 373 q 457 378 457 376 q 452 392 457 383 q 440 408 448 400 q 425 422 433 416 q 410 428 416 428 q 390 424 399 428 q 369 420 380 420 q 352 424 360 420 q 337 427 345 427 q 322 421 330 427 q 306 408 314 416 q 291 392 298 400 q 280 380 284 385 q 274 364 275 374 q 273 346 273 353 q 276 299 273 322 q 279 253 279 277 q 279 233 279 243 q 279 212 279 222 q 279 191 279 204 q 282 165 279 178 q 290 142 285 153 q 305 130 296 132 q 337 126 319 125 l 351 126 q 384 123 368 126 q 408 105 399 119 q 417 80 414 94 q 420 52 420 66 q 419 34 420 44 q 413 15 417 24 q 401 1 408 7 q 384 -5 394 -5 q 342 0 364 -5 q 298 4 320 4 q 265 0 281 4 q 212 -9 239 -7 q 157 -12 186 -12 q 127 -11 144 -12 q 93 -6 109 -10 q 66 4 77 -3 q 55 24 55 12 q 57 55 55 39 q 65 85 59 71 q 83 107 72 98 q 114 116 95 116 q 125 115 119 116 q 138 115 132 115 q 157 119 151 115 q 167 129 163 123 q 175 139 171 134 q 187 145 179 144 q 183 188 186 167 q 181 230 181 208 q 184 266 181 248 q 197 300 188 283 q 186 326 190 307 q 182 363 183 344 q 181 396 181 382 q 181 409 181 410 q 185 432 181 420 q 189 454 189 443 q 188 464 189 460 q 186 474 186 469 q 188 486 186 482 q 191 490 189 489 q 195 493 193 492 q 196 500 196 495 q 192 534 196 517 q 187 568 187 551 q 190 599 187 584 q 193 630 193 614 q 190 691 193 661 q 187 752 187 721 q 184 787 187 768 q 174 823 182 806 q 154 852 167 840 q 121 863 141 863 q 103 862 112 863 q 84 861 94 861 q 67 863 75 861 q 52 870 59 865 q 45 895 50 883 q 41 920 41 907 q 48 936 41 930 q 68 945 56 942 q 96 950 81 949 q 127 951 111 951 q 164 950 146 951 q 190 949 181 949 q 213 950 199 949 q 241 953 227 951 q 267 961 255 956 q 283 977 278 966 q 298 974 292 977 q 310 967 304 970 q 322 960 316 963 q 336 957 328 957 q 354 961 345 957 q 372 966 362 966 q 387 962 380 966 q 403 958 394 958 q 439 962 421 958 q 475 971 457 966 q 512 979 494 975 q 548 983 530 983 q 572 980 561 983 q 593 966 583 976 q 654 978 621 978 q 671 977 658 978 q 700 974 685 975 q 727 970 715 972 q 741 966 739 968 q 747 954 745 962 q 750 937 749 946 q 754 919 752 928 q 760 907 756 911 q 767 903 763 904 q 776 901 772 902 q 783 897 780 899 q 787 889 786 895 q 789 858 788 873 q 794 826 789 842 q 804 796 798 812 q 814 765 809 781 q 823 734 819 749 q 826 703 826 718 m 111 49 q 106 68 111 60 q 90 77 102 76 q 90 72 90 75 q 90 67 90 70 q 94 48 90 56 q 110 39 98 40 q 110 44 110 41 q 111 49 111 46 z "},"G":{"ha":854,"x_min":64,"x_max":814,"o":"m 814 459 q 812 447 814 455 q 808 432 811 439 q 802 419 806 425 q 792 413 798 413 q 787 414 789 413 q 783 414 785 414 q 774 410 778 414 q 766 400 770 406 q 756 390 762 394 q 741 385 750 385 q 731 387 738 385 q 735 359 734 373 q 736 332 736 346 q 734 290 736 311 q 728 248 731 269 q 722 206 724 227 q 719 164 719 185 q 723 115 719 139 q 726 65 726 90 q 724 42 726 54 q 717 20 722 31 q 703 3 712 10 q 682 -3 694 -3 q 652 8 663 -3 q 634 34 642 20 q 622 60 627 48 q 606 72 616 72 q 594 67 602 72 q 578 55 587 62 q 559 42 570 48 q 538 34 549 36 q 520 26 525 31 q 511 17 515 22 q 497 9 506 13 q 465 6 488 6 q 436 7 450 6 q 406 9 421 9 q 385 7 395 9 q 363 6 374 6 q 336 9 347 6 q 316 17 325 12 q 299 27 308 22 q 275 36 290 32 q 258 42 264 39 q 245 47 251 44 q 235 55 240 50 q 220 66 229 59 q 208 75 215 71 q 195 83 201 79 q 185 93 189 87 q 180 106 180 98 q 178 115 179 113 q 174 119 176 118 q 169 122 172 121 q 161 125 165 123 q 149 151 153 138 q 140 176 144 163 q 130 200 136 189 q 112 222 124 212 q 114 237 114 229 q 109 265 114 252 q 97 291 103 278 q 85 318 90 304 q 79 348 79 332 q 81 367 79 357 q 83 386 83 376 q 80 411 83 399 q 73 435 77 423 q 67 459 70 447 q 64 484 64 471 q 64 493 64 488 q 65 501 64 497 q 71 551 69 526 q 75 601 73 576 q 80 650 77 625 q 88 699 83 675 q 98 746 94 723 q 102 793 102 769 q 117 808 108 800 q 135 825 126 817 q 152 843 144 833 q 161 861 159 852 q 172 882 163 869 q 193 908 181 895 q 217 930 205 921 q 239 941 230 940 q 248 942 243 942 q 257 943 253 942 q 265 947 262 945 q 269 956 269 950 q 267 966 269 961 q 339 978 303 970 q 412 986 375 986 q 437 985 420 986 q 473 981 455 985 q 505 970 491 977 q 518 951 518 963 l 518 947 q 523 948 520 948 q 527 948 525 948 q 548 944 538 948 q 569 940 558 940 q 592 941 580 940 q 615 945 604 942 q 637 954 627 948 q 654 967 647 959 q 678 952 669 967 q 693 918 688 938 q 701 879 699 899 q 703 848 703 859 q 701 815 703 831 q 692 783 699 799 q 698 768 694 774 q 708 754 703 761 q 717 741 713 748 q 721 725 721 734 q 715 690 716 713 q 711 645 714 667 q 700 605 708 622 q 671 589 691 589 q 648 598 658 589 q 634 618 639 607 l 635 618 q 644 626 644 618 q 640 631 644 628 q 630 638 635 635 q 619 646 625 642 q 611 653 614 650 q 601 671 606 660 q 593 694 596 682 q 587 719 589 707 q 585 743 585 732 q 585 749 585 746 q 586 754 585 751 l 585 753 q 577 762 583 754 q 563 780 570 770 q 548 799 555 790 q 538 812 541 808 q 509 836 524 825 q 479 861 493 847 q 468 855 474 857 q 456 852 463 852 q 448 855 451 852 q 441 860 444 857 q 433 866 437 863 q 422 869 429 869 q 394 865 408 869 q 365 862 380 862 q 334 868 349 862 q 302 874 319 874 q 299 873 301 874 q 295 872 296 873 q 298 861 296 866 q 301 849 301 855 q 293 831 301 840 q 275 814 286 822 q 254 798 264 806 q 238 783 243 790 q 226 763 231 774 q 218 742 222 752 q 207 722 214 731 q 189 706 201 712 q 195 679 195 692 q 193 661 195 669 q 192 643 192 652 q 195 600 192 621 q 199 557 199 578 q 196 522 199 539 q 189 487 193 505 q 181 453 184 470 q 178 418 178 435 q 182 388 178 402 q 191 360 186 374 q 199 334 195 347 q 203 311 203 322 q 201 296 203 304 q 200 281 200 289 q 213 232 200 252 q 242 195 226 212 q 275 159 259 177 q 296 116 290 141 q 315 118 306 118 q 340 115 328 118 q 363 109 352 113 q 387 102 375 105 q 412 100 399 100 q 464 110 437 100 q 514 138 491 121 q 553 179 536 156 q 576 227 570 202 q 592 273 582 252 q 600 283 596 281 q 608 286 604 286 q 613 288 611 287 q 615 292 615 288 q 611 300 615 296 q 606 309 606 303 q 609 314 606 311 q 615 321 612 317 q 622 331 619 325 q 625 343 625 336 q 616 366 625 357 q 596 381 608 375 q 570 393 584 388 q 544 406 556 398 q 524 424 532 413 q 515 454 515 435 q 523 478 515 469 q 543 494 531 488 q 568 504 555 500 q 594 509 582 507 q 612 514 602 510 q 631 521 621 517 q 649 528 640 525 q 664 531 657 531 q 683 527 673 531 q 702 522 692 524 q 734 517 715 520 q 771 507 753 513 q 801 489 789 500 q 814 459 814 477 z "},"H":{"ha":907,"x_min":56,"x_max":863,"o":"m 863 38 q 853 21 863 28 q 828 10 844 14 q 795 4 813 6 q 759 0 777 1 q 726 -1 741 -1 q 704 -1 711 -1 q 672 -5 686 -1 q 645 -14 658 -9 q 622 -22 633 -18 q 600 -26 611 -26 q 584 -20 591 -26 q 568 -14 578 -14 q 548 -9 557 -14 q 531 3 538 -5 q 519 21 524 11 q 515 41 515 31 q 521 63 515 54 q 538 78 528 72 q 560 86 548 83 q 583 88 572 88 q 601 86 592 88 q 617 77 610 83 q 623 95 618 87 q 633 108 627 102 q 643 122 638 115 q 647 140 647 130 q 645 176 647 158 q 643 212 643 194 q 645 235 643 223 q 648 258 648 246 q 646 286 648 272 q 644 315 644 300 q 648 337 644 328 q 652 353 652 346 q 648 382 652 368 q 635 409 643 397 q 616 429 627 420 q 593 439 605 437 q 526 446 559 446 q 508 443 516 446 q 495 439 500 439 q 486 443 491 439 q 478 446 480 446 q 460 443 469 446 q 441 436 451 439 q 422 430 432 433 q 404 427 413 427 q 373 426 389 427 q 342 424 357 426 q 313 415 327 421 q 288 396 299 408 l 288 391 q 289 365 288 378 q 290 339 290 353 q 288 310 290 323 q 278 282 286 296 q 276 273 276 277 q 280 252 276 262 q 284 231 284 242 q 281 221 284 227 q 277 210 277 216 q 280 191 277 200 q 288 173 283 182 q 295 155 292 164 q 300 137 298 146 q 314 107 302 117 q 341 92 326 98 q 374 81 357 86 q 404 68 391 77 q 403 58 403 61 q 407 36 403 46 q 411 14 411 26 q 402 -4 411 3 q 382 -14 394 -11 q 357 -18 370 -17 q 336 -18 345 -18 q 331 -17 335 -18 q 322 -15 327 -16 q 314 -12 318 -13 q 308 -9 310 -10 q 231 -19 270 -17 q 153 -21 191 -21 q 126 -19 142 -21 q 94 -13 110 -18 q 67 2 78 -7 q 56 26 56 11 q 58 42 56 33 q 64 60 60 51 q 73 76 68 68 q 85 87 79 83 q 119 97 100 94 q 154 110 138 101 q 182 136 171 118 q 194 189 194 153 q 193 223 194 206 q 191 258 191 240 q 192 277 191 267 q 193 296 193 287 q 190 354 193 326 q 186 412 186 383 q 189 437 186 425 q 191 461 191 450 q 186 494 191 478 q 181 527 181 511 q 182 532 181 530 q 186 546 184 535 q 190 568 189 556 q 193 591 192 581 q 194 608 194 602 q 191 640 194 624 q 188 672 188 656 q 190 691 188 682 q 191 711 191 701 q 190 716 191 715 q 186 718 189 717 q 183 720 184 718 q 182 728 182 722 q 188 742 182 733 q 194 758 194 750 q 190 775 194 764 q 179 798 186 786 q 166 819 173 809 q 153 831 159 828 q 123 841 140 838 q 92 849 106 844 q 66 864 77 854 q 56 895 56 874 q 66 925 56 913 q 92 944 77 937 q 125 955 107 951 q 157 958 142 958 q 179 957 167 958 q 204 953 192 956 q 229 946 217 950 q 250 938 241 943 q 283 947 266 943 q 317 950 300 950 q 339 948 328 950 q 361 940 351 946 q 377 923 371 934 q 384 896 384 913 q 382 884 384 888 q 375 880 380 880 q 338 871 357 880 q 304 848 319 863 q 278 816 288 834 q 269 780 269 798 q 271 763 269 771 q 281 722 277 742 q 285 680 285 701 q 282 643 285 661 q 279 607 279 625 q 291 569 279 583 q 319 546 302 554 q 358 535 337 538 q 398 532 378 532 q 437 534 418 532 q 477 536 457 536 q 517 531 498 536 q 557 526 537 526 q 572 527 565 526 q 585 531 580 528 q 592 536 587 532 q 601 542 596 539 q 611 548 606 545 q 617 551 615 551 q 635 564 629 553 q 644 590 641 576 q 648 620 647 605 q 648 645 648 635 q 645 666 648 656 q 637 686 642 676 q 629 706 633 696 q 626 728 626 716 q 628 755 626 741 q 631 783 631 769 q 620 825 631 811 q 594 846 610 840 q 560 855 578 853 q 526 862 541 857 q 499 876 510 866 q 489 907 489 885 q 495 929 489 921 q 511 942 501 937 q 532 947 521 946 q 555 949 544 949 q 597 946 576 949 q 640 943 618 943 q 684 947 660 943 q 734 951 709 951 q 766 950 747 951 q 801 943 784 948 q 829 926 818 937 q 841 897 841 916 q 834 876 841 884 q 817 862 827 868 q 794 852 807 857 q 769 844 781 848 q 747 834 757 840 q 732 819 736 828 q 726 800 727 810 q 725 781 725 790 q 727 746 725 763 q 728 711 728 729 q 724 590 728 650 q 720 470 720 530 q 721 428 720 449 q 723 387 721 408 q 730 348 724 367 q 736 310 736 330 q 734 295 736 300 q 730 286 732 290 q 726 278 728 281 q 724 271 724 275 q 729 248 724 259 q 734 226 734 237 q 731 196 734 211 q 728 166 728 181 q 731 156 728 165 q 736 136 733 146 q 743 115 739 125 q 748 104 746 106 q 768 92 756 96 q 792 84 779 87 q 818 78 805 81 q 840 68 830 75 q 855 55 846 63 q 863 38 863 47 z "},"I":{"ha":688,"x_min":37,"x_max":651,"o":"m 651 898 q 646 884 651 890 q 634 872 641 878 q 619 862 627 867 q 607 853 612 857 q 579 844 595 844 q 558 846 568 844 q 538 849 549 849 q 530 847 533 849 q 513 841 522 842 q 496 840 505 840 q 481 845 490 840 q 471 856 472 850 l 476 861 q 466 854 469 858 q 462 847 463 851 q 460 838 461 843 q 457 829 460 833 q 447 821 454 822 q 432 814 439 819 q 420 797 425 810 q 414 755 414 785 q 416 730 414 743 q 417 706 417 718 q 413 657 417 682 q 409 608 409 633 q 405 580 409 593 q 400 551 400 566 q 418 522 400 530 q 410 512 413 520 q 406 493 408 503 q 404 472 404 482 q 404 458 404 463 q 404 451 404 456 q 404 441 404 446 q 406 432 405 436 q 408 425 406 427 q 414 412 414 420 q 411 396 414 404 q 408 380 408 388 q 413 314 408 347 q 417 248 417 281 q 413 204 417 226 q 408 161 408 182 q 415 130 408 141 q 433 112 422 118 q 460 104 445 106 q 491 102 475 102 q 542 106 517 102 q 593 111 568 111 q 632 95 618 111 q 646 55 646 79 q 640 21 646 37 q 624 -7 634 5 q 598 -26 613 -19 q 564 -33 583 -33 q 534 -29 551 -33 q 479 -21 507 -24 q 424 -19 452 -19 q 376 -20 400 -19 q 329 -21 353 -21 q 273 -20 300 -21 q 216 -20 245 -20 q 197 -16 206 -20 q 178 -13 187 -13 q 162 -15 171 -13 q 143 -20 153 -18 q 123 -25 134 -23 q 101 -28 112 -28 q 58 -17 76 -28 q 39 22 39 -5 q 41 39 39 31 q 48 56 42 45 q 61 78 54 67 q 78 96 69 88 q 93 103 86 103 q 103 100 98 103 q 115 94 109 98 q 130 87 121 90 q 151 85 139 85 q 202 90 176 85 q 251 106 229 94 q 287 137 273 118 q 301 186 301 157 q 300 207 301 197 q 297 229 298 218 q 292 300 293 264 q 292 372 292 336 q 298 417 292 395 q 304 463 304 439 q 299 489 304 477 q 294 514 294 501 q 296 526 294 520 q 298 539 298 532 q 295 568 298 554 q 292 596 292 582 q 297 644 292 620 q 302 691 302 667 q 298 720 302 705 q 291 747 295 734 q 284 775 288 761 q 281 804 281 789 q 283 822 281 812 q 271 837 279 831 q 255 847 264 842 q 238 857 246 852 q 224 870 229 861 q 218 865 219 869 q 216 856 216 861 q 213 846 215 850 q 205 841 212 842 q 167 838 186 839 q 129 836 148 836 q 102 838 118 836 q 72 844 86 839 q 47 857 57 848 q 37 882 37 866 q 41 902 37 891 q 52 922 45 912 q 66 942 58 932 q 80 958 74 951 q 94 966 85 962 q 116 970 104 969 q 141 972 127 972 q 168 973 155 973 q 200 973 185 973 q 224 972 214 972 q 266 974 241 972 q 313 977 290 975 q 352 981 336 979 q 370 986 369 983 q 379 980 374 984 q 392 971 385 975 q 404 964 398 967 q 414 960 410 960 q 420 963 418 960 q 424 970 422 966 q 427 979 426 975 q 427 986 427 983 l 432 986 q 452 977 447 986 q 457 956 457 968 q 457 951 457 954 q 456 947 456 949 q 466 954 463 949 q 471 964 469 959 q 476 974 473 970 q 487 978 479 978 q 495 977 490 978 l 500 977 q 523 958 515 964 q 536 948 532 951 q 543 944 541 945 q 545 943 544 943 q 550 943 546 943 q 553 943 553 942 q 550 948 553 945 q 544 953 547 950 q 537 959 540 956 q 534 966 534 962 q 547 969 542 966 q 555 974 551 971 q 562 980 558 977 q 572 983 566 983 q 585 980 581 983 q 593 974 590 977 q 600 968 597 971 q 607 966 602 966 q 613 966 610 966 q 618 967 615 967 q 625 963 623 967 q 627 956 626 959 q 630 940 629 945 q 633 930 631 935 q 638 922 635 926 q 647 909 642 918 q 651 898 651 904 m 311 853 q 309 865 315 859 q 296 872 303 872 q 285 864 288 872 q 283 850 283 857 q 287 843 284 846 q 292 838 289 840 q 298 836 294 836 q 306 839 303 836 q 310 844 309 841 q 311 853 311 848 z "},"J":{"ha":751,"x_min":23,"x_max":747,"o":"m 747 899 q 742 884 747 890 q 731 871 737 878 q 718 858 724 865 q 710 841 712 851 l 708 841 q 697 842 703 842 q 686 842 691 842 q 630 838 657 842 q 574 831 603 834 q 563 813 569 817 q 552 804 557 808 q 543 788 547 799 q 540 751 540 778 q 543 695 540 722 q 545 640 545 668 q 542 595 545 618 q 538 550 538 573 q 542 492 538 521 q 546 433 546 463 q 551 362 546 397 q 555 292 555 328 q 553 262 555 281 q 546 221 550 242 q 536 181 541 199 q 526 155 531 162 q 508 139 519 144 q 488 125 496 134 q 475 111 482 121 q 461 92 469 102 q 447 74 454 82 q 433 65 439 66 q 424 54 429 60 q 414 43 420 48 q 406 33 408 37 q 401 27 404 29 q 396 23 399 24 q 382 22 392 22 q 353 16 367 20 q 325 8 339 12 q 297 0 311 3 q 269 -4 283 -4 q 215 4 240 -4 q 165 26 190 13 q 150 34 156 31 q 140 38 144 36 q 130 45 135 41 q 118 58 125 50 q 87 87 104 75 q 52 113 70 100 q 37 131 42 120 q 28 155 31 142 q 24 181 25 168 q 23 205 23 195 q 24 234 23 218 q 28 264 25 249 q 35 294 31 279 q 46 319 39 308 q 61 342 54 332 q 75 358 67 352 q 94 367 83 364 q 122 370 105 370 q 164 368 146 370 q 194 357 181 365 q 216 334 207 349 q 232 294 224 319 q 237 271 235 283 q 239 248 239 259 q 235 221 239 235 q 217 203 231 208 q 205 189 212 196 q 194 174 199 182 q 185 158 189 166 q 182 140 182 149 q 194 112 182 122 q 222 96 205 101 q 256 90 239 91 q 283 89 273 89 q 310 96 298 89 q 335 107 322 102 q 359 114 347 111 q 385 121 372 117 q 408 130 397 125 q 429 145 420 136 q 447 254 445 198 q 450 365 450 310 q 447 381 449 377 q 444 386 446 385 q 440 390 441 388 q 439 400 439 392 q 442 424 439 412 q 445 448 445 435 q 441 486 445 467 q 437 524 437 505 q 443 601 437 563 q 449 677 449 638 q 445 692 449 685 q 440 707 440 699 q 444 719 440 713 q 447 730 447 724 q 443 745 447 736 q 434 766 439 755 q 424 788 429 777 q 417 808 418 799 q 412 830 415 822 q 403 841 408 838 q 389 846 397 845 q 366 848 380 847 q 326 851 346 850 q 286 851 306 851 q 270 852 275 851 q 262 857 265 854 q 256 864 259 859 q 248 876 254 869 q 234 897 241 886 q 227 921 227 907 q 233 939 227 932 q 248 950 239 946 q 267 957 256 955 q 286 958 277 958 q 318 956 302 958 q 351 954 334 954 q 375 958 366 954 q 391 965 385 961 q 404 972 397 968 q 421 975 411 975 q 456 971 439 975 q 491 967 473 967 q 510 965 500 967 q 528 959 519 962 q 546 954 537 956 q 564 951 555 951 q 594 957 580 951 q 625 963 609 963 q 648 961 637 963 q 671 957 660 959 q 696 953 685 954 q 716 948 707 951 q 733 936 726 944 q 745 913 740 928 q 747 899 747 907 m 304 919 q 301 926 304 922 q 294 929 298 929 q 286 922 288 929 q 285 909 285 914 q 297 910 290 909 q 304 919 304 911 z "},"K":{"ha":809,"x_min":39,"x_max":811,"o":"m 811 31 q 796 20 811 24 q 759 14 781 16 q 711 11 736 12 q 667 10 686 10 l 635 10 q 597 9 616 10 q 559 7 578 7 q 542 8 553 7 q 522 11 532 8 q 505 18 512 14 q 498 33 498 23 q 502 46 498 34 q 512 72 505 58 q 530 97 519 86 q 553 109 540 109 q 566 106 560 109 q 568 125 568 115 q 561 161 568 145 q 543 193 553 178 q 524 225 533 209 q 511 260 514 241 q 504 278 509 271 q 493 294 498 286 q 482 309 487 301 q 475 329 477 317 q 472 342 473 338 q 467 349 470 347 q 460 354 465 352 q 449 361 456 356 q 440 370 442 365 q 436 381 437 376 q 435 394 435 387 q 431 406 434 400 q 421 411 426 409 q 412 416 417 413 q 404 437 408 425 q 396 460 401 449 q 383 478 391 471 q 361 485 375 485 q 343 477 353 485 q 325 458 334 469 q 305 436 315 448 q 286 416 296 424 q 286 410 286 413 q 286 405 286 408 q 286 388 286 397 q 287 372 287 380 q 284 352 287 360 q 277 336 281 344 q 270 320 273 328 q 267 302 267 313 q 272 259 267 281 q 277 216 277 237 q 276 193 277 204 q 275 170 275 181 q 283 132 275 145 q 305 111 292 119 q 334 101 318 104 q 362 95 349 98 q 384 86 375 92 q 393 70 393 81 q 388 51 393 61 q 376 32 384 41 q 360 17 369 23 q 342 9 351 10 q 334 9 338 9 q 326 9 330 9 q 305 11 315 9 q 284 14 295 14 q 267 11 275 14 q 250 6 258 8 q 205 -2 228 1 q 161 -6 183 -6 q 140 -1 153 -6 q 117 14 128 5 q 98 34 106 22 q 90 58 90 45 q 103 89 90 76 q 132 106 116 101 q 146 119 138 117 q 162 122 155 121 q 176 128 170 123 q 184 149 182 132 q 192 173 185 162 q 198 197 198 184 l 197 200 q 188 294 193 248 q 182 389 182 341 q 184 479 182 434 q 191 569 186 524 q 194 588 192 578 q 195 608 195 598 q 190 628 195 619 q 184 649 184 637 q 186 675 184 663 q 188 701 188 688 q 186 720 188 711 q 184 737 184 728 q 185 763 184 750 q 186 787 186 775 q 183 829 186 814 q 171 853 180 845 q 145 863 161 861 q 103 865 130 865 q 81 866 92 865 q 61 871 70 867 q 45 883 52 875 q 39 905 39 890 q 46 933 39 919 q 64 957 52 948 q 91 969 73 964 q 134 977 110 974 q 185 982 158 981 q 237 985 212 984 q 283 986 262 986 q 317 987 304 987 q 354 984 340 987 q 378 973 369 981 q 391 951 387 965 q 395 913 395 937 q 384 873 395 890 q 346 857 373 857 q 331 858 338 857 q 316 859 323 859 q 296 851 306 859 q 278 833 286 844 q 265 814 270 823 q 260 800 260 804 q 265 778 260 789 q 269 755 269 766 q 265 729 269 741 q 261 703 261 717 q 262 693 261 698 q 264 684 262 689 q 265 667 264 679 q 267 639 266 654 q 269 608 267 624 q 273 579 270 592 q 280 557 275 566 q 292 549 284 549 q 317 566 302 549 q 346 607 332 584 q 370 653 359 631 q 382 686 380 676 q 407 702 396 692 q 428 721 418 711 q 449 743 435 728 q 477 777 463 759 q 502 810 491 794 q 512 836 512 827 q 507 857 512 846 q 495 882 501 869 q 484 908 489 895 q 478 935 478 921 q 493 955 478 947 q 528 967 508 962 q 569 973 549 971 q 602 975 590 975 q 702 962 652 975 q 798 928 752 949 q 780 896 791 906 q 758 881 770 886 q 731 875 745 876 q 702 872 717 874 q 672 863 687 869 q 642 842 656 857 q 622 819 631 831 q 603 795 612 806 q 582 773 593 783 q 557 754 571 762 l 557 751 q 544 707 557 726 q 516 669 531 688 q 488 626 500 649 q 475 570 475 603 q 478 535 475 554 q 489 497 481 515 q 508 465 496 479 q 537 445 520 451 q 538 430 537 441 q 542 404 540 418 q 548 377 545 390 q 557 357 552 363 q 562 349 561 353 q 563 343 563 346 q 564 337 564 340 q 566 329 564 334 q 576 323 571 326 q 586 319 581 321 l 586 290 q 591 283 588 284 q 600 281 595 281 q 607 273 604 281 q 611 251 609 264 q 616 225 614 239 q 625 203 619 212 q 636 178 631 191 q 647 153 642 165 q 658 128 652 140 q 673 106 664 116 q 705 84 686 92 q 742 72 724 75 q 758 66 747 71 q 782 56 770 62 q 802 43 793 50 q 811 31 811 36 z "},"L":{"ha":837,"x_min":33,"x_max":808,"o":"m 808 189 q 805 172 808 180 q 802 156 802 165 q 804 143 802 149 q 807 130 807 136 q 805 112 807 124 q 800 87 803 100 q 793 63 797 75 q 787 48 790 52 l 768 48 q 758 19 765 34 q 714 3 732 7 q 675 0 696 0 q 655 0 665 0 q 632 1 644 1 q 593 -2 610 1 q 556 -16 576 -4 q 543 -18 550 -18 q 518 -16 530 -18 q 493 -9 505 -13 q 468 -3 481 -6 q 443 -1 456 -1 q 406 3 425 -1 q 370 7 388 7 q 343 4 356 7 q 317 -1 330 2 q 291 -6 304 -4 q 264 -9 278 -9 q 241 -6 252 -9 q 217 -3 229 -3 q 174 -7 195 -3 q 131 -11 153 -11 q 84 3 102 -11 q 65 47 65 17 q 71 69 65 60 q 103 110 86 98 q 135 128 119 123 q 163 136 150 134 q 187 144 177 138 q 203 168 197 151 q 209 218 209 184 q 202 297 209 258 q 196 376 196 336 q 200 415 196 396 q 204 454 204 434 q 201 520 204 488 q 198 587 198 553 q 192 632 198 610 q 186 677 186 654 q 189 703 186 690 q 191 728 191 715 q 189 768 191 748 q 186 807 187 787 q 183 828 185 818 q 175 847 180 839 q 161 859 170 854 q 139 864 152 864 q 115 860 127 864 q 90 856 103 856 q 76 857 83 856 q 62 861 69 859 q 57 871 59 865 q 52 883 54 878 q 45 893 49 889 q 33 899 41 898 q 46 926 40 909 q 60 957 52 942 q 79 983 68 972 q 105 994 90 994 q 129 987 118 994 q 153 981 140 981 q 184 988 170 981 q 216 995 199 995 q 241 985 230 995 q 263 989 253 989 q 276 987 270 989 q 290 985 283 985 q 329 990 310 985 q 369 996 349 996 q 400 991 385 996 q 429 980 415 987 q 458 967 444 974 q 488 957 472 960 q 489 951 488 954 q 489 945 489 949 l 489 943 l 488 940 q 484 915 488 927 q 477 890 479 902 q 466 869 474 873 q 445 865 457 865 q 433 865 439 865 q 422 865 427 865 q 372 862 397 865 q 323 850 347 858 q 317 822 317 838 q 319 798 317 810 q 323 773 322 785 q 310 777 316 774 q 297 779 304 779 q 287 773 292 779 q 283 762 283 767 q 286 753 283 757 q 294 748 290 750 q 304 745 299 746 q 313 745 310 745 l 314 731 q 308 682 314 706 q 302 633 302 658 q 304 618 302 625 q 306 603 306 610 q 301 592 306 594 q 290 590 296 590 q 279 589 284 590 q 274 583 274 589 q 275 580 274 581 q 272 570 272 574 q 277 563 272 564 q 287 561 281 562 q 297 560 292 561 q 302 554 302 559 q 300 540 302 547 q 298 527 298 534 q 305 492 298 509 q 313 456 313 475 q 308 424 313 440 q 304 392 304 408 q 307 372 304 382 q 314 352 310 362 q 320 333 317 342 q 323 313 323 323 q 319 285 323 298 q 314 257 314 271 q 315 247 314 254 q 320 210 318 231 q 329 169 323 189 q 347 136 335 150 q 382 123 359 123 q 422 129 403 123 q 463 136 442 136 q 489 133 476 136 q 513 125 501 130 q 538 118 526 121 q 564 115 551 115 q 605 120 585 115 q 645 128 625 125 q 688 148 673 134 q 702 192 702 161 q 695 251 702 222 q 688 311 688 280 q 693 346 688 329 q 710 377 699 363 q 743 382 726 382 q 785 363 772 382 q 797 317 797 344 q 792 301 797 306 q 787 293 787 297 q 790 289 787 292 q 796 283 793 287 q 802 275 800 280 q 805 265 805 271 q 801 258 805 260 q 800 240 801 251 q 799 218 800 229 q 800 198 799 208 q 803 184 800 189 l 808 189 z "},"M":{"ha":969,"x_min":65,"x_max":909,"o":"m 905 49 q 891 26 901 35 q 869 13 882 18 q 841 6 856 8 q 814 5 827 5 q 775 7 794 5 q 737 13 756 9 q 712 15 727 14 q 682 18 696 16 q 656 28 667 21 q 646 50 646 35 q 652 75 646 67 q 669 86 659 83 q 692 90 680 89 q 714 94 704 90 q 731 106 724 98 q 738 134 738 115 q 735 158 738 146 q 730 182 733 170 q 725 206 728 194 q 723 230 723 218 q 728 247 723 238 q 733 268 733 256 q 730 307 733 289 q 719 345 726 326 q 714 369 714 358 q 719 389 714 379 q 723 409 723 398 q 718 436 723 423 q 713 464 713 450 q 718 501 713 483 q 722 538 722 519 q 719 567 722 551 q 712 598 716 583 q 703 630 707 614 q 694 657 698 645 q 672 641 680 651 q 658 619 663 631 q 650 593 653 607 q 645 567 647 580 q 630 515 640 541 q 616 464 621 490 q 610 399 611 431 q 607 336 609 368 q 599 273 604 304 q 579 211 593 242 q 572 189 574 199 q 571 168 571 179 q 572 149 571 159 q 572 130 572 140 q 568 98 572 109 q 558 81 564 87 q 547 67 553 74 q 539 48 542 61 q 528 32 537 37 q 507 22 519 26 q 482 16 494 18 q 462 9 470 14 q 444 39 454 25 q 425 67 433 52 q 413 100 415 83 q 404 136 410 118 q 398 150 401 144 q 391 162 394 156 q 386 176 388 169 q 383 192 383 182 q 384 206 383 199 q 385 220 385 212 q 379 254 385 236 q 360 322 368 289 q 349 392 352 355 q 343 459 345 425 q 329 525 341 493 q 315 555 323 541 q 301 585 307 569 q 299 595 300 588 q 296 611 298 603 q 292 626 294 619 q 287 633 290 632 q 282 625 283 630 q 275 608 277 612 q 270 600 272 603 q 264 593 267 597 q 254 581 260 590 q 249 565 249 574 q 256 535 249 549 q 262 505 262 520 q 260 489 262 497 q 257 474 257 481 q 263 435 257 454 q 269 396 269 416 q 264 366 269 380 q 259 336 259 351 q 263 303 259 319 q 267 271 267 288 q 264 245 267 258 q 258 220 261 233 q 252 194 255 207 q 250 168 250 181 q 260 128 250 140 q 287 111 271 117 q 318 99 302 104 q 346 77 334 93 q 337 55 340 67 q 328 33 334 43 q 316 21 322 24 q 305 17 311 18 q 292 15 299 16 q 278 9 286 14 q 268 2 271 5 q 262 -5 264 -2 q 254 -10 259 -8 q 238 -12 249 -12 q 215 -9 227 -12 q 192 -6 203 -6 q 168 -10 180 -6 q 144 -14 157 -14 q 116 -8 130 -14 q 91 6 102 -3 q 72 27 79 15 q 65 56 65 40 q 75 91 65 79 q 99 110 84 103 q 130 122 113 117 q 162 136 147 127 q 166 159 165 147 q 167 183 167 171 q 165 222 167 203 q 163 262 163 242 q 166 287 163 275 q 169 313 169 300 q 167 326 169 320 q 155 374 157 351 q 153 425 153 397 q 156 447 153 436 q 162 469 159 458 q 169 490 166 479 q 172 513 172 501 q 170 554 172 534 q 167 595 167 574 q 170 622 167 609 q 172 648 172 635 q 167 674 172 662 q 161 701 161 687 q 166 718 161 710 q 172 734 172 725 q 166 745 172 740 q 161 763 161 751 q 162 783 161 773 q 163 804 163 793 q 156 836 163 824 q 139 854 149 848 q 118 863 130 861 q 97 869 106 866 q 80 876 87 872 q 73 890 73 880 q 83 908 73 899 q 108 926 93 917 q 140 943 123 935 q 173 958 158 951 q 198 970 188 965 q 210 977 209 975 q 218 970 213 972 q 228 968 222 968 q 240 968 234 968 q 250 966 245 968 q 260 961 256 964 q 266 954 263 958 q 275 947 269 951 q 291 941 280 944 q 330 922 317 935 q 343 881 343 909 q 342 866 343 873 q 340 852 340 859 l 357 804 q 362 788 359 796 q 366 773 364 781 q 377 755 373 767 q 383 729 381 743 q 385 701 385 715 q 387 678 386 688 q 394 648 389 663 q 399 618 399 633 q 396 599 399 608 q 393 579 393 589 q 398 545 393 562 q 409 511 403 528 q 420 477 415 494 q 426 443 425 460 q 428 418 426 435 q 432 380 429 401 q 440 337 435 359 q 451 297 444 315 q 466 267 457 279 q 484 256 474 256 q 500 263 496 256 q 504 279 503 270 q 506 298 505 289 q 515 312 507 308 q 527 328 522 316 q 536 354 532 340 q 541 383 539 369 q 543 404 543 397 q 545 477 545 439 q 547 552 545 514 q 553 626 548 589 q 568 696 557 662 q 574 706 570 701 q 581 716 577 711 q 586 726 584 721 q 589 737 589 731 q 587 744 589 741 q 582 749 585 747 q 578 753 580 751 q 576 758 576 755 q 578 763 576 762 q 582 767 580 765 q 594 797 591 778 q 597 839 596 817 q 598 882 597 861 q 607 918 600 903 q 623 915 615 915 q 641 919 632 915 q 658 926 650 922 q 676 934 667 930 q 695 938 685 938 q 703 938 699 938 q 710 937 707 937 q 734 943 724 937 q 757 949 745 949 q 764 947 762 949 q 767 943 766 945 q 769 939 768 941 q 773 937 770 937 q 797 940 785 937 q 820 943 808 943 q 832 941 827 943 q 842 932 837 939 q 857 922 847 924 q 876 917 866 920 q 892 910 885 915 q 899 895 899 906 q 888 862 899 871 q 861 850 876 853 q 831 845 846 847 q 810 831 817 842 q 802 806 804 820 q 795 780 801 793 q 792 770 793 774 q 791 760 791 765 q 793 739 791 749 q 800 719 796 728 q 807 699 804 709 q 812 678 810 688 q 816 605 816 642 q 813 562 816 583 q 808 518 811 540 q 803 475 806 496 q 801 433 801 454 q 791 406 801 416 l 790 391 q 793 351 790 371 q 799 312 795 332 q 805 273 802 293 q 808 234 808 254 q 800 182 808 208 q 793 130 793 156 q 801 98 793 110 q 831 87 809 87 q 850 88 840 87 q 869 89 860 89 q 889 87 879 89 q 907 77 899 85 q 908 69 907 75 q 909 59 909 64 q 909 50 909 54 q 905 49 908 47 m 279 718 q 275 744 279 730 q 259 764 271 757 q 259 751 259 758 q 258 739 258 745 q 261 717 258 728 q 278 706 264 707 q 279 711 279 709 q 279 718 279 714 m 808 89 q 802 96 808 93 q 793 98 797 98 q 788 98 791 98 q 780 96 784 97 q 774 92 777 94 q 771 87 771 90 q 778 82 771 83 q 787 81 784 81 q 799 83 791 81 q 808 89 808 84 m 510 184 q 505 184 507 184 q 500 184 503 184 q 480 180 488 184 q 471 162 471 176 l 471 155 q 476 154 474 155 q 481 154 479 154 q 502 158 493 154 q 511 176 511 163 l 510 184 z "},"N":{"ha":872,"x_min":57,"x_max":825,"o":"m 825 891 q 822 878 825 885 q 812 870 819 870 q 807 873 809 870 q 802 879 804 876 q 798 885 800 882 q 793 888 795 888 q 793 869 793 876 q 791 859 792 862 q 787 856 789 856 q 782 855 785 855 q 772 854 777 855 q 762 852 767 854 q 739 848 747 849 q 728 844 731 847 q 724 833 724 840 q 722 809 723 825 q 720 785 720 797 q 719 761 719 773 q 722 697 719 728 q 725 633 725 666 q 723 603 725 618 q 720 572 720 588 q 726 546 720 559 q 732 521 732 532 q 729 514 732 517 q 724 508 727 511 q 719 500 721 505 q 716 491 716 496 q 721 464 716 477 q 726 436 726 450 q 724 393 726 414 q 718 349 721 371 q 712 306 715 328 q 709 262 709 284 q 712 229 709 245 q 720 197 714 213 q 723 190 722 194 q 724 182 724 186 q 720 168 724 174 q 715 158 715 162 q 720 150 715 155 q 726 141 724 145 q 733 107 730 125 q 736 72 736 88 q 728 44 736 58 q 709 20 721 31 q 681 3 696 9 q 650 -4 666 -4 q 615 9 629 -4 q 590 40 600 22 q 571 79 579 59 q 554 115 562 100 q 544 138 547 127 q 536 160 540 149 q 526 181 532 171 q 509 202 519 192 q 495 221 500 210 q 487 245 490 233 q 482 270 484 258 q 477 294 479 283 q 459 346 469 320 q 439 397 449 372 q 431 416 436 406 q 420 436 426 426 q 411 456 415 446 q 406 473 406 465 q 394 514 403 496 q 375 548 385 532 q 355 581 365 564 q 342 619 346 598 q 338 637 341 626 q 329 660 334 648 q 316 679 323 671 q 300 687 309 687 q 289 680 293 687 q 281 663 284 673 q 278 643 279 653 q 277 629 277 633 q 278 602 277 615 q 280 574 280 588 q 276 555 280 564 q 272 536 272 545 q 276 526 272 530 q 281 516 281 522 q 279 506 281 511 q 278 495 278 500 q 280 462 278 478 q 281 429 281 446 q 280 406 281 418 q 275 384 279 394 q 262 367 271 374 q 241 357 254 359 q 249 350 244 352 q 258 348 253 349 q 266 346 262 347 q 269 338 269 345 q 269 333 269 335 q 269 328 269 330 q 272 315 269 320 q 279 306 275 311 q 286 297 283 302 q 289 286 289 293 q 287 271 289 278 q 285 256 285 263 q 289 224 285 239 q 293 193 293 209 q 291 180 293 184 q 287 174 290 176 q 283 171 285 172 q 281 166 281 170 q 283 154 281 159 q 286 141 286 148 q 284 133 286 137 q 280 125 283 129 q 286 114 281 117 q 297 108 290 111 q 309 102 303 105 q 319 92 315 99 q 325 80 321 85 q 335 75 328 75 q 356 80 347 75 q 376 85 366 85 q 401 72 394 85 q 408 43 408 58 q 401 16 408 24 q 387 4 395 8 q 373 -3 379 1 q 366 -16 366 -6 q 367 -18 366 -17 q 367 -20 367 -18 q 347 -11 357 -14 q 325 -8 336 -8 q 284 -14 304 -8 q 244 -20 264 -20 q 215 -17 229 -20 q 186 -14 201 -14 q 167 -17 176 -14 q 149 -19 158 -19 q 123 -15 139 -19 q 93 -3 108 -10 q 67 13 78 4 q 57 28 57 21 q 71 65 57 49 q 104 85 84 82 q 127 87 115 87 q 152 89 140 87 q 175 93 164 90 q 193 106 186 97 q 191 130 191 117 q 197 176 191 153 q 203 222 203 198 q 201 241 203 231 q 193 336 193 288 q 193 363 193 349 q 194 391 194 377 q 189 460 194 426 q 182 530 184 495 q 181 604 181 568 q 174 677 181 640 q 171 695 172 686 q 171 713 171 704 l 171 738 q 168 781 171 766 q 159 801 165 795 q 141 809 152 808 q 115 813 131 811 q 97 822 106 814 q 80 840 88 829 q 67 861 73 850 q 62 880 62 871 l 62 895 q 71 937 62 922 q 93 959 79 951 q 126 967 107 966 q 168 968 146 968 q 215 967 191 968 q 261 959 239 965 q 302 942 283 954 q 332 912 320 931 q 345 885 339 899 q 355 857 350 871 q 364 829 359 843 q 376 802 369 815 q 381 789 380 796 q 385 775 383 782 q 389 761 387 768 q 395 749 391 755 q 406 738 399 743 q 416 725 412 732 q 424 697 422 711 q 429 668 427 682 q 433 638 431 653 q 441 610 435 624 q 449 597 446 602 q 456 586 453 591 q 461 575 459 581 q 465 558 464 568 q 468 529 467 543 q 475 500 469 514 q 486 481 479 490 q 499 464 492 472 q 513 446 507 455 q 524 427 520 437 q 536 389 530 406 q 560 357 543 371 q 553 344 556 351 q 550 330 550 337 q 557 301 550 315 q 570 275 564 288 q 578 257 574 264 q 593 244 583 250 q 606 236 603 239 q 610 228 610 232 q 611 217 611 223 q 612 203 610 212 q 615 193 613 199 q 620 181 617 187 q 627 172 623 176 q 636 168 631 168 q 642 171 640 168 q 646 178 644 174 q 647 186 647 182 q 648 193 648 191 q 653 211 648 203 q 658 229 658 218 q 653 250 658 240 q 648 271 648 259 q 651 288 648 280 q 655 305 655 296 q 650 317 655 312 q 645 326 645 321 q 647 329 645 328 q 651 330 649 329 q 655 332 653 330 q 657 338 657 334 q 653 370 657 355 q 645 401 650 385 q 636 432 640 416 q 633 465 633 448 q 640 493 633 481 q 646 509 646 505 q 642 525 646 518 q 637 541 637 532 q 643 561 637 551 q 648 580 648 570 q 645 592 648 586 q 639 604 642 597 q 632 616 635 610 q 628 629 629 623 q 626 650 626 639 q 625 671 625 661 l 625 701 q 624 736 625 719 q 617 771 622 753 q 612 801 613 787 q 608 825 612 814 q 595 841 605 835 q 564 849 586 848 q 533 851 549 850 q 502 855 517 851 q 487 867 492 858 q 479 886 481 876 q 477 908 477 897 q 477 926 477 920 q 490 948 477 939 q 520 962 503 956 q 555 969 537 967 q 582 972 572 972 q 604 971 588 972 q 638 968 619 970 q 677 963 657 966 q 715 955 698 960 q 743 943 732 950 q 753 928 753 937 q 767 939 760 935 q 784 944 774 944 q 801 939 793 944 q 814 926 808 934 q 822 908 819 918 q 825 891 825 899 m 184 46 q 181 55 184 52 q 173 60 178 58 q 162 63 168 61 q 155 68 157 64 q 154 64 154 66 q 153 60 153 62 q 157 51 153 54 q 165 47 160 48 q 175 44 170 45 q 183 39 180 42 q 184 42 184 41 q 184 46 184 44 z "},"O":{"ha":857,"x_min":60,"x_max":797,"o":"m 796 456 q 793 429 796 442 q 787 402 791 416 q 781 376 784 389 q 779 349 779 362 q 780 338 779 343 q 781 328 781 333 q 776 302 781 314 q 766 278 772 290 q 759 257 760 268 q 758 235 758 246 q 755 214 758 224 q 747 193 753 203 q 744 173 746 186 q 738 155 741 160 q 734 153 737 153 q 726 151 730 152 q 718 149 722 151 q 709 142 713 146 q 704 133 706 139 q 699 121 702 127 q 693 110 696 115 q 683 106 689 106 q 672 108 677 106 q 663 113 667 111 q 653 117 658 115 q 642 116 648 118 q 643 110 644 115 q 643 99 642 104 q 649 89 644 94 q 666 84 654 84 q 678 85 672 84 q 690 87 684 85 q 677 63 684 72 q 660 48 669 55 q 641 36 651 42 q 622 19 631 29 q 600 5 610 7 q 575 -2 589 2 q 552 -14 559 -7 q 537 -26 545 -20 q 515 -37 529 -33 q 471 -41 501 -41 q 417 -39 444 -41 q 364 -34 391 -37 q 344 -30 352 -33 q 330 -23 336 -26 q 316 -15 323 -19 q 299 -7 309 -11 q 286 -2 294 -5 q 271 5 279 1 q 256 12 262 8 q 245 19 249 16 q 238 28 240 23 q 235 39 237 33 q 232 50 234 45 q 226 58 231 55 q 206 62 216 60 q 187 68 197 64 q 182 82 184 75 q 177 97 180 90 q 160 113 168 106 q 146 126 152 119 q 135 142 140 133 q 130 166 131 151 q 121 200 127 184 q 109 233 115 217 q 97 267 102 250 q 92 301 92 283 q 100 338 92 319 q 75 399 80 366 q 71 465 71 432 q 71 487 71 476 q 71 507 71 497 q 66 525 71 519 q 61 541 61 532 q 65 570 61 556 q 71 600 70 585 q 60 606 62 601 l 61 609 q 69 624 66 617 q 73 637 72 631 q 76 650 75 643 q 79 665 77 656 q 93 720 85 693 q 110 773 102 746 q 132 828 119 804 q 172 872 144 852 q 193 892 183 882 q 206 918 202 903 q 214 922 210 921 q 222 922 218 922 l 227 922 q 236 923 232 922 q 245 928 241 924 q 263 941 255 937 q 284 945 271 945 q 302 944 294 945 q 321 940 311 942 q 331 949 324 943 q 342 957 337 955 l 342 955 q 343 950 342 952 q 347 947 344 947 q 364 951 356 947 q 381 957 372 956 q 420 967 401 960 q 460 975 440 975 q 507 972 482 975 q 555 962 532 969 q 600 941 579 954 q 632 907 620 928 q 643 892 637 897 q 654 883 648 887 q 665 876 659 880 q 676 865 670 872 q 697 833 689 850 q 719 802 705 816 q 745 763 736 786 q 753 716 753 740 q 751 701 753 709 q 749 686 749 694 q 752 671 749 679 q 760 656 755 664 q 767 639 764 648 q 772 622 770 630 q 778 586 774 604 q 786 551 782 569 q 794 504 791 528 q 796 456 797 480 m 686 461 q 679 536 686 499 q 667 611 673 574 q 658 637 664 625 q 648 662 652 649 q 633 711 640 686 q 618 760 625 735 q 599 786 613 774 q 566 805 585 797 q 525 818 547 812 q 482 826 503 823 q 445 830 462 829 q 418 831 427 831 l 427 831 l 420 831 q 390 832 405 831 q 361 833 376 833 q 337 832 349 833 q 315 823 325 830 q 273 790 293 805 q 241 748 254 774 q 232 735 237 739 q 223 728 227 732 q 215 720 218 724 q 210 704 212 715 q 202 665 207 684 q 198 626 198 646 q 194 584 198 605 q 182 544 191 564 q 179 534 180 538 q 177 524 177 529 q 182 506 177 513 q 186 494 186 499 q 185 491 186 491 q 181 489 183 490 q 178 485 180 488 q 176 473 176 481 q 177 433 176 453 q 180 393 177 412 q 188 371 182 381 q 193 349 193 360 q 189 334 193 341 q 186 318 186 326 q 191 303 186 309 q 202 290 197 297 q 209 276 206 284 q 215 260 212 267 q 221 247 218 252 q 227 241 224 241 q 232 242 230 241 q 237 243 234 243 q 257 232 250 243 q 264 208 264 220 q 270 192 264 199 q 283 180 275 186 q 298 170 290 175 q 311 159 306 165 q 325 145 320 149 q 334 141 330 142 q 342 139 338 140 q 352 134 346 138 q 367 122 359 129 q 382 111 375 116 q 430 93 404 96 q 481 90 456 90 q 500 94 491 90 q 517 105 509 99 q 535 115 526 111 q 555 120 545 120 q 574 116 564 120 q 604 154 589 140 q 629 182 618 168 q 649 213 641 195 q 661 261 657 231 q 668 285 662 274 q 675 309 673 296 q 679 363 678 336 q 683 417 679 390 q 685 439 684 428 q 686 461 686 450 z "},"P":{"ha":768,"x_min":42,"x_max":732,"o":"m 66 870 q 60 864 63 867 q 53 861 57 861 q 45 865 48 861 q 42 874 42 869 q 43 876 42 875 q 43 879 43 878 l 47 880 q 58 877 53 880 q 66 870 62 873 m 259 387 l 259 385 q 258 388 258 387 q 258 391 258 390 l 259 387 l 259 387 m 732 699 q 731 676 732 689 q 729 650 730 663 q 725 624 727 636 q 719 602 722 611 q 694 559 709 578 q 670 517 679 541 q 659 503 668 511 q 637 488 649 496 q 615 474 626 481 q 597 464 604 468 q 520 428 559 440 q 437 416 481 416 l 433 416 q 415 424 422 422 q 395 426 408 426 q 370 425 382 426 q 345 423 357 425 q 327 418 340 422 q 298 408 313 414 q 271 396 283 402 q 259 387 259 391 l 259 385 q 262 380 260 380 q 269 384 266 380 q 276 387 272 387 q 281 384 279 387 q 284 376 283 380 q 286 367 286 372 q 286 361 286 363 q 282 322 286 341 q 278 283 278 302 q 278 244 278 263 q 277 205 277 224 q 281 151 277 169 q 296 123 285 132 q 326 110 307 114 q 375 97 345 105 q 373 85 373 91 q 378 74 373 77 q 389 66 383 70 q 400 58 395 62 q 405 43 405 53 q 398 27 405 34 q 388 14 390 19 q 383 5 385 8 q 376 0 381 2 q 356 -2 370 -1 q 292 -4 323 -4 q 267 -4 279 -4 q 242 -3 255 -3 q 178 -5 210 -3 q 141 -12 159 -7 q 104 -16 123 -16 q 73 -3 81 -16 q 65 30 65 9 q 74 63 65 50 q 96 84 83 76 q 124 98 109 93 q 153 109 140 104 q 175 119 166 114 q 184 134 184 125 q 181 149 184 142 q 178 165 178 157 q 182 183 178 170 q 187 215 187 197 q 187 230 187 222 q 186 244 187 237 q 180 252 182 246 q 177 266 178 258 q 176 280 176 273 q 176 291 176 287 q 180 342 176 317 q 183 393 183 368 q 181 425 183 410 q 179 457 179 441 q 182 464 179 462 q 176 477 176 469 q 179 495 176 487 q 182 512 182 503 q 179 539 182 526 q 173 566 176 553 q 168 592 170 579 q 165 619 165 606 q 168 635 165 627 q 173 650 170 642 q 177 666 175 658 q 180 682 180 673 q 175 727 180 705 q 171 772 171 749 q 177 792 171 786 q 191 803 184 799 q 205 811 199 807 q 212 822 212 814 q 207 830 212 827 q 199 833 203 833 q 182 827 189 833 q 167 821 176 821 q 157 828 161 821 q 148 844 153 836 q 136 859 142 852 q 121 866 130 866 q 106 864 113 866 q 91 862 98 862 q 78 867 81 862 q 75 879 75 871 q 76 886 75 882 q 76 892 76 889 q 74 904 76 898 q 64 910 72 910 q 56 909 60 910 q 81 927 66 921 q 114 937 97 934 q 150 942 132 941 q 182 947 168 944 q 192 949 187 949 q 201 950 196 950 q 225 948 214 950 q 249 945 237 945 q 270 951 262 945 q 288 957 277 957 q 302 950 294 954 q 317 947 311 947 q 362 949 340 947 q 407 952 385 952 q 454 946 431 952 q 499 931 477 939 q 545 915 522 923 q 591 903 567 907 q 607 897 599 901 q 622 885 614 892 q 636 872 629 879 q 650 861 644 865 q 665 844 659 853 q 676 824 671 834 q 689 805 682 814 q 705 789 695 796 q 720 772 715 783 q 728 748 726 761 q 731 722 730 735 q 732 699 732 709 m 620 658 q 607 737 620 701 q 569 798 593 772 q 509 838 544 823 q 430 852 473 852 q 410 852 423 852 q 380 851 396 852 q 346 849 363 850 q 313 845 328 848 q 287 839 298 843 q 273 830 276 836 q 259 812 268 823 q 251 793 251 802 q 255 778 251 786 q 264 762 259 770 q 274 744 269 753 q 278 725 278 734 q 268 722 273 724 q 263 713 263 720 q 270 691 263 703 q 276 666 276 679 q 272 651 276 656 q 263 643 268 646 q 254 636 258 640 q 250 627 250 633 q 259 607 250 621 q 279 577 268 593 q 298 548 290 561 q 307 532 307 534 q 339 530 323 530 q 373 531 349 530 q 422 533 396 532 q 470 537 448 535 q 500 541 492 539 q 513 547 509 543 q 519 555 516 551 q 528 563 523 559 q 545 566 533 566 q 580 573 566 566 q 604 593 595 581 q 616 622 612 606 q 620 658 620 639 z "},"Q":{"ha":836,"x_min":59,"x_max":793,"o":"m 793 1 q 790 -22 793 -10 q 779 -41 788 -33 q 772 -51 774 -45 q 767 -63 769 -56 q 762 -76 764 -69 q 758 -87 760 -82 q 743 -102 751 -97 q 724 -109 734 -106 q 703 -112 713 -111 q 682 -115 692 -113 q 660 -121 671 -119 q 640 -132 649 -124 q 636 -134 638 -133 q 632 -135 635 -135 q 624 -131 628 -135 q 615 -127 621 -127 q 599 -130 607 -127 q 583 -132 591 -132 q 538 -116 557 -132 q 508 -77 520 -100 q 491 -27 496 -54 q 484 19 485 -1 q 467 18 475 18 q 450 18 458 18 q 377 24 413 18 q 305 37 342 30 q 283 41 293 39 q 264 44 273 42 q 247 52 255 47 q 229 68 238 58 q 197 102 214 86 q 165 136 180 118 q 153 188 165 163 q 127 238 141 213 q 101 290 113 263 q 90 350 90 317 q 98 396 90 374 q 84 423 86 408 q 81 453 82 438 q 76 477 79 465 q 69 500 73 488 q 62 524 65 512 q 59 547 59 535 q 62 574 59 561 q 70 600 66 587 q 79 625 75 612 q 84 651 83 637 q 86 688 86 669 q 90 725 85 707 q 94 735 90 730 q 100 747 97 741 q 106 758 104 753 q 109 766 109 763 q 103 779 109 770 q 97 794 97 787 q 101 805 97 798 q 111 820 105 812 q 123 833 117 827 q 133 838 129 838 q 140 836 136 838 q 146 831 143 834 q 157 866 149 850 q 175 898 165 882 q 180 907 178 902 q 186 917 183 912 q 192 926 189 922 q 199 929 195 929 q 204 928 201 929 q 210 927 207 927 q 213 928 212 927 q 214 930 214 928 q 213 936 214 933 q 212 943 212 939 q 230 955 212 949 q 272 963 248 960 q 317 968 295 966 q 346 970 338 970 q 353 970 347 970 q 359 968 359 969 q 374 978 365 974 q 393 984 383 982 q 414 987 404 986 q 432 987 424 987 q 473 984 453 987 q 513 973 494 981 q 530 967 522 970 q 548 961 539 964 q 564 954 556 958 q 577 941 571 949 q 616 898 593 921 q 659 851 638 876 q 694 800 680 826 q 708 745 708 773 q 708 735 708 740 q 707 725 707 730 q 728 699 722 719 q 736 656 734 680 q 738 609 739 632 q 740 572 738 585 q 742 549 741 560 q 743 528 743 538 q 739 456 743 491 q 734 384 735 420 q 729 345 733 364 q 721 308 725 326 q 712 270 716 289 q 707 232 707 251 q 686 216 695 228 q 668 189 676 203 q 653 160 660 174 q 639 136 646 145 q 617 112 629 123 q 595 90 606 101 q 577 64 585 78 q 570 33 570 51 q 575 -5 570 14 q 581 -41 581 -23 q 587 -50 581 -45 q 602 -57 593 -54 q 617 -64 610 -61 q 629 -70 625 -67 q 639 -78 634 -75 q 652 -82 644 -82 q 671 -73 664 -82 q 684 -51 678 -64 q 695 -22 690 -37 q 707 7 700 -6 q 726 30 715 21 q 755 39 737 39 q 793 1 793 39 m 677 484 q 663 510 667 495 q 658 540 659 524 q 656 581 657 561 q 653 620 656 601 q 645 658 650 639 q 629 696 640 677 q 608 733 619 715 q 591 773 596 751 q 585 798 587 786 q 579 819 583 809 q 567 836 574 829 q 545 849 559 844 q 500 863 527 855 q 448 879 473 871 q 405 892 422 886 q 387 899 387 898 q 369 882 382 886 q 340 878 355 878 q 309 876 324 877 q 283 865 293 874 q 263 842 271 855 q 243 819 255 829 q 231 809 238 813 q 218 802 224 806 q 204 794 211 799 q 194 783 198 790 q 201 772 199 779 q 203 760 203 766 q 197 725 203 741 q 184 691 191 708 q 172 657 178 674 q 166 623 166 641 q 169 610 166 616 q 172 597 172 604 q 170 574 172 585 q 163 551 167 562 q 156 528 159 540 q 152 505 153 517 q 151 490 151 498 q 151 474 151 481 q 153 419 151 446 q 160 364 156 391 q 163 342 161 353 q 165 321 165 332 q 168 308 165 314 q 177 297 172 302 q 187 287 182 292 q 196 277 193 281 q 211 253 204 265 q 225 231 217 241 q 244 213 233 220 q 271 203 255 205 q 275 217 273 212 q 287 222 278 222 l 291 222 q 299 257 292 241 q 320 285 307 273 q 349 304 332 297 q 384 311 366 311 q 392 310 388 311 q 400 309 396 309 q 409 314 404 309 q 422 319 414 319 q 448 313 436 319 q 473 301 460 307 q 494 291 485 294 q 511 284 503 288 q 525 274 518 281 q 538 254 531 267 q 545 241 541 248 q 553 229 549 235 q 563 219 557 223 q 576 215 569 215 q 598 229 587 215 q 618 260 609 242 q 634 295 627 277 q 645 323 641 313 q 657 365 654 343 q 662 407 660 386 q 666 448 663 428 q 677 484 669 467 m 427 182 q 427 184 427 183 q 427 186 427 185 q 418 200 427 195 q 399 204 410 204 q 369 193 382 204 q 357 167 357 182 q 358 155 357 160 q 362 145 360 149 q 368 136 365 140 q 380 132 374 134 q 393 130 387 130 q 416 140 406 130 q 427 180 427 150 l 427 182 z "},"R":{"ha":884,"x_min":20,"x_max":866,"o":"m 866 107 q 865 91 866 101 q 859 77 865 81 q 850 66 852 74 q 848 50 848 58 q 848 35 848 41 q 842 28 847 28 q 837 30 839 28 q 831 32 835 32 q 825 28 828 32 q 821 22 821 25 q 824 17 821 18 q 826 12 826 15 q 816 5 826 9 q 793 -2 806 1 q 768 -8 780 -6 q 751 -11 755 -11 q 703 -2 727 -11 q 655 14 678 7 q 614 45 627 24 q 595 94 601 67 q 586 150 589 121 q 574 201 583 178 q 571 218 571 211 q 573 229 571 224 q 577 236 574 233 q 581 242 579 239 q 583 247 583 244 q 578 263 583 255 q 573 285 573 271 q 573 299 573 292 q 574 314 574 307 q 569 355 574 339 q 557 385 565 372 q 539 412 549 399 q 515 445 528 426 q 503 444 509 444 q 490 444 496 444 q 463 445 476 444 q 436 446 450 446 q 407 444 422 446 q 378 441 393 441 q 359 444 368 441 q 340 447 349 447 q 317 443 328 447 q 296 430 305 438 q 280 412 286 422 q 275 389 275 401 l 275 368 q 264 252 275 309 q 262 234 263 243 q 260 216 260 226 q 272 172 260 189 q 299 144 283 155 q 335 127 315 134 q 371 113 355 120 q 398 96 387 106 q 410 68 410 85 q 407 55 410 61 q 401 44 405 50 q 385 23 393 30 q 368 12 377 16 q 348 5 359 7 q 322 0 337 3 q 298 -4 311 -3 q 273 -5 286 -5 q 236 0 254 -5 q 199 4 218 4 q 170 2 184 4 q 141 -4 155 -1 q 113 -9 127 -7 q 84 -12 98 -12 q 63 -9 75 -12 q 43 -2 52 -7 q 27 11 33 3 q 20 31 20 19 q 25 47 20 40 q 38 60 30 55 q 54 69 45 66 q 71 73 63 73 q 84 74 79 74 q 93 75 89 74 q 100 79 96 77 q 110 87 104 82 q 116 93 113 91 q 124 95 119 95 q 131 94 127 95 q 138 94 134 94 q 149 97 143 94 q 169 118 163 105 q 177 146 175 131 q 179 178 179 161 q 183 208 180 194 q 186 235 186 222 q 181 282 186 259 q 175 329 175 305 q 179 386 175 357 q 183 443 183 414 q 183 457 183 450 q 182 471 182 464 q 189 568 182 520 q 195 664 195 615 q 194 690 195 677 q 192 717 193 703 q 189 744 191 728 q 185 777 188 760 q 178 810 182 793 q 166 841 174 827 q 147 862 158 854 q 120 871 136 871 q 113 870 117 871 q 106 869 109 869 q 94 874 98 869 q 86 885 89 878 q 82 899 83 891 q 81 911 81 906 q 93 945 81 935 q 122 960 105 956 q 160 964 140 964 q 195 965 180 964 q 230 971 213 966 q 266 976 248 976 q 318 969 292 976 q 370 962 344 962 q 412 966 392 962 q 453 977 433 970 q 471 980 463 980 q 524 973 498 980 q 575 965 549 966 q 612 959 593 964 q 647 944 631 954 q 676 921 664 935 q 692 888 688 907 q 701 866 694 876 q 717 847 709 855 q 732 831 726 838 q 739 819 739 824 q 734 812 739 814 q 730 804 730 810 q 734 797 730 801 q 744 787 739 793 q 754 775 749 782 q 758 762 758 769 q 752 744 758 751 q 745 726 745 736 l 747 724 l 756 726 l 758 725 q 760 702 760 714 q 760 681 760 690 q 759 652 760 668 q 755 622 758 637 q 747 594 753 607 q 732 574 742 581 q 719 567 726 569 q 707 561 713 564 q 696 553 701 558 q 688 541 691 549 q 677 519 685 529 q 660 499 669 509 q 645 479 652 489 q 639 456 639 469 q 648 420 639 437 q 665 385 657 403 q 675 348 672 367 q 681 311 679 330 q 683 273 682 292 q 687 235 684 254 q 693 208 688 227 q 706 170 699 189 q 723 137 713 151 q 743 123 732 123 q 757 132 751 123 q 767 154 762 142 q 779 178 772 166 q 796 193 785 189 q 831 185 817 191 q 852 169 845 179 q 863 143 860 158 q 866 107 866 127 m 663 731 q 659 753 663 741 q 649 779 655 766 q 636 803 643 791 q 622 822 629 814 q 603 824 608 822 q 597 829 598 826 q 594 836 595 832 q 584 844 592 840 q 541 862 560 856 q 496 868 522 868 q 481 864 488 868 q 469 860 474 860 q 438 864 453 860 q 408 867 423 867 q 361 862 385 867 q 330 854 346 858 q 302 844 315 851 q 282 826 290 838 q 275 794 275 814 q 279 753 275 773 q 283 711 283 732 q 280 692 283 701 q 274 673 277 682 q 268 654 271 664 q 264 635 264 645 q 267 610 264 623 q 275 588 269 597 q 291 572 281 578 q 316 566 301 566 q 343 571 330 566 q 370 577 356 577 q 385 573 378 577 q 398 566 391 570 q 412 558 405 562 q 429 554 420 554 q 441 556 435 554 q 453 560 448 557 q 508 581 479 572 q 565 590 536 590 q 583 598 572 590 q 604 620 593 607 q 625 649 614 633 q 645 681 636 665 q 658 710 653 697 q 663 731 663 724 z "},"S":{"ha":818,"x_min":72,"x_max":759,"o":"m 759 338 q 754 271 759 304 q 748 203 750 237 q 738 211 743 208 q 726 214 732 214 q 711 209 718 214 q 705 197 705 204 q 712 186 705 189 q 728 183 720 183 q 738 184 735 183 q 733 167 738 176 q 723 151 729 159 q 709 135 716 142 q 696 123 702 128 q 688 111 692 119 q 677 97 683 104 q 665 84 671 90 q 653 79 659 79 q 642 83 646 79 q 633 87 638 87 q 624 79 625 87 q 622 64 622 71 l 622 56 q 608 47 622 52 q 573 35 593 41 q 532 22 553 28 q 496 9 511 16 q 440 -9 469 -2 q 381 -17 412 -17 q 338 -11 359 -17 q 297 2 317 -5 q 255 15 276 9 q 212 20 235 20 q 189 18 203 20 q 168 9 175 15 q 161 0 164 7 q 153 -7 157 -7 q 143 -5 149 -7 q 134 -1 137 -2 q 108 21 119 7 q 90 50 97 34 q 79 82 82 65 q 75 116 75 100 q 78 139 75 127 q 80 161 80 150 q 76 193 80 178 q 73 225 73 209 q 76 248 73 237 q 80 271 80 260 q 76 288 80 280 q 72 304 72 296 q 76 315 72 311 q 81 324 81 319 q 80 340 81 332 q 79 357 79 349 q 80 369 79 361 q 81 384 80 376 q 86 397 83 391 q 96 402 90 402 q 120 387 108 402 q 143 351 133 372 q 161 311 154 331 q 168 280 168 290 q 165 274 168 277 q 158 271 162 271 q 164 256 161 266 q 168 241 168 247 q 165 226 168 233 q 163 210 163 218 q 166 197 163 203 q 172 186 169 191 q 182 174 178 178 q 191 168 186 170 q 201 165 195 166 q 216 164 207 165 q 247 127 230 144 q 283 97 264 111 q 344 86 314 90 q 404 82 374 82 q 448 87 429 82 q 483 102 467 93 q 513 122 498 111 q 545 145 528 133 q 569 161 556 153 q 594 176 582 168 q 617 194 606 184 q 635 217 628 204 q 649 234 640 225 q 659 252 659 242 q 658 258 659 256 q 654 301 655 280 q 652 343 653 321 q 643 374 650 363 q 624 392 635 385 q 600 406 613 399 q 575 425 587 412 q 546 441 562 437 q 513 445 530 444 q 480 447 496 446 q 449 460 463 449 q 442 463 445 463 q 430 459 436 463 q 418 455 425 455 q 397 458 408 455 q 376 464 387 460 q 356 471 366 467 q 336 475 346 474 q 314 478 322 477 q 298 480 305 479 q 283 486 291 482 q 262 498 275 490 q 187 532 227 521 q 168 570 180 551 q 153 579 160 575 q 139 589 146 584 q 129 613 135 596 q 116 649 122 630 q 105 686 110 669 q 101 710 101 703 q 104 740 101 726 q 120 766 108 754 q 125 769 122 767 q 128 775 128 772 q 123 780 128 779 q 118 787 118 782 q 119 790 118 788 q 119 793 119 791 q 134 821 124 808 q 155 847 143 835 q 181 870 168 859 q 206 889 194 880 q 221 905 215 895 q 235 918 228 914 q 245 919 240 918 q 254 919 250 919 q 264 919 260 919 q 274 918 269 918 q 284 925 281 921 q 290 932 287 928 q 297 937 292 935 q 313 939 301 939 q 328 939 320 939 q 342 939 335 939 q 394 939 368 939 q 445 940 419 940 q 481 940 463 940 q 517 937 499 939 q 541 931 530 935 q 566 928 553 928 q 583 932 578 928 q 591 943 588 937 q 598 953 594 948 q 612 958 602 958 q 642 950 627 958 q 671 938 657 943 l 670 935 q 668 922 668 929 q 672 899 668 910 q 680 877 675 888 q 687 855 684 866 q 691 832 691 844 q 690 818 691 825 q 688 804 688 812 q 694 785 688 791 q 699 774 699 779 q 694 765 699 769 q 690 754 690 762 q 692 719 690 736 q 694 684 694 702 q 693 666 694 678 q 691 642 693 654 q 683 621 688 630 q 669 612 678 612 q 649 620 659 612 q 633 635 640 628 q 621 656 625 645 q 614 680 616 667 q 608 704 611 692 q 597 726 604 715 q 577 757 587 741 q 557 789 567 773 q 545 806 550 802 q 533 813 539 811 q 519 814 527 814 q 500 817 511 814 q 476 823 488 819 q 452 830 464 827 q 428 837 440 834 q 404 840 416 840 q 363 834 384 840 q 323 819 343 828 q 283 800 302 810 q 245 783 263 790 q 228 706 228 747 q 235 657 228 676 q 253 625 241 638 q 280 602 265 612 q 313 580 296 591 q 348 565 330 568 q 385 561 365 561 q 408 562 397 561 q 431 562 419 562 q 455 559 444 562 q 478 551 467 555 q 500 543 489 547 q 524 540 512 540 q 546 541 536 540 q 568 543 557 543 q 585 538 577 543 q 600 528 592 534 q 615 517 607 522 q 632 512 623 513 q 654 500 646 505 q 670 488 663 494 q 684 473 677 482 q 699 452 690 465 q 718 429 706 439 q 738 406 730 420 q 741 395 741 401 q 743 383 742 389 q 748 373 745 377 q 758 368 751 368 q 759 353 758 360 q 759 338 759 346 z "},"T":{"ha":825,"x_min":35,"x_max":783,"o":"m 783 708 q 783 683 783 696 q 780 659 783 671 q 774 646 779 653 q 763 632 769 639 q 749 622 756 626 q 735 617 741 617 q 722 625 725 617 q 719 643 720 633 q 714 661 718 652 q 701 669 711 669 q 695 667 697 669 q 689 666 692 666 q 686 674 688 666 q 683 694 685 682 q 678 717 681 705 q 672 737 675 729 q 660 764 666 750 q 653 793 653 778 q 657 812 653 804 q 666 827 661 820 q 675 840 671 833 q 679 857 679 847 q 670 880 679 870 q 648 897 661 890 q 620 906 635 903 q 595 909 606 909 q 559 905 576 909 q 525 895 542 901 q 490 882 507 888 q 456 870 473 875 q 461 850 460 861 q 462 830 462 840 q 460 784 462 807 q 458 739 458 762 q 460 689 458 713 q 466 640 463 664 q 472 590 469 615 q 475 541 475 566 q 465 483 475 511 q 463 474 463 477 q 466 459 463 467 q 474 445 469 452 q 481 429 478 437 q 485 412 485 420 q 482 396 485 404 q 479 381 479 389 q 483 360 479 370 q 486 339 486 350 q 483 332 486 333 q 475 330 479 330 q 468 330 471 330 q 465 326 465 330 q 470 307 465 316 q 474 288 474 298 q 470 271 474 279 q 467 254 467 263 q 474 239 467 245 q 486 222 482 232 q 491 196 489 211 q 501 168 494 181 q 523 145 508 154 q 567 136 538 136 l 587 136 q 607 134 595 136 q 630 129 618 133 q 649 118 641 125 q 656 100 656 111 q 652 79 656 90 q 648 58 648 69 q 650 48 648 55 q 632 44 640 48 q 621 29 624 39 q 593 33 607 32 q 566 34 579 34 q 497 29 531 34 q 429 18 463 24 q 360 7 395 12 q 292 2 326 2 q 263 3 280 2 q 231 7 246 3 q 204 20 215 12 q 193 45 193 28 q 196 73 193 64 q 205 86 200 82 q 218 90 211 90 q 232 93 225 91 q 234 97 234 95 q 231 103 234 100 q 224 106 228 105 q 251 121 236 117 q 280 126 265 125 q 311 129 296 127 q 340 136 327 130 q 352 147 346 138 q 363 168 358 157 q 371 191 368 180 q 374 209 374 203 l 374 210 q 367 274 370 243 q 364 338 364 305 q 366 347 364 340 q 372 360 368 353 q 379 377 374 368 q 370 393 374 386 q 363 406 366 400 q 361 416 361 412 q 363 431 361 424 q 368 446 366 439 q 372 504 372 475 q 370 528 372 516 q 366 551 368 540 q 357 637 357 593 q 363 739 357 688 q 370 842 370 790 q 364 869 370 859 q 340 884 358 879 q 291 895 317 891 q 241 899 266 899 q 201 895 222 899 q 163 881 180 890 q 135 855 146 871 q 123 817 123 839 q 125 794 123 805 q 126 772 126 783 q 122 753 126 761 q 117 738 117 745 q 123 719 117 728 q 128 700 128 710 q 125 685 128 693 q 118 668 122 677 q 110 652 114 660 q 104 637 106 644 q 96 619 101 627 q 79 612 90 612 q 61 618 69 612 q 53 634 53 625 q 57 646 53 642 q 60 656 60 650 q 58 670 60 663 q 51 685 55 677 q 45 699 47 692 q 42 714 42 707 q 45 732 42 724 q 48 751 48 741 q 42 791 48 771 q 35 831 35 810 q 39 874 35 849 q 53 922 43 899 q 79 961 63 945 q 119 977 95 977 q 153 974 136 977 q 187 970 170 970 q 227 973 207 970 q 266 977 246 977 q 291 972 279 977 q 317 968 303 968 q 331 971 325 968 q 344 975 336 975 q 360 971 352 975 q 376 968 368 968 q 390 970 383 968 q 403 972 396 972 q 423 969 413 972 q 442 966 433 966 l 524 977 q 561 979 543 978 q 598 981 579 981 q 663 976 631 981 q 728 963 695 970 l 728 962 q 760 939 750 957 q 772 899 769 922 q 774 852 775 876 q 775 812 774 829 q 780 760 777 786 q 783 708 783 734 z "},"U":{"ha":863,"x_min":34,"x_max":848,"o":"m 848 917 q 842 903 848 909 q 828 893 836 897 q 810 886 819 889 q 795 880 802 882 q 786 873 790 877 q 779 866 783 870 q 771 860 775 863 q 760 855 766 857 q 744 853 751 853 q 731 852 737 853 q 720 847 725 851 q 711 833 715 843 q 705 812 707 824 q 700 789 703 800 q 690 771 696 779 q 670 764 684 764 q 675 748 670 756 q 686 733 680 741 q 696 718 692 726 q 701 703 701 710 q 698 687 701 694 q 694 671 694 680 l 694 630 q 699 603 693 616 q 705 576 705 590 q 701 560 705 568 q 698 543 698 552 q 704 487 698 515 q 709 429 709 458 q 706 386 709 409 q 690 348 703 363 q 694 332 690 338 q 701 318 697 326 q 707 303 704 311 q 710 281 710 294 q 708 249 710 269 q 699 210 705 229 q 683 177 693 191 q 656 163 672 163 q 653 164 654 163 q 651 164 652 164 l 650 160 l 650 158 q 656 141 650 149 q 662 124 662 134 q 656 112 662 119 q 642 96 650 104 q 626 81 634 88 q 612 68 617 73 q 603 56 606 62 q 596 46 600 50 q 588 38 593 41 q 573 33 583 35 q 542 23 555 30 q 515 9 528 16 q 488 -3 503 2 q 452 -8 473 -8 q 429 -5 440 -8 q 408 1 418 -3 q 386 7 397 5 q 363 10 374 10 q 346 9 355 10 q 329 8 338 8 q 318 9 322 8 q 310 14 315 9 q 299 22 307 18 q 284 28 292 25 q 268 34 276 31 q 254 37 260 36 q 231 51 242 41 q 211 74 220 61 q 194 102 201 87 q 183 127 187 116 q 172 175 175 151 q 166 223 168 199 q 162 271 164 247 q 153 319 159 295 q 148 338 151 328 q 144 358 144 348 q 146 373 144 366 q 149 387 147 380 q 157 445 154 416 q 160 503 160 474 q 156 580 160 542 q 153 656 153 618 q 153 671 153 664 q 153 685 153 677 q 159 711 155 699 q 163 738 163 724 q 162 747 163 743 q 159 755 161 751 q 150 788 151 773 q 147 821 149 802 q 135 863 144 850 q 112 880 126 875 q 82 889 98 886 q 47 907 65 893 q 38 915 41 910 q 34 926 34 920 q 46 946 34 937 q 74 960 58 955 q 106 969 90 966 q 132 972 123 972 q 152 969 142 972 q 173 966 162 966 q 215 971 195 966 q 257 977 235 977 q 284 973 266 977 q 321 963 302 970 q 353 948 339 957 q 367 927 367 939 q 358 899 367 912 q 335 873 349 886 q 306 848 321 861 q 276 821 290 836 q 253 787 262 806 q 244 745 244 768 q 245 718 244 732 q 246 690 246 704 q 241 637 246 663 q 236 583 236 610 q 242 542 236 560 q 249 514 249 524 q 247 494 249 503 q 244 475 244 485 q 244 466 244 470 q 245 457 245 462 q 242 439 245 446 q 235 427 239 433 q 229 417 232 422 q 225 406 225 412 q 232 411 229 409 q 239 413 235 413 q 247 410 244 413 q 251 402 250 406 q 254 392 253 397 q 254 384 254 387 q 259 349 254 366 q 264 315 264 332 q 262 283 264 299 q 259 251 259 267 q 261 222 259 235 q 279 201 264 209 q 286 193 282 199 q 293 178 289 186 q 300 162 296 170 q 309 151 304 155 q 326 139 317 144 q 346 130 336 134 q 365 120 355 125 q 381 106 374 115 q 397 93 387 99 q 415 81 406 87 q 431 67 425 75 q 438 49 438 60 q 441 63 438 58 q 441 57 441 61 q 439 49 441 52 q 444 56 441 51 q 449 65 446 60 q 454 73 452 70 q 460 77 457 77 q 469 73 465 77 q 473 64 473 70 q 471 52 473 58 q 467 39 468 45 q 481 42 474 39 q 494 50 488 45 q 504 61 500 54 q 508 75 508 67 q 503 86 508 83 q 490 88 498 88 q 480 87 485 88 q 469 87 475 87 l 467 87 q 477 104 471 97 q 493 115 484 111 q 511 122 502 119 q 530 129 521 125 q 553 143 544 134 q 569 163 562 153 q 584 183 576 173 q 602 203 591 194 q 603 212 603 208 q 603 220 603 216 q 602 248 603 234 q 601 276 601 262 q 605 307 601 292 q 610 338 610 323 q 606 365 610 352 q 603 391 603 377 q 606 415 603 403 q 610 439 610 427 q 606 477 610 458 q 603 515 603 496 q 607 565 603 541 q 612 614 612 589 q 606 678 612 647 q 600 742 600 709 q 601 754 600 747 q 603 770 601 762 q 608 784 604 778 q 618 789 611 789 q 603 798 612 790 q 585 815 593 806 q 570 835 576 825 q 564 850 564 845 q 557 849 560 850 q 551 849 554 849 q 533 852 541 849 q 516 860 524 856 q 499 867 508 863 q 480 870 490 870 l 477 870 q 468 903 474 887 q 463 936 463 918 q 470 958 463 949 q 488 970 477 966 q 511 976 498 975 q 534 977 524 977 q 571 975 553 977 q 608 973 589 973 q 635 980 623 973 q 661 986 647 986 q 676 983 668 986 q 693 976 684 980 q 710 968 701 972 q 727 963 719 964 q 754 961 740 961 q 783 960 769 961 q 810 955 798 958 q 834 941 823 951 q 844 930 840 937 q 848 917 848 924 z "},"V":{"ha":849,"x_min":-1,"x_max":852,"o":"m 852 945 q 844 907 852 921 q 824 885 836 893 q 795 871 811 876 q 762 860 779 866 q 729 845 745 854 q 700 820 713 836 q 682 787 688 805 q 671 750 676 769 q 661 712 667 731 q 643 677 655 694 q 637 668 640 673 q 635 658 635 664 q 637 642 635 650 q 639 627 639 634 q 636 603 639 620 q 630 566 634 587 q 620 523 626 545 q 608 481 614 500 q 594 450 602 463 q 581 435 587 437 q 591 368 591 404 q 590 339 591 347 q 585 328 588 331 q 578 323 582 326 q 571 309 574 320 q 552 258 563 283 q 542 206 542 233 q 539 186 542 199 q 530 159 536 173 q 518 136 525 146 q 503 125 511 125 q 507 113 504 119 q 514 101 510 106 q 520 89 517 95 q 524 75 524 82 q 520 63 524 73 q 510 41 516 53 q 496 17 504 28 q 481 1 489 5 q 468 -6 475 -3 q 452 -13 460 -10 q 435 -18 444 -16 q 420 -20 427 -20 q 406 -17 416 -20 q 384 -8 395 -13 q 361 2 372 -3 q 349 9 351 7 q 337 32 343 15 q 326 68 332 48 q 315 107 320 88 q 307 135 311 125 q 290 182 298 159 q 275 229 282 205 q 269 251 272 240 q 262 271 267 261 l 262 275 q 266 294 262 285 q 269 313 269 303 q 266 328 269 320 q 251 380 258 354 q 237 431 244 406 q 228 456 233 444 q 216 483 222 469 q 207 509 211 496 q 203 534 203 522 q 214 570 203 554 q 201 603 208 587 q 190 635 195 618 q 181 684 183 661 q 176 731 179 708 q 166 777 173 754 q 144 823 160 800 q 125 845 134 838 q 106 856 116 852 q 85 859 97 859 q 58 863 74 860 q 17 881 35 867 q -1 920 -1 895 q 7 941 -1 933 q 29 954 16 949 q 60 961 43 959 q 93 965 77 964 q 123 968 109 967 q 146 973 138 970 q 166 979 156 977 q 187 982 176 982 q 215 980 201 982 q 243 977 229 978 q 274 974 259 975 q 303 968 290 972 q 326 953 316 963 q 342 925 336 943 q 345 906 345 915 q 337 882 345 892 q 318 865 330 872 q 294 852 307 858 q 271 841 281 846 l 272 835 q 268 811 272 823 q 252 793 264 800 q 267 773 264 785 q 270 748 269 762 q 271 721 270 734 q 281 696 273 707 q 296 666 293 682 q 299 633 299 650 l 299 608 q 300 586 299 597 q 305 564 301 574 q 310 552 307 557 q 313 539 313 546 q 309 529 313 533 q 300 522 306 525 q 315 485 308 505 q 339 454 323 466 q 338 447 338 451 q 338 439 338 443 q 340 419 338 430 q 343 397 341 408 q 349 376 346 387 q 357 358 353 366 l 359 357 l 359 354 q 354 338 359 345 q 349 322 349 331 q 353 307 349 315 q 363 290 357 298 q 376 274 370 281 q 387 261 383 266 l 391 261 q 416 268 406 261 q 433 284 427 274 q 443 307 439 294 q 450 333 447 320 q 456 359 452 340 q 465 400 459 379 q 477 438 470 421 q 492 454 484 454 l 494 454 q 489 466 492 460 q 482 477 486 471 q 475 488 478 483 q 473 500 473 494 q 474 510 473 505 q 479 520 476 515 q 492 550 487 538 q 500 575 497 563 q 505 600 503 587 q 509 632 507 613 q 515 653 510 637 q 528 685 521 668 q 542 716 535 701 q 552 735 549 730 l 552 734 q 553 740 553 738 q 553 746 553 743 q 552 754 553 750 q 550 762 550 758 q 556 779 550 772 q 562 795 562 786 q 557 814 562 805 q 544 831 551 823 q 528 847 536 840 q 513 861 519 854 l 494 861 q 483 880 486 869 q 471 899 479 890 q 463 908 467 903 q 459 919 459 913 q 463 936 459 926 q 469 953 467 945 q 474 969 471 964 q 480 977 476 975 q 489 980 484 979 q 505 985 495 981 q 527 989 516 989 q 539 988 533 989 q 550 987 545 987 q 568 990 557 987 q 592 997 579 994 q 618 1004 604 1001 q 647 1007 633 1007 q 678 1002 663 1007 q 709 996 693 996 q 721 997 715 996 q 732 998 726 998 q 750 995 741 998 q 766 988 758 992 q 787 980 777 983 q 809 974 798 977 q 831 967 821 971 q 852 957 842 963 l 852 945 l 852 945 z "},"W":{"ha":894,"x_min":12,"x_max":852,"o":"m 852 920 q 852 914 852 916 q 852 908 852 911 q 850 910 850 909 q 838 879 847 892 q 816 853 829 865 q 794 831 802 840 q 783 813 787 823 q 777 793 779 804 q 770 764 774 782 q 753 689 762 726 q 741 614 743 653 q 737 577 740 595 q 730 541 734 559 q 728 529 728 535 q 731 512 728 519 q 735 495 735 504 q 731 455 735 475 q 721 415 726 435 q 710 375 715 395 q 706 335 706 355 q 711 301 706 317 q 716 267 716 285 q 712 199 716 233 q 694 134 707 166 q 687 108 688 121 q 684 81 686 94 q 680 55 683 68 q 668 31 677 42 q 661 20 664 26 q 653 11 657 15 q 645 3 650 6 q 632 1 640 1 q 601 6 616 1 q 571 17 585 12 q 554 30 562 20 q 542 51 547 39 q 533 75 537 63 q 528 96 530 87 q 524 118 524 107 q 523 141 524 130 q 522 163 523 152 q 517 185 522 174 q 510 216 511 201 q 508 248 508 232 q 509 282 508 265 q 510 315 510 298 q 507 349 510 332 q 499 383 503 366 q 490 416 494 399 q 485 450 486 433 q 477 483 484 467 q 471 517 471 499 q 473 529 471 524 q 477 538 475 534 q 481 546 479 542 q 484 553 484 549 q 479 577 484 564 q 469 603 475 590 q 459 627 464 615 q 455 650 455 640 q 431 637 439 647 q 420 613 423 627 q 415 584 416 600 q 411 553 414 568 q 400 528 408 539 q 378 514 393 517 q 386 505 381 510 q 396 494 391 500 q 404 483 400 488 q 407 471 407 477 q 404 461 407 465 q 398 456 401 458 q 392 449 395 454 q 389 436 389 445 q 392 397 389 416 q 395 357 395 377 q 388 316 395 336 q 380 275 380 296 q 384 261 380 266 q 388 249 388 256 q 385 234 388 241 q 378 218 382 226 q 371 203 374 211 q 368 186 368 195 q 373 161 368 173 q 378 136 378 149 q 372 96 378 117 q 354 55 366 74 q 327 24 343 37 q 290 11 311 11 q 263 17 276 11 q 240 32 250 22 q 223 54 230 41 q 217 81 217 67 q 220 113 217 97 q 223 145 223 129 q 221 163 223 154 q 215 180 218 172 q 208 197 212 189 q 203 214 205 205 q 201 236 201 225 q 200 258 200 247 q 200 277 200 268 q 201 296 201 287 q 197 340 201 320 q 188 377 193 359 q 179 412 183 395 q 175 450 175 430 q 170 480 175 465 q 165 510 165 494 q 169 524 165 517 q 172 537 172 530 q 168 554 172 545 q 158 572 163 563 q 148 591 153 582 q 144 611 144 601 q 147 624 144 618 q 155 635 151 629 q 163 647 159 641 q 166 662 166 653 l 166 675 q 168 688 166 682 q 175 698 170 694 q 196 684 191 694 q 202 661 201 673 q 204 635 203 648 q 212 613 205 622 q 221 591 216 608 q 229 556 225 575 q 235 519 232 537 q 239 493 238 502 q 246 467 241 479 q 262 446 251 455 q 257 413 257 431 q 256 380 256 396 q 257 362 256 374 q 259 339 257 351 q 267 320 262 328 q 281 311 272 311 q 310 327 302 311 q 319 359 319 342 q 316 388 319 374 q 313 416 313 402 q 320 445 313 433 q 334 471 326 458 q 348 514 345 490 q 351 564 351 538 q 350 585 351 574 q 350 605 350 595 q 350 628 350 616 q 353 652 351 640 q 359 676 355 664 q 367 700 363 688 q 374 724 371 712 q 377 749 377 736 q 375 769 377 759 q 373 789 373 779 q 376 803 373 796 q 378 818 378 810 q 368 847 378 833 q 343 872 358 861 q 310 888 328 882 q 279 895 293 895 q 255 888 267 895 q 237 880 245 882 q 220 876 228 878 q 204 869 212 873 q 189 855 196 865 q 183 846 186 852 q 176 833 179 840 q 170 821 172 827 q 168 810 168 814 q 172 804 168 807 q 182 797 176 801 q 192 787 188 793 q 197 773 197 782 q 195 763 197 769 q 192 750 194 756 q 185 739 189 743 q 177 734 182 734 q 159 745 168 734 q 142 772 150 757 q 127 802 134 787 q 117 823 121 817 q 104 840 111 834 q 92 847 98 845 q 77 850 85 849 q 58 852 69 850 q 44 857 52 854 q 29 865 36 860 q 17 876 22 869 q 12 890 12 882 q 20 909 12 901 q 40 923 28 917 q 64 931 52 928 q 85 934 77 934 q 105 930 96 934 q 124 926 115 926 q 149 932 137 926 q 176 939 161 939 q 199 936 188 939 q 222 929 210 932 q 245 923 233 926 q 269 920 256 920 q 294 925 282 920 q 317 936 306 930 q 340 947 328 942 q 366 952 352 952 q 420 946 393 952 q 474 939 446 939 q 487 951 479 947 q 503 956 494 956 q 525 951 514 956 q 548 941 536 947 q 573 930 560 935 q 600 926 586 926 q 623 929 612 926 q 645 938 634 933 q 669 946 656 943 q 695 950 681 950 q 741 953 718 950 q 787 956 764 956 q 820 952 804 956 q 851 939 837 949 q 852 930 852 935 q 852 920 852 925 m 694 811 q 684 844 694 829 q 656 869 673 859 q 619 886 639 880 q 582 892 600 892 q 556 883 568 892 q 532 866 544 873 q 511 839 518 857 q 505 805 505 821 q 510 783 505 793 q 522 766 515 774 q 534 750 529 758 q 540 734 540 743 q 537 724 540 729 q 533 713 535 718 q 528 702 530 707 q 526 689 526 696 q 530 664 526 677 q 541 638 535 652 q 551 608 547 624 q 556 573 556 592 q 555 556 556 564 q 554 539 554 548 q 558 533 554 535 q 567 528 562 531 q 575 517 571 524 q 579 496 579 510 q 575 469 579 482 q 571 442 571 456 l 571 437 q 583 422 578 430 q 588 404 588 415 q 585 387 588 395 q 581 369 583 378 l 595 369 q 620 375 611 369 q 629 399 629 381 q 628 416 629 408 q 627 433 627 425 q 630 449 627 441 q 636 465 633 456 q 644 480 640 473 q 650 496 648 488 q 660 545 657 520 q 665 595 662 570 q 675 642 669 618 q 681 689 681 665 q 677 713 681 701 q 673 736 673 724 q 676 755 673 746 q 684 773 680 764 q 691 792 688 783 q 694 811 694 801 z "},"X":{"ha":808,"x_min":5,"x_max":805,"o":"m 805 87 q 798 55 802 71 q 787 25 794 39 q 769 11 781 16 q 742 3 756 5 q 712 0 727 0 q 688 -1 697 -1 q 607 4 647 -1 q 526 11 566 8 q 496 13 510 12 q 471 19 482 14 q 453 34 460 24 q 447 64 447 45 q 455 111 447 95 q 473 137 463 127 q 492 154 484 146 q 500 174 500 161 q 493 199 500 188 q 479 222 486 210 q 462 259 468 239 q 449 298 456 280 q 428 329 441 317 q 388 341 414 341 q 369 336 374 341 q 363 323 365 331 q 360 307 362 315 q 350 292 359 298 q 327 268 338 283 q 308 235 316 252 q 295 198 300 217 q 290 165 290 180 q 299 141 290 153 q 319 119 308 130 q 338 94 330 107 q 347 65 347 81 q 346 55 347 62 q 339 47 345 47 q 333 50 336 47 q 326 52 330 52 q 322 49 323 52 q 320 43 320 46 q 323 41 320 41 l 325 41 q 330 40 328 41 q 332 34 332 39 q 326 21 332 26 q 311 14 319 16 q 294 11 302 12 q 279 11 285 11 q 253 12 266 11 q 227 14 241 14 q 154 11 191 14 q 79 7 117 7 q 56 8 69 7 q 32 13 43 9 q 13 24 20 16 q 5 46 5 32 q 13 72 5 60 q 31 93 21 84 q 58 109 43 103 q 87 119 72 115 q 116 130 102 124 q 143 145 131 135 q 173 179 161 159 q 194 219 184 198 q 214 260 204 239 q 240 298 224 281 q 250 312 245 303 q 258 331 254 321 q 263 351 261 341 q 265 368 265 361 q 270 378 265 374 q 279 385 275 382 q 298 404 292 395 q 310 428 304 413 q 327 469 317 448 q 338 511 338 489 q 334 533 338 519 q 325 562 330 547 q 312 589 319 576 q 299 608 305 602 q 289 618 294 614 q 281 624 284 621 q 275 632 277 627 q 273 648 273 637 q 270 667 273 659 q 261 684 267 676 q 249 699 256 692 q 237 715 243 707 q 223 742 229 728 q 212 772 217 757 q 200 801 207 787 q 184 827 194 815 q 163 850 172 842 q 146 864 155 859 q 126 871 138 869 q 95 873 114 873 q 73 878 86 873 q 46 891 59 883 q 25 909 34 899 q 16 929 16 919 q 25 943 16 939 q 46 950 34 948 q 71 953 58 953 q 89 954 83 954 q 130 957 109 956 q 170 959 150 959 q 197 958 184 959 q 224 956 210 956 q 270 958 248 956 q 303 956 291 960 q 321 943 315 951 q 329 929 328 936 q 331 919 331 922 q 322 900 331 909 q 303 884 314 892 q 284 867 293 876 q 273 850 275 859 q 308 766 288 806 q 359 688 328 725 q 366 680 361 685 q 374 671 370 675 q 384 664 378 667 q 393 661 389 661 q 401 665 395 661 q 413 675 406 669 q 428 687 420 682 q 442 696 436 693 q 459 715 452 700 q 470 748 465 730 q 480 784 475 766 q 491 812 485 802 q 504 830 496 819 q 511 851 511 842 q 504 866 511 861 q 488 877 496 871 q 471 891 479 882 q 464 915 464 899 q 472 940 464 930 q 494 954 479 950 q 541 962 517 958 q 587 965 564 965 q 610 961 599 965 q 632 957 621 957 q 656 962 645 957 q 682 968 668 968 q 708 966 694 968 q 733 960 721 964 q 747 954 739 958 q 763 943 755 949 q 775 930 770 937 q 780 916 780 923 q 767 898 780 905 q 737 885 754 890 q 703 876 720 880 q 679 870 686 872 q 630 845 650 862 q 595 807 610 829 q 570 761 581 786 q 550 711 559 736 q 526 659 540 685 q 498 607 511 633 q 476 553 486 581 q 467 497 467 526 q 475 452 467 471 q 491 418 482 433 q 507 390 500 403 q 515 362 515 376 q 520 353 515 359 q 532 341 525 347 q 545 329 538 335 q 553 319 551 323 q 576 272 566 297 q 597 222 586 246 q 625 178 609 199 q 666 146 641 158 q 690 137 677 140 q 715 133 703 135 q 741 130 728 132 q 766 125 754 129 q 785 120 778 124 q 796 111 792 117 q 802 99 800 106 q 805 87 804 93 z "},"Y":{"ha":779,"x_min":-28,"x_max":781,"o":"m 352 883 q 338 877 344 881 q 326 868 332 873 q 312 857 319 863 q 295 841 305 850 q 293 814 293 827 q 296 791 293 800 q 304 777 300 783 q 311 766 308 771 q 315 754 315 761 q 323 723 315 739 q 344 691 332 707 q 369 662 356 676 q 391 638 382 648 l 393 638 q 407 644 399 638 q 422 657 415 649 q 435 673 430 665 q 440 688 440 682 q 445 701 440 695 q 456 712 450 707 q 469 723 463 718 q 479 734 475 728 l 479 764 q 487 771 483 768 q 493 779 490 774 q 497 788 496 783 q 498 802 498 793 q 498 812 498 808 q 498 822 498 817 q 507 837 503 829 q 517 850 512 844 q 518 871 524 865 q 501 879 512 877 q 477 881 490 881 q 456 884 464 882 l 448 885 q 429 890 439 886 q 412 909 419 894 q 407 938 404 926 q 418 960 410 951 q 439 974 427 968 q 462 982 452 979 q 497 991 479 987 q 532 996 514 996 q 572 992 552 996 q 612 988 592 988 q 655 992 634 988 q 699 996 677 996 q 726 994 713 996 q 749 987 739 992 q 767 972 760 982 q 778 947 774 962 q 779 922 781 932 q 779 907 777 913 q 754 872 770 883 q 720 857 738 861 q 682 849 701 852 q 648 837 663 846 q 624 809 633 828 q 614 754 614 790 q 594 738 604 748 q 575 715 584 727 q 558 690 566 703 q 546 667 550 677 q 554 659 553 665 q 545 639 549 650 q 536 618 542 628 q 528 607 532 611 q 520 599 524 604 q 514 588 516 595 q 511 567 511 581 q 510 555 511 561 q 503 545 509 549 q 475 510 486 531 q 459 466 465 490 q 451 419 453 443 q 449 374 449 395 q 455 338 449 356 q 460 302 460 321 q 458 266 460 284 q 455 229 455 247 q 456 211 455 219 q 458 193 458 202 q 457 178 458 184 q 457 167 457 172 q 460 154 457 159 q 475 135 464 149 q 483 124 478 132 q 492 117 488 117 q 515 120 504 117 q 537 126 526 123 q 560 133 549 130 q 583 136 571 136 q 591 135 585 136 q 605 132 597 134 q 621 128 613 130 q 633 125 629 126 q 638 116 636 121 q 643 106 641 112 q 657 101 649 104 q 671 93 665 98 q 683 83 678 89 q 688 68 688 77 q 685 48 688 58 q 682 28 682 39 q 666 15 682 20 q 630 8 650 10 q 591 5 610 5 q 565 4 572 4 q 474 7 519 4 q 382 11 429 11 q 325 6 353 11 q 269 1 297 1 q 238 5 253 1 q 208 9 223 9 q 173 3 190 9 q 139 -3 157 -3 q 121 0 129 -3 q 117 16 121 9 q 109 31 113 24 q 101 45 104 38 q 97 62 97 53 q 112 89 97 78 q 149 105 126 99 q 198 115 171 112 q 252 120 226 119 q 300 123 279 122 q 334 125 322 123 q 345 157 340 138 q 351 198 349 176 q 354 244 353 220 q 355 291 355 268 q 355 349 355 322 q 354 400 356 376 q 348 447 353 425 q 334 493 344 470 q 310 528 325 513 q 285 561 296 543 q 267 603 273 581 q 248 645 260 625 q 204 731 224 688 q 169 822 184 775 q 155 827 159 823 q 147 834 150 830 q 140 843 144 838 q 130 850 137 847 q 107 857 122 854 q 75 862 92 859 q 39 867 57 864 q 6 876 21 871 q -18 889 -9 881 q -28 911 -28 898 q -18 939 -28 925 q 1 964 -9 954 q 30 982 12 975 q 67 992 47 989 q 108 997 87 996 q 146 998 129 998 l 160 998 l 203 998 q 237 995 221 998 q 267 987 252 991 q 297 979 282 983 q 330 972 313 975 q 351 959 343 971 q 362 932 359 947 q 362 903 365 918 q 352 883 360 889 z "},"Z":{"ha":823,"x_min":69,"x_max":764,"o":"m 764 304 q 760 283 764 293 q 755 261 755 273 q 760 236 755 248 q 764 212 764 224 q 760 192 764 201 q 750 177 755 184 q 741 163 745 170 q 737 150 737 157 q 738 143 737 146 q 741 139 739 141 q 743 132 742 136 q 744 119 744 127 l 744 109 q 744 98 744 106 q 744 81 744 90 q 743 64 743 72 q 741 56 742 57 q 735 39 736 47 q 733 24 734 31 q 726 13 731 17 q 707 8 721 8 q 676 11 692 8 q 646 13 661 13 q 594 6 620 13 q 543 0 569 0 q 469 4 506 0 q 396 7 433 7 q 380 11 388 7 q 365 14 373 14 q 342 6 355 14 q 311 -1 329 -1 q 288 2 299 -1 q 267 9 277 5 q 245 16 256 13 q 222 20 234 20 q 170 15 195 20 q 117 9 144 9 q 94 27 100 15 q 87 56 87 40 q 90 88 87 71 q 92 119 92 105 q 89 137 91 132 q 85 144 87 142 q 81 147 83 146 q 79 155 79 149 q 69 184 71 168 q 79 188 77 184 q 82 198 82 191 q 90 224 82 209 q 110 256 97 239 q 138 289 122 273 q 170 319 154 306 q 202 340 186 332 q 229 348 217 348 l 233 348 q 235 357 235 353 q 230 366 235 363 q 221 369 226 368 q 211 372 216 370 q 207 378 207 373 q 213 396 207 387 q 228 416 219 406 q 246 433 237 425 q 262 445 256 441 l 262 450 q 270 481 262 465 q 288 513 277 498 q 312 542 299 528 q 336 566 325 556 q 347 584 342 573 q 356 605 352 594 q 365 625 360 616 q 378 638 370 634 q 393 646 389 644 q 399 651 397 648 q 402 658 401 653 q 407 674 403 663 q 415 685 411 684 q 421 685 418 685 q 425 690 423 686 q 427 711 427 694 q 428 727 427 721 q 432 739 429 734 q 439 749 435 744 q 450 762 444 754 q 463 778 456 768 q 475 798 469 787 q 484 819 480 808 q 488 839 488 829 q 476 863 488 857 q 450 871 465 869 q 420 875 435 873 q 398 889 406 878 q 383 884 390 889 q 369 874 376 880 q 356 865 362 869 q 342 861 349 861 q 325 866 334 861 q 302 871 316 871 q 278 870 290 871 q 254 869 267 869 q 232 872 243 869 q 210 875 221 875 q 188 867 196 875 q 175 847 180 859 q 170 822 171 836 q 168 798 168 808 q 170 766 168 783 q 171 734 171 750 q 170 710 171 726 q 166 680 170 695 q 157 653 163 665 q 138 642 150 642 q 130 643 134 642 q 122 647 125 645 q 100 670 104 657 q 96 699 96 683 q 97 708 96 703 q 97 719 97 713 q 96 735 97 722 q 93 763 94 748 q 90 791 92 779 q 88 804 88 803 q 85 802 87 803 q 81 800 83 800 q 78 804 79 800 q 76 812 77 807 q 75 821 75 817 q 75 827 75 825 q 77 857 75 842 q 79 887 79 871 q 83 906 79 899 q 94 920 87 913 q 106 932 100 926 q 117 947 113 939 q 125 949 121 949 q 141 946 134 949 q 157 943 149 943 q 164 947 160 943 q 176 956 169 951 q 192 964 182 960 q 214 968 201 968 q 264 960 239 968 q 315 953 289 953 q 350 962 335 953 q 383 976 367 972 q 418 979 399 979 q 454 978 436 979 q 490 976 472 976 q 544 980 517 976 q 597 983 570 983 q 618 983 608 983 q 640 979 629 982 q 648 975 646 977 q 651 969 650 972 q 653 963 652 966 q 659 957 654 960 q 673 951 665 952 q 689 944 681 949 q 702 925 696 939 q 707 882 707 911 q 700 861 707 873 q 688 841 692 849 q 679 818 682 829 q 670 794 676 806 q 662 781 667 788 q 651 768 656 774 q 643 753 646 761 q 639 739 639 746 q 639 736 639 737 q 640 734 640 736 q 615 725 625 734 q 600 702 606 715 q 588 675 593 688 q 577 657 583 663 q 557 640 567 648 q 533 629 547 632 q 522 604 529 616 q 507 580 515 592 q 493 556 500 568 q 485 532 487 545 q 480 522 484 524 q 474 518 477 519 q 468 514 471 517 q 466 498 466 510 q 463 491 466 493 q 454 489 459 490 q 445 488 450 488 q 437 484 439 487 q 438 477 437 480 q 438 471 438 475 q 434 452 438 461 q 422 436 429 444 q 406 424 415 429 q 388 416 397 418 l 389 408 q 382 390 389 397 q 369 374 376 382 q 356 357 362 366 q 350 336 350 349 q 347 326 350 330 q 338 317 343 321 q 329 310 334 313 q 320 304 323 307 q 307 290 311 296 q 302 279 304 284 q 298 267 300 273 q 292 252 296 260 q 281 237 288 245 q 268 220 274 229 q 257 202 262 211 q 252 186 252 193 q 257 173 252 178 q 267 164 261 168 q 281 158 273 160 q 294 156 288 156 q 319 159 307 156 q 344 162 331 162 q 420 157 382 162 q 496 152 458 152 q 533 155 511 152 q 577 165 555 158 q 614 185 598 172 q 629 216 629 197 q 629 222 629 219 q 629 229 629 225 q 630 255 629 240 q 634 281 632 269 q 637 301 635 294 q 639 306 639 309 q 635 314 639 311 q 631 322 631 317 q 635 339 631 330 q 639 355 639 348 q 638 365 639 359 q 638 376 638 370 q 641 388 638 384 q 647 393 644 391 q 654 397 651 395 q 656 404 656 399 q 653 414 656 409 q 649 425 649 418 q 657 435 649 433 q 671 437 665 437 q 691 432 686 437 q 700 422 697 428 q 704 408 702 416 q 711 395 705 401 q 721 388 715 390 q 733 386 727 387 q 745 383 739 385 q 755 377 751 382 q 753 360 753 370 q 759 332 753 346 q 764 304 764 319 m 144 771 q 138 780 144 777 q 127 783 133 783 q 126 777 126 780 q 126 770 126 774 q 127 762 126 767 q 132 757 128 757 q 140 762 137 757 q 144 771 144 766 m 679 136 q 676 143 679 140 q 669 146 673 146 q 660 138 662 146 q 659 125 659 131 q 671 127 664 125 q 679 136 679 129 z "},"a":{"ha":785,"x_min":53,"x_max":779,"o":"m 779 119 q 774 97 779 107 q 767 76 770 87 q 763 60 764 66 q 760 50 762 54 q 754 42 758 45 q 740 33 749 38 q 697 11 720 22 q 651 0 674 0 q 614 9 631 0 q 582 30 597 18 q 556 50 568 41 q 536 60 544 60 q 520 55 527 60 q 508 45 514 50 q 493 35 501 39 q 474 30 486 30 q 454 26 465 30 q 434 19 444 23 q 413 10 424 14 q 394 3 403 5 q 333 -7 363 -5 q 271 -8 302 -8 q 245 -8 262 -8 q 211 -4 229 -7 q 181 5 194 -1 q 168 24 168 12 q 168 29 168 27 q 157 20 163 24 q 144 17 151 17 q 117 32 133 17 q 87 66 102 47 q 63 105 73 86 q 53 134 53 125 q 57 148 53 142 q 62 161 62 154 q 59 179 62 171 q 57 197 57 188 q 62 223 57 210 q 73 251 66 237 q 87 278 80 265 q 101 303 95 292 q 120 325 108 317 q 146 339 132 333 q 173 351 159 345 q 197 368 186 357 q 223 356 207 356 q 256 361 240 356 q 290 366 273 366 q 316 363 303 366 q 342 361 328 361 q 364 365 357 361 q 382 378 371 368 q 409 392 393 387 q 444 400 426 397 q 480 407 462 404 q 512 417 498 410 q 535 434 526 423 q 544 465 544 446 q 531 511 544 487 q 499 555 519 535 q 456 588 479 575 q 410 601 432 601 q 405 600 408 601 q 400 600 402 600 q 363 596 384 597 q 326 590 343 595 q 296 573 308 585 q 283 538 283 561 q 286 511 283 524 q 288 484 288 498 q 278 450 288 464 q 253 429 269 437 q 220 417 238 420 q 184 414 201 414 q 149 420 164 414 q 125 445 134 425 q 109 476 117 459 q 100 509 100 492 q 107 544 100 528 q 121 575 113 559 q 137 605 130 590 q 149 638 145 621 q 162 644 153 641 q 180 649 170 646 q 199 654 190 652 q 214 659 208 656 q 246 670 231 663 q 277 682 261 676 q 309 691 293 687 q 342 696 325 695 l 363 696 q 422 691 392 696 q 482 675 453 686 q 537 649 511 665 q 584 611 564 633 q 609 573 599 595 q 624 526 618 551 q 632 477 630 502 q 635 431 635 452 q 633 375 635 403 q 631 319 631 348 q 634 266 631 292 q 642 212 637 239 q 649 158 646 185 q 652 105 652 132 q 656 85 653 89 q 663 81 659 81 q 687 91 677 81 q 703 111 696 100 q 720 132 711 122 q 742 141 728 141 q 754 140 748 141 q 766 137 761 140 q 775 131 772 135 q 779 119 779 126 m 555 288 q 555 302 555 292 q 553 322 555 312 q 549 341 552 333 q 540 349 546 349 q 536 348 538 349 q 533 347 534 347 q 489 324 507 333 q 453 309 471 315 q 414 301 435 303 q 363 299 394 299 q 341 296 359 299 q 301 288 323 292 q 260 279 279 283 q 237 273 241 275 q 224 267 228 270 q 218 259 220 263 q 214 251 216 255 q 207 241 212 246 q 192 233 200 236 q 178 222 184 229 q 159 196 168 212 q 150 164 150 179 q 159 132 150 146 q 184 107 169 117 q 220 90 200 97 q 259 78 239 82 q 298 72 279 74 q 330 70 317 70 q 369 72 347 70 q 414 80 391 75 q 456 94 436 85 q 487 116 475 102 q 494 126 492 121 q 498 135 496 130 q 504 144 500 139 q 513 154 507 149 q 537 182 529 167 q 550 215 546 198 q 555 250 554 232 q 555 288 555 269 z "},"b":{"ha":785,"x_min":-37,"x_max":732,"o":"m 732 349 q 726 328 732 337 q 707 319 721 319 q 720 294 711 306 q 728 269 728 283 q 725 250 728 259 q 718 232 722 241 q 710 214 714 223 q 704 197 706 205 q 689 158 701 183 q 662 107 677 134 q 633 58 648 81 q 608 26 618 35 q 592 16 600 19 q 576 12 584 14 q 559 10 568 11 q 542 5 550 9 q 511 -12 526 -2 q 478 -22 496 -22 q 465 -18 471 -22 q 453 -11 458 -15 q 441 -3 447 -7 q 427 0 435 0 q 405 -9 418 -5 q 377 -14 391 -12 q 348 -17 362 -16 q 324 -18 334 -18 q 267 -2 290 -18 q 224 39 244 13 q 214 34 220 37 q 203 26 209 31 q 193 19 198 22 q 186 16 189 16 l 184 25 l 180 30 q 170 26 174 30 q 162 18 165 22 q 154 9 158 13 q 142 5 149 5 q 128 8 135 5 q 121 20 121 10 q 124 33 121 27 q 127 46 127 39 q 125 63 127 55 q 123 79 123 71 q 125 96 123 88 q 127 113 127 104 q 124 134 127 123 q 117 154 121 144 q 111 173 114 163 q 108 194 108 183 q 114 221 108 208 q 120 248 120 234 q 119 256 120 253 q 116 261 117 259 q 113 268 115 264 q 112 279 112 271 q 112 295 112 286 q 113 307 113 303 q 111 328 113 317 q 109 349 109 338 q 113 384 109 366 q 118 419 118 401 q 114 467 118 443 q 111 515 111 490 q 113 532 111 524 q 118 550 115 541 q 124 567 121 559 q 126 585 126 576 q 123 621 126 604 q 118 657 121 639 q 112 693 115 675 q 110 729 110 711 q 110 750 110 740 q 111 772 111 761 q 100 820 111 804 q 72 843 89 836 q 37 852 56 850 q 1 856 18 853 q -26 868 -16 859 q -37 897 -37 876 q -28 926 -37 916 q -4 943 -18 937 q 26 950 9 949 q 56 952 42 952 q 125 946 91 952 q 195 938 160 939 q 205 930 203 936 q 207 917 208 925 q 203 899 205 909 q 201 877 201 888 q 200 832 201 854 q 199 791 199 810 q 200 770 199 785 q 201 735 200 754 q 204 694 202 715 q 211 655 207 673 q 220 627 214 638 q 233 615 225 615 q 246 618 240 615 q 257 627 252 622 q 268 636 262 631 q 279 644 273 642 q 310 653 293 650 q 344 656 328 656 q 356 660 350 656 q 368 667 362 663 q 381 674 374 671 q 396 677 388 677 q 415 674 406 677 q 432 667 424 671 q 450 660 441 663 q 469 655 459 656 q 496 652 482 654 q 523 645 510 650 q 534 637 530 642 q 543 629 537 632 q 557 623 551 624 q 571 622 564 623 q 585 619 578 621 q 602 609 593 616 q 622 592 612 601 q 642 574 633 584 q 658 554 651 565 q 668 530 665 543 q 682 473 673 505 q 707 420 692 442 q 725 387 718 405 q 732 349 732 368 m 662 321 q 655 334 661 330 q 641 342 648 339 q 630 349 634 345 q 629 359 625 352 q 633 366 630 364 q 640 368 636 368 q 628 396 638 380 q 613 426 618 412 q 608 445 609 436 q 604 461 606 454 q 596 475 601 469 q 580 488 591 481 q 567 496 572 493 q 558 502 562 498 q 551 509 554 505 q 544 524 548 514 q 534 539 540 534 q 521 545 528 543 q 506 549 514 547 q 488 553 497 550 q 446 567 466 562 q 401 573 425 573 q 323 559 355 573 q 271 520 292 545 q 240 459 251 494 q 227 383 230 425 q 221 351 225 367 q 214 318 218 334 q 206 286 210 302 q 203 254 203 270 q 203 243 203 246 q 210 235 204 240 q 223 206 221 221 q 225 177 224 191 q 231 152 227 163 q 253 136 236 141 q 268 129 263 132 q 277 120 273 125 q 283 110 280 115 q 292 97 286 104 q 321 102 306 100 q 350 106 336 103 q 358 92 350 98 q 378 84 367 87 q 402 80 390 81 q 420 79 414 79 q 444 80 431 79 q 469 85 457 81 q 491 95 481 88 q 508 113 502 101 q 532 138 518 130 q 560 152 546 146 q 586 167 574 158 q 604 196 597 176 q 619 244 611 220 q 627 295 627 269 q 626 312 627 304 q 621 329 624 321 q 637 319 629 325 q 655 313 646 313 q 660 315 659 313 q 662 321 662 317 z "},"c":{"ha":760,"x_min":55,"x_max":702,"o":"m 702 140 q 697 130 702 133 q 687 125 692 127 q 675 115 680 121 q 666 103 670 110 q 659 90 662 97 q 651 77 655 83 q 625 57 642 62 q 592 47 608 52 q 563 34 576 42 q 546 5 549 25 l 543 5 q 514 -1 527 5 q 487 -13 500 -6 q 460 -24 474 -19 q 432 -30 447 -30 q 417 -27 424 -30 q 402 -21 410 -24 q 388 -15 395 -18 q 373 -12 381 -12 q 352 -14 362 -12 q 332 -15 342 -15 q 314 -13 324 -15 q 295 -7 304 -12 q 280 3 286 -3 q 274 19 274 9 q 275 24 274 22 q 267 20 271 21 q 259 19 263 19 q 221 28 239 19 q 189 51 204 37 q 160 79 174 64 q 134 107 147 94 q 110 143 119 123 q 90 182 102 163 q 60 262 66 222 q 55 347 55 302 q 56 365 55 355 q 60 380 57 376 q 67 386 63 384 q 75 389 71 387 q 81 393 79 391 q 84 399 84 395 q 79 416 84 408 q 75 433 75 424 q 78 445 75 440 q 84 455 81 450 q 94 485 90 464 q 103 526 98 505 q 116 563 109 547 q 137 578 124 578 q 155 576 146 578 q 172 573 163 573 q 188 575 180 573 l 189 581 q 183 591 189 589 q 173 593 178 593 q 162 595 167 594 q 157 602 157 596 q 160 609 157 606 q 169 615 164 612 q 180 619 174 617 q 188 623 185 621 q 197 634 195 629 q 202 644 200 639 q 210 652 205 648 q 225 658 214 655 q 244 660 235 660 q 263 661 254 661 q 282 662 273 661 q 301 665 292 663 l 294 672 q 304 682 298 678 q 318 688 310 686 q 333 690 326 690 q 347 690 341 690 q 393 684 371 690 q 438 678 416 678 q 457 681 448 678 q 475 683 466 683 q 502 676 490 683 q 526 663 515 669 l 529 662 q 539 667 535 662 q 547 671 543 671 q 553 668 551 671 q 557 663 555 665 q 571 655 562 656 q 584 648 581 653 q 595 636 589 640 q 607 632 601 633 q 620 629 613 631 q 633 623 627 628 l 633 604 q 658 577 646 587 q 679 558 670 568 q 693 534 688 549 q 699 492 699 519 q 693 439 699 462 q 676 402 688 417 q 642 379 663 387 q 590 372 621 371 l 546 372 q 530 397 541 381 q 510 430 520 413 q 492 463 500 448 q 484 486 484 478 q 486 507 484 496 q 488 527 488 517 q 475 548 483 540 q 457 561 467 556 q 435 566 447 565 q 411 568 423 568 q 376 565 393 568 q 342 556 359 562 q 339 567 342 562 q 329 572 336 572 q 306 565 319 572 q 278 548 292 558 q 253 527 264 538 q 236 507 241 515 q 223 486 231 500 q 206 458 215 472 q 187 432 197 444 q 169 420 177 421 q 174 395 171 411 q 180 361 178 379 q 185 328 183 344 q 187 303 187 312 q 193 274 187 288 q 198 245 198 260 q 195 222 198 233 q 192 199 192 210 q 195 185 192 189 q 208 179 198 182 q 223 168 218 176 q 230 151 227 159 q 238 136 233 142 q 254 130 242 130 l 257 130 l 265 131 q 275 106 273 120 q 285 82 277 93 q 291 86 290 83 q 294 93 292 90 q 298 99 295 96 q 309 102 301 102 q 321 98 317 102 q 330 89 326 94 q 339 79 334 83 q 350 75 343 75 q 375 80 361 75 q 404 90 389 84 q 433 102 418 96 q 458 111 447 108 q 511 135 486 119 q 550 176 535 151 q 568 201 557 190 q 585 227 578 213 q 598 228 591 227 q 612 229 605 229 q 619 229 614 229 q 628 228 623 229 q 636 226 633 227 q 640 222 640 224 q 636 213 640 216 q 626 206 631 209 q 617 199 621 203 q 613 189 613 195 l 621 189 q 642 185 629 189 q 669 174 656 181 q 692 158 682 167 q 702 140 702 149 m 653 102 q 650 109 653 106 q 643 112 647 112 q 635 106 638 112 q 631 96 631 100 q 636 93 631 92 q 642 93 641 93 q 649 95 646 93 q 653 102 653 96 z "},"d":{"ha":838,"x_min":56,"x_max":829,"o":"m 829 29 q 824 12 829 20 q 810 3 820 3 q 796 4 802 3 q 783 6 790 6 q 771 2 772 6 q 770 -7 771 -2 q 760 -16 768 -12 q 724 -20 751 -20 q 693 -18 709 -20 q 663 -15 678 -15 q 637 -18 651 -15 q 626 -8 632 -12 q 613 -1 619 -5 q 604 8 608 3 q 600 24 600 14 q 590 32 600 32 q 584 31 587 32 q 577 31 581 31 q 571 32 574 31 q 569 37 569 34 q 570 39 569 39 q 548 30 555 39 q 532 12 541 21 q 519 2 526 5 q 505 -3 512 -1 q 490 -9 498 -5 q 475 -19 482 -12 q 454 -28 469 -25 q 424 -33 440 -31 q 393 -35 408 -35 q 369 -35 378 -35 q 336 -32 349 -35 q 314 -23 323 -28 q 293 -13 304 -18 q 265 -1 282 -7 q 221 19 247 4 q 172 54 195 34 q 132 96 149 73 q 116 140 116 119 q 112 159 116 149 q 101 178 107 169 q 87 196 94 187 q 77 214 81 205 q 60 268 64 239 q 56 325 56 296 q 60 375 56 351 q 71 423 64 399 q 83 469 77 446 q 95 517 90 492 q 104 544 98 535 q 118 560 111 553 q 135 573 126 567 q 154 591 144 579 q 159 599 158 595 q 161 605 160 603 q 165 609 162 608 q 177 610 168 610 q 185 613 182 610 q 191 621 189 616 q 196 631 194 626 q 203 639 199 636 q 213 643 207 642 q 226 645 219 644 q 239 646 233 646 q 251 649 245 647 q 274 660 265 655 q 292 668 283 665 q 311 674 300 672 q 340 676 322 676 q 386 670 363 676 q 431 658 408 665 q 475 645 453 651 q 522 640 498 640 q 552 648 541 640 q 569 669 563 656 q 576 697 574 682 q 578 728 578 713 q 574 780 578 754 q 570 832 571 806 l 564 829 q 551 833 557 829 q 541 841 546 837 q 531 849 536 846 q 519 853 526 853 q 509 849 511 853 q 503 842 507 846 q 487 841 495 842 q 472 841 479 841 l 442 841 q 421 847 433 841 q 398 862 409 852 q 380 881 387 871 q 373 902 373 892 q 379 921 373 911 q 393 939 385 930 q 412 952 401 947 q 431 957 422 957 q 448 952 440 957 q 464 948 455 948 q 493 953 479 948 q 522 958 507 958 q 552 952 538 958 q 581 947 566 947 q 605 948 593 947 q 628 949 616 949 q 653 947 640 949 q 676 939 665 945 l 676 935 q 679 916 676 925 q 684 898 681 907 q 689 880 687 888 q 692 861 692 871 q 686 838 692 849 q 680 814 680 827 q 686 767 680 790 q 691 720 691 743 q 690 601 691 660 q 690 481 690 541 q 686 360 690 420 q 682 239 682 300 q 684 188 682 216 q 694 135 686 160 q 721 94 703 111 q 768 77 738 77 q 780 78 774 77 q 792 79 786 79 q 808 74 801 79 q 819 62 814 69 q 826 45 824 54 q 829 29 829 37 m 583 366 q 578 419 583 391 q 563 472 574 448 q 532 514 551 497 q 484 532 513 531 q 469 538 477 533 q 452 548 460 543 q 434 558 443 553 q 419 562 426 562 q 408 560 413 562 q 397 554 402 557 q 386 549 391 551 q 374 547 380 547 q 352 548 362 547 q 330 549 341 549 q 268 529 296 549 q 221 478 241 509 q 191 413 201 448 q 180 349 180 378 q 181 325 180 337 q 183 300 183 313 q 179 287 183 292 q 169 277 174 282 q 158 266 163 272 q 154 252 154 260 l 159 252 q 187 246 177 252 q 202 229 197 239 q 210 205 207 218 q 217 177 213 191 q 229 151 221 163 q 252 127 237 138 q 276 111 262 120 q 303 95 289 102 q 333 82 318 87 q 361 77 347 77 q 404 84 382 77 q 446 90 425 90 q 464 88 454 90 q 500 135 479 113 q 551 165 521 157 l 550 180 q 555 224 550 203 q 566 268 560 245 q 577 314 572 290 q 583 366 583 338 z "},"e":{"ha":755,"x_min":56,"x_max":696,"o":"m 696 142 q 690 111 696 123 q 675 87 684 98 q 654 68 666 77 q 630 50 642 60 q 613 37 621 41 q 598 31 606 33 q 584 25 591 28 q 566 18 576 22 q 543 5 552 11 q 525 -5 534 -1 q 505 -13 515 -10 q 477 -18 494 -16 q 423 -26 450 -22 q 368 -31 395 -31 q 357 -29 363 -31 q 344 -24 351 -26 q 327 -19 336 -22 q 305 -17 318 -17 q 283 -13 292 -17 q 269 -3 275 -9 q 256 8 262 2 q 238 20 249 15 q 169 64 197 38 q 120 121 140 90 q 86 191 100 153 q 63 269 73 228 q 56 326 56 297 q 73 395 56 363 q 66 431 66 414 q 74 470 66 444 q 93 521 81 495 q 119 567 105 547 q 145 593 133 588 q 158 598 155 596 q 162 612 162 601 q 169 625 162 620 q 184 634 175 631 q 202 640 193 637 q 218 646 212 643 q 266 666 243 658 q 311 681 288 675 q 358 689 334 686 q 410 692 382 692 q 439 688 425 692 q 467 677 454 684 q 493 663 480 671 q 518 648 506 655 l 517 648 q 537 642 528 646 q 556 636 546 637 q 581 614 566 625 q 611 592 596 604 q 636 567 625 581 q 646 537 646 554 q 646 532 646 534 q 645 526 646 529 l 648 529 q 653 522 650 527 q 657 512 655 517 q 661 500 659 506 q 663 491 662 494 q 677 477 668 482 q 692 462 686 471 q 685 444 685 455 q 690 421 685 433 q 694 399 694 410 q 693 373 694 385 q 692 347 692 360 q 684 331 692 336 q 667 321 676 326 q 650 313 658 317 q 643 302 643 309 q 636 297 643 296 q 626 297 630 297 q 567 304 596 297 q 508 312 537 312 q 445 308 476 312 q 382 303 414 303 q 335 304 358 303 q 288 306 311 306 q 264 303 281 306 q 229 297 248 301 q 193 289 210 294 q 170 279 176 283 q 169 269 169 275 q 188 203 169 237 q 237 142 206 170 q 305 96 267 114 q 382 77 343 77 q 426 76 404 77 q 469 66 448 74 q 503 86 488 75 q 532 111 518 98 q 560 137 547 123 q 588 164 574 151 q 601 169 591 167 q 624 173 612 172 q 647 176 636 175 q 663 177 659 177 q 692 172 678 177 q 696 142 696 157 m 594 417 q 591 437 594 427 q 585 456 587 446 q 582 493 582 475 q 576 530 582 511 l 576 530 q 573 522 576 526 q 566 518 570 518 q 550 522 557 518 q 537 532 543 526 q 491 554 511 544 q 449 572 470 564 q 405 584 429 580 q 351 589 382 589 q 346 588 349 589 q 342 586 344 588 l 345 578 l 340 577 q 310 571 321 574 q 288 562 298 568 q 270 549 279 557 q 246 529 260 541 q 232 520 239 523 q 216 514 224 517 q 201 509 208 512 q 189 500 194 507 q 175 468 184 484 q 166 434 166 452 q 175 416 166 424 q 196 403 183 408 q 225 393 210 397 q 257 387 241 389 q 286 384 273 385 q 307 383 299 383 q 357 388 332 383 q 408 393 382 393 q 461 391 435 393 q 514 389 488 389 q 534 389 521 389 q 561 393 548 390 q 584 402 574 396 q 594 417 594 408 z "},"f":{"ha":657,"x_min":28,"x_max":772,"o":"m 772 754 l 769 753 q 756 758 762 753 q 744 764 751 762 l 743 761 q 747 751 743 755 q 754 742 750 746 q 762 733 758 738 q 765 725 765 729 q 757 718 765 719 q 745 716 749 718 q 732 706 737 714 q 721 689 728 699 q 704 673 715 680 q 675 666 694 666 q 627 677 651 666 q 588 708 600 690 q 572 747 576 727 q 567 788 568 768 q 562 824 566 808 q 547 850 558 840 q 509 860 535 860 q 457 854 484 860 q 407 835 430 848 q 370 801 385 822 q 355 751 355 781 q 357 702 355 720 q 369 677 360 685 q 395 668 378 669 q 440 667 412 667 q 455 660 446 667 q 475 641 465 652 q 492 620 485 631 q 499 602 499 609 q 486 578 499 587 q 454 566 473 570 q 417 561 436 562 q 387 560 398 560 q 369 555 376 560 q 358 543 361 551 q 354 526 355 536 q 353 507 353 517 q 358 417 353 462 q 363 326 363 372 q 356 282 363 299 q 349 254 349 265 q 352 239 349 247 q 355 224 355 232 q 350 196 355 210 q 346 167 346 182 q 350 146 346 155 q 359 130 354 138 q 370 115 365 122 q 376 97 374 107 q 413 104 395 100 q 450 109 431 109 q 483 108 462 109 q 525 101 505 106 q 561 86 546 96 q 576 60 576 77 q 573 33 576 45 q 562 9 569 20 q 543 -9 554 -2 q 518 -18 532 -16 q 482 -28 500 -21 q 446 -36 465 -36 q 424 -32 435 -36 q 402 -23 414 -28 q 380 -15 391 -19 q 355 -11 368 -11 q 295 -11 325 -11 q 235 -14 266 -12 q 202 -20 218 -16 q 169 -29 186 -24 q 136 -37 153 -33 q 102 -40 119 -40 q 84 -37 94 -40 q 63 -30 74 -35 q 44 -20 53 -25 q 28 -9 35 -15 l 28 22 q 37 56 28 44 q 62 74 47 68 q 97 81 77 79 q 137 83 117 82 q 178 85 158 83 q 213 94 197 87 q 237 114 228 100 q 247 153 247 128 q 245 173 247 163 q 241 193 243 183 l 242 193 q 249 211 246 199 q 252 237 251 223 q 252 263 252 250 q 252 283 252 275 q 252 324 252 302 q 245 363 251 346 q 242 373 244 368 q 241 382 241 377 q 246 413 241 398 q 252 444 252 429 q 251 453 252 450 q 248 459 250 456 q 245 464 246 461 q 243 470 243 466 q 251 486 248 477 q 254 503 254 494 q 250 517 254 511 q 243 528 247 523 q 235 538 239 533 q 231 551 231 544 q 207 551 222 551 q 174 553 192 551 q 139 557 157 554 q 107 567 121 561 q 84 582 93 572 q 75 604 75 591 q 82 622 75 614 q 101 637 90 631 q 125 646 113 643 q 146 650 138 650 q 166 649 156 650 q 185 648 176 648 q 210 650 195 648 q 233 657 224 651 q 237 668 235 659 q 242 687 240 676 q 245 707 244 697 q 247 720 247 717 q 244 750 247 736 q 242 780 242 764 q 248 821 242 802 q 269 857 253 840 q 306 893 288 876 q 341 926 323 911 q 382 950 360 940 q 433 964 404 960 q 474 970 454 967 q 516 974 495 974 q 547 971 528 974 q 588 962 566 968 q 633 948 610 956 q 673 929 655 940 q 703 906 692 919 q 715 880 715 894 q 746 865 736 879 q 760 833 755 852 q 765 793 764 814 q 771 758 766 772 l 772 754 z "},"g":{"ha":810,"x_min":59,"x_max":780,"o":"m 671 -92 q 661 -62 671 -73 q 636 -45 651 -51 q 603 -36 621 -39 q 572 -28 586 -33 l 571 -28 q 496 -8 534 -17 q 420 0 459 0 q 416 1 419 0 q 401 9 412 2 q 391 7 395 9 q 384 1 387 4 q 376 -5 380 -3 q 367 -8 372 -8 q 353 -5 359 -8 q 338 -2 346 -2 q 309 -6 323 -2 q 281 -16 295 -11 q 253 -25 267 -21 q 224 -30 239 -30 q 203 -38 215 -30 q 180 -58 191 -46 q 162 -82 170 -69 q 155 -103 155 -94 q 160 -142 155 -124 q 178 -172 166 -159 q 206 -193 189 -185 q 245 -200 222 -200 q 259 -201 252 -200 q 273 -208 265 -202 q 325 -229 296 -226 q 382 -232 354 -232 q 416 -224 400 -232 q 449 -213 432 -217 q 483 -210 466 -210 q 517 -203 500 -210 q 535 -192 528 -197 q 556 -187 543 -187 q 578 -189 568 -187 q 600 -191 589 -191 q 622 -186 612 -191 q 638 -173 631 -181 q 649 -154 645 -164 q 652 -132 652 -143 l 652 -125 q 668 -114 665 -125 q 671 -92 671 -102 m 780 -115 q 765 -160 780 -136 q 731 -205 751 -184 q 691 -238 711 -225 q 661 -252 671 -252 q 627 -257 644 -252 q 595 -269 610 -262 q 550 -284 580 -277 q 488 -297 521 -292 q 424 -307 454 -303 q 376 -311 393 -311 q 335 -309 357 -311 q 290 -305 313 -308 q 247 -297 268 -302 q 207 -284 225 -292 q 192 -276 197 -280 q 180 -269 186 -272 q 168 -263 175 -265 q 149 -261 161 -261 q 126 -256 135 -261 q 112 -243 117 -251 q 101 -225 106 -235 q 89 -205 96 -215 q 66 -168 74 -186 q 59 -125 59 -150 q 73 -58 59 -90 q 111 0 87 -26 q 105 40 111 20 q 95 79 100 60 q 84 119 89 99 q 79 159 79 138 q 82 181 79 172 q 90 195 86 189 q 98 206 94 201 q 102 218 102 211 q 112 229 102 220 q 133 251 121 239 q 155 277 145 263 q 165 300 165 290 q 158 317 165 309 q 142 333 151 325 q 127 349 134 340 q 120 368 120 357 q 122 398 120 382 q 128 428 125 413 q 133 457 131 442 q 136 488 136 472 q 134 493 136 491 q 133 499 133 496 q 137 512 133 507 q 145 523 140 518 q 154 531 150 527 q 157 539 157 535 q 153 550 157 545 q 149 564 149 555 l 149 567 l 149 570 q 167 588 160 578 q 184 606 174 598 q 216 629 197 618 q 250 648 235 640 q 258 643 256 648 q 265 638 260 638 q 278 643 269 638 q 299 653 287 647 q 324 663 311 659 q 350 667 337 667 q 372 666 361 667 q 393 663 382 664 q 432 659 415 660 q 464 654 449 659 q 491 640 478 650 q 517 609 503 630 q 532 620 524 615 q 549 630 541 625 q 564 641 557 635 q 574 657 571 648 q 588 654 581 654 q 600 658 593 654 q 614 666 606 662 q 633 675 622 671 q 659 679 644 679 q 704 674 682 679 q 749 667 726 669 q 755 638 750 652 q 765 610 760 624 q 775 581 770 595 q 779 552 779 567 q 769 529 779 542 q 743 505 758 516 q 710 486 728 494 q 680 479 693 479 q 675 480 677 479 q 673 484 673 481 q 677 496 673 491 q 682 507 682 500 q 671 513 673 512 q 669 513 669 513 q 650 508 657 513 q 640 492 644 502 q 635 470 637 482 q 634 446 634 458 q 635 421 634 433 q 635 401 635 409 q 633 371 635 384 q 618 345 631 357 q 600 320 606 334 q 586 291 593 306 q 571 261 579 276 q 547 234 562 246 q 533 222 538 226 q 526 216 528 218 q 523 213 524 214 q 521 213 522 213 q 486 208 503 213 q 452 197 469 203 q 418 186 435 191 q 382 181 401 181 q 328 188 355 181 q 273 194 301 194 q 242 189 259 194 q 211 173 225 183 q 186 150 196 163 q 176 121 176 137 q 180 102 176 112 q 191 83 184 92 q 207 70 197 75 q 226 65 216 65 q 247 71 237 65 q 269 76 257 76 q 282 72 277 76 q 293 66 287 67 q 296 74 293 71 q 304 77 299 77 q 312 73 308 77 q 321 66 316 68 q 331 74 325 72 q 343 77 337 77 q 358 74 351 77 q 372 67 366 71 q 385 61 379 64 q 397 58 391 58 q 407 61 403 58 q 416 68 411 64 q 427 76 420 73 q 442 79 433 79 q 456 78 450 79 q 470 77 463 77 q 489 82 480 77 q 509 87 498 87 q 519 84 514 87 q 532 78 524 81 q 550 72 539 75 q 576 69 560 69 q 597 66 587 69 q 618 58 608 62 q 639 48 629 53 q 660 41 650 43 q 678 34 672 37 q 688 26 684 31 q 696 17 692 22 q 709 5 700 12 q 728 -8 718 -3 q 745 -17 737 -12 q 759 -29 753 -22 q 768 -52 765 -37 q 776 -83 772 -67 q 780 -115 780 -98 m 604 566 q 593 583 604 576 q 572 590 581 590 q 562 588 566 590 q 555 580 557 585 q 565 575 561 578 q 573 568 569 572 q 581 562 576 564 q 591 559 585 559 q 604 561 597 559 l 604 566 m 536 423 q 531 457 536 438 q 517 493 526 476 q 494 524 507 511 q 467 543 481 538 l 388 570 q 378 569 382 570 q 372 566 375 568 q 365 563 368 564 q 355 562 361 562 q 339 565 347 562 q 323 568 332 568 q 311 564 316 568 q 302 554 307 559 q 293 547 297 549 q 286 544 290 545 q 278 541 282 543 q 271 536 275 539 q 258 517 265 533 q 243 481 250 500 q 232 445 237 463 q 227 421 227 427 q 231 409 227 418 q 242 387 235 400 q 256 360 248 374 q 271 333 264 346 q 284 310 278 320 q 292 298 290 300 q 312 282 301 286 q 334 279 322 279 q 354 280 343 279 q 374 281 364 281 q 390 280 382 281 q 406 278 397 278 q 451 293 428 278 q 493 330 474 308 q 524 377 512 351 q 536 423 536 402 z "},"h":{"ha":857,"x_min":7,"x_max":833,"o":"m 833 33 q 830 11 833 21 q 820 -9 826 0 q 790 -12 804 -11 q 760 -12 775 -12 q 730 -12 745 -12 q 700 -12 715 -12 q 659 -16 679 -12 q 618 -20 639 -20 q 588 9 590 -20 q 571 4 578 9 q 556 -8 564 -2 q 540 -21 549 -15 q 519 -26 531 -26 q 496 -20 508 -26 q 484 1 484 -13 q 487 9 484 5 q 492 17 489 14 q 498 22 495 20 q 500 26 500 24 q 498 33 500 30 q 491 38 495 35 q 485 44 488 41 q 482 52 482 47 q 490 67 482 62 q 511 75 498 73 q 539 77 524 77 q 568 78 554 77 q 593 82 583 79 q 608 93 604 85 q 619 122 615 105 q 626 157 623 139 q 629 194 628 176 q 630 226 630 212 q 628 285 630 256 q 619 343 625 314 q 612 370 616 357 q 608 396 608 382 q 610 412 608 405 q 616 424 613 418 q 622 434 619 429 q 625 445 625 439 q 618 465 625 456 q 608 484 611 473 q 603 503 604 493 q 598 522 602 513 q 589 535 595 529 q 578 546 584 541 q 568 557 573 552 q 559 570 562 563 q 514 572 536 572 q 459 569 484 572 q 411 555 433 565 q 368 530 388 546 q 329 491 348 515 q 313 473 322 483 q 294 452 303 463 q 276 431 284 441 q 267 410 269 420 q 256 349 260 382 q 252 286 252 315 q 255 267 252 277 q 260 249 257 258 q 266 230 263 239 q 268 211 268 221 q 265 194 268 206 q 258 168 262 181 q 250 145 254 155 q 240 136 245 136 q 250 123 241 131 q 268 108 258 115 q 289 95 279 100 q 303 90 298 90 q 315 91 309 90 q 326 92 321 92 q 354 84 339 92 q 380 69 370 77 q 393 53 391 60 q 380 46 395 46 q 373 46 377 46 q 366 45 370 45 q 357 49 359 45 q 352 57 354 53 q 348 65 350 62 q 340 69 346 69 q 336 65 337 69 q 335 58 335 61 q 340 46 335 52 q 352 33 346 39 q 364 19 359 26 q 370 4 370 12 q 367 -1 370 1 q 361 -2 364 -2 q 348 0 355 -2 q 335 2 342 2 q 323 -3 329 2 q 309 -14 318 -8 q 286 -25 300 -20 q 248 -31 272 -31 q 235 -23 238 -31 q 229 -6 231 -16 q 222 10 226 3 q 209 18 219 18 q 200 14 203 18 q 195 5 197 9 l 196 5 q 200 -1 198 3 q 205 -11 203 -5 q 209 -21 207 -16 q 211 -29 210 -26 l 199 -28 q 180 -30 189 -28 q 163 -34 172 -32 q 146 -39 155 -37 q 128 -40 137 -41 q 112 -38 119 -40 q 98 -32 105 -35 q 74 -26 86 -26 q 52 -23 62 -25 q 35 -14 41 -21 q 28 12 28 -6 q 33 35 28 23 q 44 55 37 46 q 62 70 52 64 q 83 76 72 76 q 99 72 92 76 q 115 68 106 68 q 126 73 121 68 q 134 82 130 77 q 142 91 138 87 q 153 97 146 96 q 159 168 154 133 q 165 239 165 203 q 158 308 165 274 q 152 378 152 342 q 158 420 152 399 q 163 462 163 440 q 158 484 163 473 q 153 506 153 494 q 158 519 153 515 q 164 532 163 524 l 162 532 q 153 541 153 532 q 159 551 153 551 q 165 549 161 551 q 162 559 165 554 q 155 570 159 565 q 148 582 151 576 q 144 593 144 587 q 154 618 152 608 q 157 640 157 629 q 156 660 157 650 q 155 683 155 669 q 161 711 155 698 q 167 740 167 725 q 163 752 167 749 q 153 755 159 755 q 144 754 149 755 q 142 778 144 763 q 137 808 141 793 q 125 832 133 822 q 104 843 117 843 q 89 842 96 843 q 73 841 81 841 q 48 848 60 841 q 27 865 36 854 q 13 889 18 876 q 7 914 7 902 q 16 931 7 928 q 34 935 24 935 q 44 934 39 935 q 54 934 49 934 q 69 936 61 934 q 83 943 77 937 q 124 946 104 944 q 165 948 144 948 q 186 943 177 948 q 203 930 195 937 q 220 917 212 923 q 240 909 229 911 q 238 880 240 894 q 235 850 235 865 q 241 824 235 836 q 247 798 247 811 q 244 793 247 793 q 238 792 241 793 q 233 789 235 791 q 231 780 231 787 q 233 768 231 774 q 238 758 235 763 q 243 747 241 753 q 245 736 245 742 q 242 715 245 725 q 238 695 238 706 q 240 667 238 686 q 247 629 242 648 q 259 595 252 610 q 277 581 267 581 q 304 587 292 581 q 329 604 317 594 q 352 625 341 614 q 372 645 363 636 q 396 656 378 650 q 434 666 414 661 q 474 673 455 670 q 503 675 494 675 q 535 673 525 675 q 551 665 545 670 q 565 653 558 660 q 588 638 572 646 q 601 634 595 635 q 613 632 608 633 q 625 628 619 631 q 636 618 631 625 q 658 593 645 606 q 683 565 671 580 q 703 535 694 551 q 711 504 711 519 q 708 484 711 494 q 704 463 704 473 q 707 450 704 456 q 711 437 711 444 q 710 416 711 429 q 707 391 709 404 q 702 366 705 378 q 694 348 699 354 q 708 312 705 331 q 711 274 711 293 q 709 227 711 250 q 707 180 707 203 q 716 131 707 148 q 740 104 726 113 q 770 91 753 95 q 801 81 787 87 q 824 65 814 75 q 833 33 833 54 z "},"i":{"ha":789,"x_min":50,"x_max":788,"o":"m 460 851 q 453 811 460 831 q 435 773 447 790 q 405 744 422 755 q 367 733 388 733 q 332 738 353 733 q 291 750 311 742 q 258 772 272 759 q 244 804 244 786 q 248 838 244 821 q 252 873 252 855 q 266 885 259 876 q 279 903 273 894 q 292 920 286 912 q 305 928 298 927 l 302 926 q 322 933 311 930 q 343 936 332 936 q 377 929 357 936 q 416 910 397 922 q 447 883 434 899 q 460 851 460 867 m 788 26 q 784 4 788 14 q 771 -14 779 -6 q 753 -26 764 -22 q 731 -31 743 -31 q 725 -30 726 -31 q 720 -25 724 -28 q 697 -13 711 -15 q 669 -10 684 -12 q 641 -2 654 -8 q 620 21 628 3 q 608 36 614 33 q 589 39 602 39 q 532 30 559 39 q 479 8 505 20 q 425 -13 452 -3 q 368 -22 397 -22 q 336 -19 352 -22 q 305 -9 320 -16 q 297 -14 302 -13 q 288 -16 293 -16 q 278 -15 283 -16 q 271 -14 274 -14 q 263 -17 270 -14 q 255 -20 256 -19 l 259 -26 q 241 -38 255 -33 q 210 -48 227 -44 q 178 -55 193 -52 q 154 -58 162 -58 q 118 -51 132 -58 q 91 -26 104 -43 q 79 -12 86 -19 q 65 2 72 -5 q 55 17 59 9 q 50 34 50 25 q 61 51 50 44 q 87 62 72 58 q 117 68 102 66 q 140 70 132 70 q 172 65 156 70 q 205 61 189 61 q 233 65 220 61 q 262 69 247 69 q 287 67 275 69 q 313 66 300 66 q 344 72 329 66 q 373 87 359 77 q 381 153 378 120 q 383 220 383 186 q 378 287 383 254 q 372 353 372 320 q 374 356 372 355 q 377 356 375 356 q 380 358 378 357 q 381 363 381 359 q 377 391 381 377 q 373 418 373 404 q 378 453 373 436 q 382 488 382 470 q 377 512 382 500 q 363 534 372 524 q 342 549 354 543 q 318 555 331 555 q 290 551 304 555 q 261 544 276 548 q 231 536 246 539 q 199 532 216 532 q 160 535 179 532 q 121 541 141 538 q 100 544 112 543 q 77 549 88 545 q 59 559 66 552 q 52 578 52 566 q 60 615 52 602 q 81 633 68 627 q 109 641 94 640 q 139 644 125 642 q 190 647 165 646 q 241 649 216 649 q 304 645 273 649 q 367 642 335 642 q 410 635 389 642 q 445 614 430 628 q 469 579 460 600 q 478 530 478 558 q 470 495 478 512 q 450 464 463 477 q 460 452 455 455 q 469 447 465 449 q 475 440 473 444 q 478 427 478 437 q 480 414 478 421 q 489 406 481 407 q 488 334 489 370 q 488 262 488 298 q 488 201 488 232 q 493 140 488 171 q 504 111 496 121 q 533 101 512 101 q 593 107 564 101 q 654 114 623 114 q 687 105 671 114 q 718 86 703 96 q 746 67 732 76 q 772 58 760 58 q 781 55 777 58 q 786 46 784 51 q 788 35 787 41 q 788 26 788 30 z "},"j":{"ha":577,"x_min":-16,"x_max":477,"o":"m 402 724 l 401 724 l 403 724 l 402 724 m 458 783 q 443 742 458 760 q 404 724 428 724 l 402 724 l 401 724 q 391 725 397 724 l 391 726 q 389 733 389 730 q 395 749 389 742 q 401 766 401 755 l 401 769 l 400 773 q 378 760 386 770 q 366 738 370 750 q 359 711 361 725 q 352 686 356 697 q 315 697 337 687 q 274 723 294 707 q 239 756 254 738 q 225 792 225 774 q 216 815 225 804 q 198 839 206 826 q 189 866 190 851 q 207 899 189 881 q 237 915 222 906 q 268 930 252 923 q 299 943 283 938 q 332 948 315 948 q 385 937 362 944 q 421 922 405 932 q 438 899 438 913 q 442 880 437 889 q 458 870 447 871 l 458 783 m 477 -68 q 467 -135 477 -104 q 436 -190 456 -167 q 387 -228 416 -214 q 320 -241 357 -241 q 313 -245 315 -241 q 310 -253 311 -248 q 308 -263 309 -258 q 304 -271 307 -268 q 294 -277 300 -276 q 281 -279 288 -278 q 268 -283 275 -280 q 252 -294 260 -286 q 238 -310 243 -303 q 226 -320 232 -316 q 211 -326 220 -324 q 189 -328 203 -328 q 143 -324 159 -328 q 116 -313 127 -321 q 94 -294 105 -306 q 64 -263 83 -281 q 53 -256 60 -258 q 39 -250 45 -253 q 28 -242 33 -247 q 24 -229 24 -237 q 18 -209 24 -224 q 4 -174 12 -194 q -9 -134 -3 -155 q -16 -97 -16 -113 q -11 -61 -16 -81 q 0 -28 -7 -41 q 8 -18 3 -22 q 19 -12 13 -15 q 30 -6 24 -9 q 41 1 36 -3 q 53 10 47 8 q 68 12 58 12 q 121 4 102 12 q 154 -15 141 -4 q 178 -38 168 -26 q 207 -58 189 -50 q 205 -72 205 -64 q 205 -82 205 -77 q 206 -90 205 -87 l 207 -97 q 200 -121 205 -109 q 190 -144 195 -132 q 181 -168 185 -156 q 178 -193 178 -180 q 188 -222 178 -210 l 197 -223 l 202 -223 q 230 -218 216 -223 q 257 -203 245 -212 q 277 -181 269 -193 q 285 -153 285 -168 q 284 -145 285 -148 l 292 -144 q 311 -147 302 -144 q 329 -150 319 -150 q 338 -146 335 -150 q 344 -138 342 -143 q 347 -128 346 -134 q 349 -118 348 -123 q 355 -81 351 -99 q 363 -46 359 -64 q 370 -11 368 -29 q 373 27 373 7 q 367 75 373 52 q 361 123 361 99 q 364 142 361 133 q 366 161 366 152 q 359 199 366 181 q 352 237 352 217 q 356 275 352 256 q 360 314 360 294 q 355 376 360 345 q 351 439 351 407 q 351 461 351 450 q 352 484 352 472 q 344 518 352 505 q 322 539 336 532 q 293 548 309 546 q 258 551 276 551 q 228 550 243 551 q 201 549 214 549 q 170 551 188 549 q 134 558 151 553 q 105 575 117 564 q 94 603 94 585 q 101 627 94 618 q 121 641 109 636 q 145 647 132 646 q 169 648 158 648 q 231 650 201 648 q 294 651 262 651 q 306 650 299 651 q 313 648 312 650 l 313 657 q 334 662 323 661 q 355 663 345 663 q 375 662 363 663 q 398 657 387 661 q 418 649 410 654 q 427 633 427 643 q 425 625 427 629 q 420 618 422 621 l 468 589 q 469 571 469 580 q 469 552 469 562 q 467 487 469 519 q 466 422 466 454 q 466 395 466 408 q 468 368 467 381 q 473 340 469 354 q 477 313 477 327 q 474 298 477 305 q 468 285 471 292 q 461 273 464 279 q 458 260 458 267 q 465 253 458 253 q 467 197 466 224 q 467 140 467 169 q 466 97 467 117 q 458 54 464 77 q 457 51 458 52 q 457 48 457 50 q 460 19 457 33 q 467 -10 463 4 q 474 -39 471 -24 q 477 -68 477 -53 z "},"k":{"ha":862,"x_min":16,"x_max":832,"o":"m 832 26 q 829 12 832 16 q 821 4 825 7 q 813 -3 817 1 q 810 -13 810 -6 q 810 -19 810 -17 q 758 -27 787 -25 q 705 -29 729 -29 q 696 -27 701 -29 q 686 -23 691 -26 q 679 -17 682 -21 q 675 -9 675 -14 q 657 -14 667 -12 q 638 -18 648 -16 q 621 -26 629 -21 q 608 -39 613 -31 q 584 -34 599 -36 q 553 -29 570 -32 q 521 -23 537 -26 q 491 -13 505 -19 q 470 1 478 -7 q 461 21 461 9 q 462 33 461 24 q 465 50 463 41 q 470 66 467 59 q 477 73 473 73 q 490 70 484 73 q 504 67 496 67 l 511 68 l 511 73 q 508 82 511 79 q 500 86 505 85 q 491 87 496 87 q 482 87 486 87 q 494 108 491 96 q 496 132 496 120 q 493 160 496 144 q 484 191 490 176 q 467 217 477 205 q 444 232 457 229 q 434 251 439 241 q 421 269 429 260 q 405 282 414 277 q 385 288 396 288 q 354 275 373 288 q 317 245 335 262 q 286 213 299 229 q 273 192 273 197 q 275 178 273 184 q 277 163 277 171 q 272 142 277 152 q 260 125 267 133 q 270 107 262 113 q 289 98 278 101 q 312 94 300 95 q 333 91 323 93 q 345 81 337 87 q 360 67 353 75 q 372 53 367 60 q 378 39 378 45 q 373 31 378 33 q 361 29 368 30 q 350 26 355 28 q 345 18 345 24 q 347 9 345 13 q 283 3 314 8 q 221 -9 252 -2 q 195 -14 208 -13 q 169 -14 182 -14 q 142 -15 156 -14 q 116 -18 129 -16 q 97 -20 106 -20 q 68 -14 81 -20 q 44 3 54 -8 q 28 27 34 14 q 22 56 22 41 q 31 84 22 71 q 57 97 39 97 q 66 92 62 97 q 75 87 69 87 q 79 90 77 87 q 84 97 81 93 q 90 104 86 101 q 100 109 94 108 q 132 122 119 112 q 151 147 144 132 q 161 179 158 161 q 163 213 163 196 q 160 239 163 227 q 157 264 157 252 q 164 301 157 282 q 170 342 170 319 q 166 405 170 374 q 163 468 163 436 q 165 516 163 492 q 168 564 168 541 q 166 581 168 573 q 161 596 163 589 q 156 609 158 603 q 153 623 153 616 q 158 650 153 636 q 163 677 163 663 q 158 707 163 692 q 153 736 153 721 q 155 760 153 748 q 157 784 157 772 q 147 821 157 808 q 121 839 136 833 q 86 846 105 844 q 52 850 68 847 q 26 861 37 853 q 16 885 16 868 q 24 917 16 905 q 47 937 33 930 q 77 946 60 943 q 109 948 93 948 q 178 932 153 939 q 215 920 203 925 q 231 913 228 916 q 235 908 234 910 q 242 871 239 896 q 248 820 245 847 q 251 769 250 793 q 252 732 252 744 q 246 697 252 713 q 241 663 241 680 q 246 626 241 644 q 252 589 251 608 q 253 565 253 577 q 254 541 254 553 q 253 505 254 524 q 253 469 253 487 q 254 418 253 443 q 260 368 256 393 q 266 366 263 366 q 272 366 269 366 q 294 373 286 366 q 311 390 303 380 q 326 409 318 399 q 347 425 334 419 q 374 445 363 431 q 395 472 385 458 q 417 499 406 486 q 444 518 428 511 q 461 543 461 525 q 458 563 461 553 q 452 582 456 572 q 446 601 448 591 q 443 621 443 611 l 444 629 l 449 628 l 451 628 q 456 628 454 628 q 459 631 459 629 q 456 644 456 637 q 460 656 456 653 q 473 659 465 659 q 502 653 488 659 q 530 648 515 648 q 551 651 541 648 q 571 657 561 654 q 591 664 581 661 q 612 667 601 667 q 648 663 630 667 q 684 658 665 658 q 721 663 703 658 q 759 669 739 669 q 768 667 762 669 q 780 661 774 665 q 790 654 786 658 q 795 646 795 650 q 789 639 793 641 q 785 635 785 637 q 789 627 785 631 q 797 617 792 623 q 804 607 801 612 q 808 595 808 601 q 791 578 808 586 q 754 563 775 570 q 712 553 732 557 q 684 549 692 549 q 662 554 669 549 q 648 559 655 559 q 621 551 637 559 q 584 529 604 543 q 545 498 565 515 q 510 464 526 481 q 483 431 494 447 q 473 406 473 416 q 469 385 472 395 q 467 363 467 374 q 473 348 467 354 q 487 337 479 342 q 504 326 495 332 q 516 311 512 319 q 534 280 522 297 q 561 243 547 262 q 591 204 576 224 q 618 166 606 184 q 638 131 631 147 q 646 102 646 114 l 646 97 q 713 104 680 104 q 757 102 735 104 q 801 97 779 100 l 801 91 l 801 87 q 806 65 801 74 q 817 51 810 57 q 827 38 823 44 q 832 26 832 33 z "},"l":{"ha":751,"x_min":7,"x_max":747,"o":"m 747 35 q 731 -2 747 12 q 692 -23 715 -16 q 646 -33 670 -31 q 605 -35 622 -35 q 568 -31 583 -35 q 543 -22 553 -26 q 524 -14 532 -18 q 507 -9 515 -9 q 484 -14 495 -9 q 461 -18 473 -18 q 448 -15 453 -18 q 439 -8 443 -12 q 433 -2 436 -5 q 426 1 430 1 q 418 -3 421 1 q 412 -12 416 -7 q 402 -20 409 -16 q 384 -24 396 -24 q 356 -21 370 -24 q 328 -18 342 -18 q 300 -23 314 -18 q 274 -28 286 -28 q 266 -24 269 -28 q 260 -20 263 -20 q 236 -26 248 -20 q 210 -31 223 -31 q 197 -30 203 -31 q 184 -28 191 -28 q 161 -33 172 -28 q 132 -39 149 -39 q 105 -37 126 -39 q 63 -32 85 -35 q 24 -23 41 -28 q 7 -12 7 -18 q 13 23 7 5 q 20 57 20 41 l 20 58 q 9 68 11 58 q 14 72 11 71 q 20 75 17 74 q 26 78 24 76 q 29 84 29 80 l 29 87 q 82 83 56 84 q 137 83 109 83 q 196 84 163 83 q 255 94 228 86 q 301 119 283 102 q 320 165 320 136 l 320 170 l 320 181 q 313 328 317 256 q 309 475 309 400 q 306 513 309 494 q 303 551 303 532 q 312 598 303 574 q 338 638 320 622 q 335 644 338 642 q 328 646 332 646 q 320 648 324 647 q 314 650 317 648 q 309 659 310 652 q 306 675 307 667 q 304 693 305 684 q 300 706 303 701 q 307 745 302 726 q 311 783 311 764 q 308 806 311 798 q 299 819 304 814 q 291 829 294 825 q 287 840 287 833 q 290 850 287 846 l 285 851 q 275 848 278 851 q 268 840 271 844 q 262 833 265 836 q 252 829 258 829 q 241 831 248 829 q 220 828 230 828 q 173 834 196 828 q 125 841 149 841 q 100 840 113 841 q 76 839 88 839 q 41 843 58 839 q 9 861 23 847 l 9 869 q 34 923 9 905 q 92 941 58 941 q 139 935 116 941 q 186 929 162 929 q 213 932 199 929 q 242 938 227 935 q 272 944 257 941 q 302 947 288 947 q 346 937 326 947 q 387 918 366 927 l 386 913 q 389 902 386 907 q 396 891 392 897 q 403 881 400 886 q 406 870 406 876 q 405 858 406 864 q 403 846 403 852 q 409 818 403 831 q 414 789 414 804 q 411 757 414 772 q 407 725 407 741 q 412 686 407 705 q 416 646 416 666 q 411 614 416 630 q 406 583 406 599 q 409 561 406 572 q 416 538 412 549 q 424 516 420 528 q 427 493 427 505 l 427 479 q 425 459 427 469 q 416 440 423 449 q 423 412 419 427 q 427 384 427 397 q 426 369 427 377 q 422 354 425 361 q 416 339 420 346 q 406 329 412 333 q 418 277 415 303 q 422 224 420 250 q 425 203 422 216 q 429 177 427 190 q 432 154 431 165 q 434 140 434 144 q 430 117 434 128 q 426 95 426 106 q 430 76 426 86 q 445 66 434 66 q 459 70 453 66 q 471 78 465 74 q 487 86 478 83 q 512 90 496 90 q 545 85 530 90 q 578 81 561 81 q 605 83 591 81 q 630 89 618 85 q 656 94 643 92 q 682 97 669 97 q 728 81 709 97 q 747 35 747 66 m 357 880 q 351 885 355 882 q 342 888 347 888 q 337 885 339 888 q 334 878 334 882 l 338 870 q 342 869 340 869 q 351 872 347 869 q 357 880 355 876 m 398 691 q 395 702 398 696 q 385 708 392 708 q 381 707 383 708 q 377 706 378 707 l 377 677 q 385 674 382 674 q 395 680 392 674 q 398 691 398 686 z "},"m":{"ha":922,"x_min":65,"x_max":879,"o":"m 879 32 q 877 17 879 27 q 872 -2 876 7 q 863 -20 868 -12 q 852 -27 859 -27 q 838 -24 845 -27 q 823 -21 830 -21 q 776 -25 799 -21 q 729 -30 753 -30 q 707 -27 718 -30 q 687 -20 697 -24 q 667 -14 677 -17 q 646 -9 657 -10 q 622 4 630 -7 q 613 31 613 16 q 623 62 613 50 q 645 89 633 75 q 667 122 657 102 q 677 175 677 142 q 671 307 677 241 q 665 439 665 372 l 665 459 q 664 488 665 473 q 657 515 663 503 q 642 534 652 527 q 613 542 631 542 q 583 521 597 532 q 558 495 569 510 q 548 473 553 488 q 538 437 543 457 q 529 393 533 416 q 521 349 524 370 q 515 311 517 328 q 513 284 513 293 q 517 232 513 258 q 521 180 521 206 q 518 154 521 167 q 516 128 516 142 q 517 117 516 123 q 521 106 517 112 q 539 96 528 102 q 558 82 549 90 q 574 66 568 75 q 581 47 581 57 q 566 16 581 28 q 533 3 552 3 q 524 4 528 3 q 515 5 520 5 q 502 2 509 5 q 489 -3 496 0 q 475 -8 482 -6 q 460 -11 468 -11 q 419 -5 439 -11 q 378 0 399 0 q 368 5 372 0 q 360 17 363 10 q 355 31 357 24 q 354 43 354 39 q 359 62 354 56 q 372 73 364 68 q 388 83 379 78 q 405 97 397 88 q 417 121 412 106 q 422 161 422 136 q 420 181 422 172 q 414 200 417 191 q 409 219 411 210 q 406 239 406 229 q 410 274 406 256 q 414 309 414 292 q 410 334 414 322 q 405 357 405 345 q 410 373 405 366 q 415 389 415 380 q 414 399 415 391 q 411 416 412 406 q 408 437 409 426 q 406 457 406 448 q 409 481 406 469 q 412 506 412 494 q 409 520 412 513 q 399 531 405 526 q 385 539 393 536 q 371 542 378 542 q 349 537 359 542 q 328 526 338 533 q 310 511 319 519 q 293 496 301 503 q 289 483 291 490 q 284 471 288 476 q 276 464 281 467 q 264 458 270 461 q 254 453 258 456 q 250 444 250 450 q 253 435 250 438 q 261 430 257 431 q 268 402 268 415 q 266 380 268 391 q 260 358 263 369 q 255 337 257 348 q 252 315 252 326 l 253 247 q 255 234 253 237 q 261 230 258 231 q 267 224 264 228 q 272 210 270 221 q 276 183 274 197 q 277 155 277 169 q 275 127 277 141 q 272 99 272 113 q 276 77 272 84 q 288 67 281 70 q 302 63 294 64 q 316 59 309 62 q 327 50 323 56 q 332 28 332 43 q 324 6 332 14 q 304 -6 317 -3 q 215 -24 261 -18 q 125 -31 169 -31 q 102 -30 111 -31 q 86 -25 92 -29 q 78 -11 81 -20 q 75 16 75 -1 q 88 44 75 32 q 115 68 100 57 q 142 92 130 80 q 155 118 155 104 q 154 129 155 124 q 154 138 154 134 q 156 151 154 144 q 163 164 157 157 q 160 194 163 179 q 153 223 157 209 q 147 253 150 238 q 144 283 144 267 q 150 345 144 315 q 155 408 155 376 q 154 442 155 425 q 152 477 153 459 q 147 510 150 497 q 139 531 144 522 q 122 546 133 540 q 93 562 112 553 q 74 576 82 567 q 65 597 65 585 q 72 617 65 612 q 86 626 78 623 q 103 632 95 629 q 115 643 111 635 q 120 650 117 649 q 129 651 122 651 q 164 645 147 651 q 197 633 181 640 q 227 621 212 627 q 255 615 241 615 q 285 624 269 615 q 320 644 301 633 q 362 664 339 655 q 416 673 386 673 q 439 668 427 673 q 463 654 452 663 q 485 637 475 646 q 501 618 494 627 q 539 646 517 634 q 585 665 561 657 q 633 675 608 672 q 680 679 657 679 q 710 670 696 679 q 734 645 724 661 q 752 611 745 630 q 767 573 760 592 q 778 536 773 554 q 787 506 783 518 q 789 499 788 503 q 789 492 789 496 q 787 473 789 482 q 781 456 784 465 q 775 439 778 448 q 772 420 772 430 q 776 402 772 411 q 780 384 780 393 q 776 365 780 374 q 772 345 772 355 q 777 319 772 332 q 782 294 782 307 q 779 274 782 283 q 772 256 776 265 q 765 237 768 246 q 762 218 762 228 q 763 211 762 214 q 765 205 764 208 l 791 138 q 812 111 798 124 q 841 86 826 98 q 867 61 856 74 q 879 32 879 47 z "},"n":{"ha":878,"x_min":45,"x_max":849,"o":"m 849 18 q 844 2 849 8 q 832 -7 840 -4 q 817 -12 825 -11 q 801 -13 808 -13 q 781 -12 791 -13 q 760 -9 770 -10 q 728 -19 747 -14 q 694 -24 709 -24 q 687 -22 690 -24 q 680 -21 683 -21 q 656 -25 668 -21 q 633 -30 644 -30 q 595 -25 613 -30 q 557 -18 577 -20 q 508 6 526 -16 q 490 59 491 28 q 534 77 511 72 q 581 81 557 81 q 608 81 595 81 q 635 79 621 80 q 626 180 633 130 q 619 283 619 231 q 620 318 619 300 q 625 353 621 336 q 633 388 628 371 q 639 423 639 406 q 635 445 639 435 q 627 465 632 454 q 621 483 622 473 q 617 504 619 493 q 611 524 615 514 q 598 543 607 534 q 572 555 589 551 q 530 560 556 560 q 506 558 522 560 q 473 552 490 555 q 442 543 456 548 q 422 532 427 538 q 413 523 418 529 q 402 510 408 517 q 391 499 397 504 q 382 493 386 494 q 367 490 372 491 q 358 486 361 488 q 353 478 355 483 q 347 463 351 473 q 341 453 345 460 q 333 445 337 445 q 328 448 330 445 q 323 450 327 450 q 320 449 322 450 q 316 446 317 447 l 316 427 q 308 421 311 421 q 301 420 304 420 q 298 416 299 419 q 297 404 297 414 q 294 390 297 396 q 287 378 290 384 q 279 365 283 372 q 276 351 276 359 q 280 325 276 337 q 283 298 283 312 q 281 283 283 290 q 274 272 278 277 q 268 262 271 267 q 265 251 265 258 q 269 234 265 241 q 277 218 273 226 q 284 201 281 210 q 288 182 288 192 q 286 158 288 170 q 283 134 283 146 q 287 112 283 120 q 299 100 292 104 q 315 94 306 96 q 335 89 325 92 q 355 78 345 85 q 374 59 365 72 l 378 60 q 395 50 389 60 q 400 31 400 41 q 396 14 400 21 q 392 -5 392 7 q 374 -18 392 -13 q 334 -27 357 -24 q 291 -31 312 -30 q 264 -32 271 -32 q 239 -32 256 -32 q 202 -30 222 -31 q 159 -27 181 -29 q 117 -21 136 -25 q 85 -12 98 -18 q 68 2 72 -6 q 62 20 65 10 q 58 39 58 30 q 63 58 58 50 q 76 73 68 66 q 98 84 86 82 q 122 86 111 85 q 145 88 134 86 q 165 98 157 90 q 179 126 174 107 q 184 180 184 145 q 182 198 184 189 q 179 215 181 207 q 176 231 177 224 q 174 241 174 237 q 177 250 174 245 q 182 259 179 254 q 188 271 185 264 q 190 284 190 277 q 185 307 190 296 q 181 329 181 317 q 184 347 181 338 q 188 366 188 356 q 184 380 188 373 q 180 395 180 387 q 182 410 180 402 q 185 426 185 418 q 181 462 185 444 q 174 498 177 481 q 158 530 170 519 q 133 546 147 541 q 103 555 119 551 q 75 565 87 558 q 53 586 62 572 q 45 625 45 599 q 55 652 45 642 q 81 666 66 661 q 112 671 96 670 q 141 671 129 671 q 180 666 161 671 q 219 659 199 660 q 236 653 228 658 q 251 641 244 648 q 262 625 258 633 q 267 607 266 616 q 269 592 267 603 q 276 571 272 582 q 284 552 279 560 q 293 543 288 543 q 299 551 297 547 q 302 559 300 555 q 311 570 302 564 q 330 585 319 577 q 350 599 340 592 q 364 610 360 606 q 371 620 368 614 q 375 629 373 625 q 381 636 378 633 q 393 639 385 639 l 397 639 q 411 645 404 639 q 429 660 418 652 q 457 674 439 668 q 504 681 475 681 q 554 680 529 681 q 602 673 579 679 q 645 654 625 667 q 680 618 665 641 q 699 591 691 600 q 711 574 706 582 q 717 554 715 566 q 719 519 719 543 q 722 502 719 510 q 730 485 726 494 q 738 467 734 477 q 741 446 741 458 q 739 398 741 422 q 736 351 736 375 q 729 318 736 334 q 723 285 723 302 q 727 269 723 277 q 731 252 731 262 q 728 229 731 241 q 726 205 726 217 q 731 186 726 195 q 736 168 736 178 q 733 159 736 163 q 728 153 731 156 q 723 145 725 149 q 720 136 720 142 q 725 116 720 126 q 739 97 730 105 q 757 83 747 88 q 777 78 767 78 q 792 82 786 78 q 806 85 799 85 q 824 78 816 85 q 837 59 831 70 q 846 37 843 48 q 849 18 849 25 m 703 273 q 698 287 703 280 q 686 293 694 293 q 676 286 679 293 q 673 273 673 279 q 676 258 673 265 q 687 252 679 252 q 697 256 694 252 q 703 272 701 260 l 703 273 m 714 143 q 710 151 714 148 q 703 156 707 154 q 698 148 701 152 q 691 139 694 144 q 685 130 688 134 q 682 120 682 125 q 685 112 682 115 q 693 107 688 109 q 697 115 694 111 q 705 124 701 119 q 711 133 708 129 q 714 143 714 138 m 263 289 q 261 300 263 294 q 257 314 260 307 q 249 325 254 320 q 239 329 245 329 q 226 325 231 329 q 212 320 220 320 l 210 320 q 208 306 208 313 l 208 302 l 209 304 q 217 292 211 296 q 230 285 223 288 q 245 279 237 282 q 258 272 252 277 q 263 289 263 278 z "},"o":{"ha":810,"x_min":56,"x_max":754,"o":"m 754 297 q 751 279 754 288 q 744 264 748 271 q 738 254 741 258 q 734 250 734 250 q 739 235 734 243 q 743 219 743 228 q 740 214 743 215 q 734 212 737 212 q 724 214 728 212 q 726 189 724 201 q 728 163 728 176 q 724 138 728 144 q 716 131 720 132 q 708 128 712 130 q 705 115 705 126 q 696 100 705 109 q 676 81 688 90 q 651 64 664 71 q 631 58 639 58 q 627 59 629 58 q 627 47 627 54 q 628 36 628 41 q 623 24 628 27 q 610 18 617 21 q 589 4 600 14 q 567 -14 578 -5 q 544 -31 555 -24 q 519 -38 532 -38 q 499 -33 508 -38 q 477 -27 490 -27 q 459 -30 467 -27 q 445 -37 452 -33 q 432 -44 439 -41 q 416 -47 425 -47 q 381 -38 399 -47 q 347 -23 363 -28 q 327 -18 338 -20 q 306 -14 316 -16 q 287 -8 296 -12 q 271 5 277 -3 q 237 34 256 22 q 199 56 218 45 q 161 77 179 66 q 129 106 142 88 q 106 137 119 121 q 82 172 93 154 q 63 210 71 191 q 56 247 56 229 q 58 273 56 260 q 64 299 61 286 q 70 326 67 313 q 73 352 73 338 l 73 359 q 71 366 73 362 q 66 372 68 369 q 61 377 64 375 q 58 380 59 380 q 57 379 57 380 q 61 398 58 385 q 68 424 64 410 q 76 448 72 437 q 83 463 80 459 q 91 470 87 466 q 95 479 95 473 q 94 491 95 486 q 94 503 94 497 q 96 513 94 511 q 101 515 98 515 q 108 516 104 515 q 115 523 111 517 q 126 546 121 535 q 139 565 132 556 q 155 581 146 574 q 176 595 163 589 q 198 610 187 602 q 219 628 208 619 q 241 643 230 637 q 265 649 252 649 q 301 655 283 649 q 336 665 318 662 q 391 673 363 669 q 447 677 418 677 q 485 672 463 677 q 531 659 507 667 q 575 640 554 650 q 608 620 595 630 l 608 618 q 604 598 608 608 q 601 579 601 589 q 601 576 601 578 q 602 575 601 575 q 624 578 614 575 q 646 581 635 581 q 656 566 648 570 q 674 558 665 562 q 689 544 682 554 q 703 520 696 533 q 714 494 709 507 q 726 473 720 481 q 735 453 731 465 q 743 430 740 442 q 747 406 746 418 q 749 384 749 394 q 744 361 749 370 q 732 345 739 352 q 721 331 726 338 q 716 317 716 325 q 718 308 716 312 q 724 300 720 304 q 729 302 725 301 q 734 306 734 302 l 734 307 q 729 317 734 312 q 725 328 725 321 q 726 333 725 330 q 730 336 728 336 q 738 331 734 336 q 746 320 742 326 q 751 310 749 314 q 753 307 753 306 l 753 308 q 754 302 753 304 q 754 297 754 300 m 686 292 q 678 305 686 302 q 660 308 670 307 q 640 310 650 309 q 627 320 630 311 l 627 327 q 623 362 627 342 q 614 402 619 382 q 602 443 608 423 q 591 479 596 463 q 582 504 585 494 q 578 513 578 513 q 570 512 573 512 q 550 517 558 512 q 531 527 541 522 q 505 537 520 532 q 465 542 490 542 q 410 546 437 542 q 355 549 382 549 q 283 532 317 549 q 225 487 250 515 q 186 423 200 458 q 172 352 172 388 q 172 317 172 337 q 176 277 173 297 q 184 240 178 257 q 201 214 191 222 l 201 195 q 209 192 204 192 q 217 191 213 191 q 225 190 222 191 q 231 184 229 189 q 254 146 239 159 q 284 124 268 133 q 317 105 300 115 q 347 79 333 96 q 358 80 352 79 q 370 80 364 80 q 412 77 391 80 q 454 74 433 74 q 494 85 476 74 q 525 115 512 97 q 540 134 533 126 q 554 150 547 142 q 569 163 561 157 q 589 178 578 170 q 599 184 593 180 q 611 194 605 189 q 621 204 616 199 q 625 214 625 209 q 623 226 625 220 q 621 238 621 232 q 623 254 621 245 q 630 273 625 264 q 641 287 634 281 q 656 293 647 293 q 671 290 664 293 q 685 281 679 286 q 686 292 686 288 z "},"p":{"ha":816,"x_min":3,"x_max":759,"o":"m 759 330 q 753 273 759 301 q 743 217 747 245 q 741 200 741 208 q 739 185 741 192 q 734 171 738 178 q 724 156 731 163 q 712 136 715 146 q 705 114 709 125 q 696 97 701 102 q 685 87 691 91 q 673 79 680 83 q 660 68 667 75 q 655 58 656 63 q 653 49 654 54 q 650 41 652 45 q 641 34 648 37 q 625 23 630 29 q 613 10 621 18 q 594 -4 606 3 q 569 -17 582 -12 q 542 -26 555 -22 q 518 -29 528 -29 q 493 -26 505 -29 q 467 -24 480 -24 q 456 -26 460 -24 q 450 -31 452 -28 q 444 -36 447 -34 q 435 -39 441 -39 q 401 -30 423 -39 q 354 -9 378 -20 q 306 11 329 2 q 271 20 283 20 q 253 13 260 20 q 243 -7 247 5 q 237 -33 239 -19 q 235 -59 235 -47 q 235 -79 235 -71 q 235 -87 235 -87 q 233 -96 235 -94 q 227 -98 231 -98 q 221 -98 224 -98 q 215 -97 218 -98 q 218 -115 215 -105 q 225 -135 221 -124 q 234 -155 230 -145 q 240 -174 238 -165 q 250 -205 245 -196 q 263 -218 255 -215 q 283 -221 271 -222 q 315 -223 296 -221 q 334 -227 323 -224 q 352 -234 344 -229 q 366 -247 360 -239 q 371 -265 371 -254 q 358 -297 371 -288 q 324 -307 345 -307 q 269 -302 296 -307 q 213 -298 241 -298 q 154 -302 183 -298 q 95 -305 124 -305 q 74 -302 87 -305 q 48 -295 61 -300 q 25 -282 35 -290 q 15 -267 15 -275 q 22 -255 15 -260 q 38 -245 29 -249 q 57 -238 47 -241 q 72 -236 66 -236 q 95 -232 84 -236 q 115 -224 105 -229 q 136 -217 125 -220 q 157 -213 146 -213 q 165 -161 163 -187 q 167 -110 167 -136 q 166 -73 167 -92 q 166 -37 166 -55 q 171 35 166 -1 q 176 106 176 70 q 175 151 176 129 q 172 196 173 174 q 167 214 170 199 q 162 248 164 229 q 158 282 159 266 q 157 304 157 299 q 159 318 157 312 q 164 328 161 323 q 169 336 167 332 q 172 342 172 339 q 170 347 172 342 q 165 357 168 351 q 161 370 163 363 q 159 385 159 378 q 164 429 159 407 q 169 472 169 450 q 148 523 169 501 q 132 538 138 533 q 119 546 125 544 q 105 550 113 549 q 83 553 97 551 q 62 557 75 553 q 36 566 49 561 q 13 579 23 572 q 3 595 3 587 q 14 615 3 607 q 40 629 25 624 q 69 636 54 634 q 93 639 84 639 q 112 637 102 639 q 128 629 121 635 q 146 638 136 636 q 168 641 157 641 q 212 632 197 641 q 237 613 228 623 q 252 593 246 602 q 267 585 258 585 q 277 587 272 585 q 288 591 282 589 q 330 608 302 598 q 391 627 359 618 q 452 642 422 636 q 496 648 481 648 q 517 645 503 648 q 548 635 531 641 q 583 622 565 629 q 617 606 602 614 q 644 590 633 597 q 660 576 656 582 q 676 555 667 564 q 699 541 684 546 q 704 530 703 536 q 705 517 705 524 l 705 504 q 709 483 705 490 q 720 470 714 475 q 730 461 725 465 q 734 448 734 456 q 732 440 734 444 q 729 432 729 436 q 734 411 729 422 q 744 388 739 401 q 754 361 749 376 q 759 330 759 347 m 448 619 q 445 626 448 623 q 438 629 441 629 q 430 622 431 629 q 428 610 428 615 q 429 611 428 611 q 431 610 430 611 l 428 609 q 440 611 433 609 q 448 619 448 612 m 679 309 q 673 349 679 330 q 660 386 668 368 q 642 421 652 404 q 621 454 631 438 q 618 464 618 458 q 617 474 617 469 q 616 484 617 479 q 612 493 615 489 q 602 500 606 499 q 592 502 597 501 q 583 505 588 503 q 573 517 578 508 q 558 531 570 524 q 534 545 547 538 q 508 556 521 552 q 489 561 496 561 q 462 555 475 561 q 435 549 449 549 q 418 553 426 549 q 403 560 410 556 q 389 567 396 564 q 373 570 381 570 l 370 570 q 371 559 371 564 q 368 550 371 553 q 361 543 366 546 q 352 538 357 541 q 342 533 347 536 q 336 518 336 526 q 329 511 336 511 q 321 512 324 511 q 319 505 321 507 q 313 502 316 503 q 306 499 309 500 q 302 493 302 497 q 286 483 293 492 q 273 458 278 473 q 263 425 267 443 q 256 389 259 406 q 252 357 254 372 q 251 335 251 342 q 254 287 251 311 q 257 238 257 262 q 256 201 257 220 q 254 164 255 183 q 286 127 271 146 q 319 95 302 109 q 357 70 336 80 q 406 60 378 60 q 428 57 417 60 q 450 52 439 54 q 471 46 460 49 q 492 44 481 44 q 514 48 503 44 q 537 60 526 53 q 558 74 548 66 q 575 90 568 82 q 588 98 581 96 q 602 106 596 101 q 607 115 606 111 q 609 125 608 120 q 612 134 610 130 q 621 142 614 138 q 637 152 633 149 q 640 163 640 155 l 640 176 q 644 185 640 182 q 651 192 647 189 q 659 200 655 195 q 662 217 662 205 q 661 234 662 226 q 659 252 659 243 q 662 268 659 260 q 669 282 665 275 q 676 295 673 289 q 679 309 679 302 z "},"q":{"ha":789,"x_min":60,"x_max":787,"o":"m 787 -248 q 784 -254 787 -252 q 777 -258 781 -256 q 768 -260 772 -259 q 762 -261 764 -260 q 719 -274 738 -264 q 678 -290 700 -284 q 661 -283 670 -285 q 642 -281 651 -281 q 607 -285 624 -281 q 572 -290 589 -289 q 563 -283 568 -287 q 553 -280 558 -280 q 547 -282 552 -280 q 535 -287 543 -284 q 519 -291 528 -289 q 502 -293 511 -293 q 482 -292 492 -293 q 464 -286 472 -290 q 451 -275 456 -282 q 446 -256 446 -268 q 457 -220 446 -229 q 487 -210 469 -211 q 525 -209 505 -208 q 564 -200 546 -209 q 593 -169 581 -192 q 605 -98 605 -146 q 603 -66 605 -88 q 597 -21 602 -44 q 585 19 593 1 q 564 36 576 36 q 537 31 553 36 q 503 19 521 26 q 466 6 484 12 q 433 -2 448 0 q 390 -7 412 -5 q 345 -9 368 -9 q 289 -5 313 -9 q 244 7 265 -2 q 205 32 224 16 q 166 73 186 47 q 157 86 160 80 q 152 101 154 92 q 145 114 150 110 q 136 121 141 119 q 126 126 131 123 q 117 136 121 130 q 110 153 112 144 q 106 172 109 162 q 99 190 103 186 q 90 197 94 193 q 82 211 85 201 q 79 252 79 222 q 76 258 79 256 q 70 262 73 260 q 63 267 66 264 q 60 273 60 269 q 62 285 60 279 q 64 298 64 291 q 63 315 64 307 q 62 332 62 323 q 66 343 62 338 q 70 357 70 349 q 67 386 70 372 q 65 415 65 401 q 66 429 65 422 q 75 435 68 435 q 77 435 76 435 q 79 435 77 435 q 69 454 79 447 q 79 480 73 468 q 92 504 85 492 q 102 523 98 514 q 110 540 106 532 q 120 556 114 548 q 135 572 125 564 q 150 586 139 576 q 173 606 161 595 q 194 626 184 616 q 205 638 203 635 q 219 636 212 636 q 247 642 233 636 q 274 654 260 648 q 305 667 289 661 q 342 673 321 673 q 359 671 347 673 q 387 666 371 669 q 419 659 402 663 q 451 651 436 654 q 476 643 466 647 q 490 637 487 640 l 541 593 q 552 596 549 593 q 558 604 556 600 q 561 614 560 608 q 564 626 562 620 q 572 638 566 633 q 585 649 578 644 q 596 659 591 654 q 601 667 601 663 q 616 658 606 660 q 635 656 625 656 l 649 656 q 672 652 666 656 q 679 629 679 647 q 673 571 679 600 q 667 511 667 542 q 673 458 667 484 q 680 406 680 433 q 675 379 680 392 q 659 357 671 366 q 668 303 666 331 q 671 248 671 276 q 669 190 671 218 q 668 132 668 161 q 670 81 668 106 q 674 30 671 56 q 678 -21 676 5 q 680 -75 680 -47 q 682 -127 680 -100 q 694 -176 685 -154 q 710 -188 696 -180 q 742 -207 725 -197 q 773 -229 759 -218 q 787 -248 787 -239 m 570 432 q 554 465 564 449 q 533 494 545 481 q 511 514 522 507 q 490 522 499 522 q 484 525 486 522 q 479 531 481 528 q 474 537 477 534 q 465 541 471 541 q 435 548 450 543 q 405 557 420 552 q 376 565 391 562 q 346 568 361 568 l 340 568 q 319 564 327 568 q 303 555 311 560 q 289 546 296 551 q 271 538 281 541 q 254 531 260 535 q 243 522 248 526 q 232 512 237 517 q 218 503 227 507 q 202 497 210 500 q 194 484 194 494 q 195 477 194 481 q 195 469 195 473 q 194 463 195 464 q 189 462 192 463 q 182 461 186 462 q 176 454 179 460 q 166 431 169 444 q 163 406 163 418 q 174 277 163 339 q 214 155 184 215 q 230 135 219 144 q 254 119 241 126 q 281 105 267 111 q 304 94 294 99 q 337 80 320 85 q 372 75 354 75 q 408 80 390 75 q 444 94 426 85 q 478 112 461 102 q 511 130 495 121 q 526 143 522 136 q 532 159 530 151 q 535 176 534 168 q 543 193 537 185 q 557 213 551 205 q 568 229 564 221 q 573 248 572 237 q 575 273 575 258 q 573 308 575 291 q 571 342 571 324 q 572 357 571 347 q 574 379 574 367 q 574 406 575 392 q 570 432 574 420 z "},"r":{"ha":804,"x_min":40,"x_max":785,"o":"m 785 495 q 780 472 785 481 q 768 454 774 463 q 755 437 762 446 q 747 416 749 428 q 734 419 741 418 q 721 420 728 420 q 689 417 705 420 q 657 415 673 415 q 627 426 639 415 q 608 454 615 437 q 598 489 601 470 q 595 522 595 507 q 602 561 595 541 q 592 563 596 563 q 579 557 583 563 q 569 552 576 552 q 558 556 563 552 q 547 561 553 561 q 521 554 536 561 q 492 538 506 548 q 467 516 477 528 q 456 493 456 504 q 430 485 442 492 q 406 471 417 479 q 391 454 397 466 q 379 430 385 443 q 369 403 374 416 q 357 380 364 389 q 337 350 346 366 q 329 316 329 335 q 336 268 329 292 q 344 218 344 243 q 341 186 344 202 q 339 154 339 170 q 346 123 339 135 q 364 105 353 112 q 391 97 376 99 q 421 95 406 95 q 454 96 438 95 q 484 97 470 97 q 489 87 488 92 q 489 77 490 82 q 486 67 488 72 q 484 55 484 62 q 486 48 484 52 q 503 53 496 48 q 514 68 511 58 q 523 64 519 66 q 526 56 526 61 q 524 48 526 52 q 519 41 522 44 q 515 34 517 37 q 513 25 513 30 q 513 19 513 22 q 515 14 514 16 q 506 7 512 9 q 494 5 500 5 q 476 8 483 5 q 463 16 469 12 q 452 23 457 20 q 441 26 448 26 q 433 25 438 26 q 422 22 427 24 q 412 17 416 20 q 408 11 408 14 q 412 1 408 5 q 416 -8 416 -3 q 412 -16 416 -13 q 404 -19 409 -18 q 394 -21 399 -20 q 386 -21 389 -21 q 333 -15 359 -21 q 281 -9 307 -9 q 256 -15 269 -9 q 231 -20 244 -20 q 219 -17 223 -20 q 213 -10 216 -14 q 207 -3 210 -6 q 197 0 203 0 q 171 -3 184 0 q 146 -8 159 -5 q 121 -14 134 -12 q 96 -16 109 -16 q 79 -15 89 -16 q 61 -9 70 -13 q 46 1 52 -5 q 40 16 40 7 q 46 31 40 22 q 61 48 53 39 q 77 62 69 56 q 90 68 85 68 q 111 68 100 68 q 133 67 121 67 q 170 73 151 67 q 204 90 189 79 q 229 117 219 100 q 238 153 238 133 q 237 171 238 162 q 235 188 235 179 q 239 223 235 205 q 243 258 243 241 q 238 307 243 282 q 233 357 233 332 q 234 401 233 379 q 235 446 235 423 q 235 475 235 456 q 230 515 234 495 q 219 549 227 534 q 197 564 211 564 q 168 561 182 564 q 137 557 153 557 q 110 559 125 557 q 80 566 94 561 q 56 581 66 571 q 45 606 45 590 q 50 633 45 623 q 63 649 55 644 q 81 656 71 654 q 104 659 92 659 q 126 658 115 659 q 149 657 138 657 q 192 660 170 657 q 235 662 213 662 q 264 661 250 662 q 294 654 279 659 q 313 639 307 650 q 324 616 319 628 q 336 596 329 605 q 357 587 342 587 q 370 590 364 587 q 381 599 376 594 q 392 608 387 604 q 405 613 397 612 q 432 623 420 615 q 457 637 445 630 q 482 651 469 645 q 509 657 494 657 q 531 659 518 657 q 558 665 545 661 q 583 674 571 669 q 602 686 595 680 q 645 677 620 685 q 692 657 669 670 q 732 628 715 645 q 751 590 749 611 q 759 566 753 577 q 770 543 764 554 q 781 520 776 532 q 785 495 785 508 z "}}}
